{
DisplayStrings = (
"/gjmAA/gjmAA/gjmAA/gjmAA/gjPA/gjmAA/gjMA/gjmAA/gjVA/gjmAA \012/gjPA/gjA/gjPA/gjAA/gjPA/gjI/gjPA/gjII/gjPA/gjU/gjPA/gjUU/gjPA/gjvR/gjPA/gjvRR/gjPA/gjvL/gjPA/gjvLL/gjPA/gjE/gjPA/gjAI/gjPA/gjO/gjPA/gjAU/gjPA/gjKA/gjPA/gjKHA/gjPA/gjGA/gjPA/gjGHA/gjPA/gjNGA/gjPA/gjCA/gjPA/gjCHA/gjPA/gjJA/gjPA/gjJHA/gjPA/gjNYA/gjPA/gjTTA/gjPA/gjTTHA/gjPA/gjDDA/gjPA/gjDDHA/gjPA/gjmAA/gjNNA/gjPA/gjTA/gjPA/gjTHA/gjPA/gjDA/gjPA/gjDHA/gjPA/gjNA/gjPA/gjPA/gjPA/gjPHA/gjPA/gjBA/gjPA/gjBHA/gjPA/gjMA/gjPA/gjYA/gjPA/gjRA/gjPA/gjLA/gjPA/gjLLA/gjPA/gjVA/gjPA/gjSHA/gjPA/gjSSA/gjPA/gjSA/gjPA/gjHA/gjPA \012/gjMA/gjA/gjMA/gjAA/gjMA/gjI/gjMA/gjII/gjMA/gjU/gjMA/gjUU/gjMA/gjvR/gjMA/gjvRR/gjMA/gjvL/gjMA/gjvLL/gjMA/gjE/gjMA/gjAI/gjMA/gjO/gjMA/gjAU/gjMA/gjKA/gjMA/gjKHA/gjMA/gjGA/gjMA/gjGHA/gjMA/gjNGA/gjMA/gjCA/gjMA/gjCHA/gjMA/gjJA/gjMA/gjJHA/gjMA/gjNYA/gjMA/gjTTA/gjMA/gjTTHA/gjMA/gjDDA/gjMA/gjDDHA/gjMA/gjNNA/gjMA/gjTA/gjMA/gjTHA/gjMA/gjDA/gjMA/gjDHA/gjMA/gjNA/gjMA/gjPA/gjMA/gjPHA/gjMA/gjBA/gjMA/gjBHA/gjMA/gjMA/gjMA/gjYA/gjMA/gjRA/gjMA/gjLA/gjMA/gjLLA/gjMA/gjVA/gjMA/gjSHA/gjMA/gjSSA/gjMA/gjSA/gjMA/gjHA/gjMA \012/gjVA/gjA/gjVA/gjAA/gjVA/gjI/gjVA/gjII/gjVA/gjU/gjVA/gjUU/gjVA/gjvR/gjVA/gjvRR/gjVA/gjvL/gjVA/gjvLL/gjVA/gjE/gjVA/gjAI/gjVA/gjO/gjVA/gjAU  /gjVA/gjKA/gjVA/gjKHA/gjVA/gjGA/gjVA/gjGHA/gjVA/gjNGA/gjVA/gjCA/gjVA/gjCHA/gjVA/gjJA/gjVA/gjJHA/gjVA/gjNYA/gjVA/gjTTA/gjVA/gjTTHA/gjVA/gjDDA/gjVA/gjDDHA/gjVA/gjNNA/gjVA/gjTA/gjVA/gjTHA/gjVA/gjDA/gjVA/gjDHA/gjVA/gjNA/gjVA/gjPA/gjVA/gjPHA/gjVA/gjBA/gjVA/gjBHA/gjVA/gjMA/gjVA/gjYA/gjVA/gjRA/gjVA/gjLA/gjVA/gjLLA/gjVA/gjVA/gjVA/gjSHA/gjVA/gjSSA/gjVA/gjSA/gjVA/gjHA/gjVA",
"/gjE/gjAI/gjO/gjAU  /gjPA/gjmE/gjPA/gjmAI  /gjmO/gjmAU",

glyphs = (
{
color = 6;
glyphname = gjA;
lastChange = "2015-08-11 11:44:37 +0000";
layers = (
{
background = {
paths = (
{
closed = 1;
nodes = (
"1008 546 OFFCURVE",
"913 636 OFFCURVE",
"795 636 CURVE SMOOTH",
"715 636 OFFCURVE",
"678 585 OFFCURVE",
"678 527 CURVE SMOOTH",
"678 486 OFFCURVE",
"695 454 OFFCURVE",
"724 427 CURVE",
"701 326 OFFCURVE",
"632 278 OFFCURVE",
"538 278 CURVE SMOOTH",
"482 278 OFFCURVE",
"427 292 OFFCURVE",
"383 323 CURVE",
"296 297 LINE",
"387 142 OFFCURVE",
"513 88 OFFCURVE",
"662 88 CURVE SMOOTH",
"852 88 OFFCURVE",
"1008 218 OFFCURVE",
"1008 408 CURVE SMOOTH"
);
},
{
closed = 1;
nodes = (
"1120 457 OFFCURVE",
"1071 416 OFFCURVE",
"964 434 CURVE",
"907 376 LINE",
"959 320 OFFCURVE",
"1026 302 OFFCURVE",
"1117 302 CURVE",
"1152 558 LINE"
);
},
{
closed = 1;
nodes = (
"297 851 OFFCURVE",
"187 755 OFFCURVE",
"165 617 CURVE SMOOTH",
"162 597 OFFCURVE",
"174 584 OFFCURVE",
"185 584 CURVE SMOOTH",
"198 585 OFFCURVE",
"212 608 OFFCURVE",
"236 609 CURVE SMOOTH",
"253 610 OFFCURVE",
"264 596 OFFCURVE",
"260 573 CURVE SMOOTH",
"255 540 OFFCURVE",
"235 500 OFFCURVE",
"190 455 CURVE",
"165 469 OFFCURVE",
"146 475 OFFCURVE",
"123 475 CURVE SMOOTH",
"78 475 OFFCURVE",
"35 446 OFFCURVE",
"27 392 CURVE SMOOTH",
"15 319 OFFCURVE",
"91 227 OFFCURVE",
"236 227 CURVE SMOOTH",
"455 227 OFFCURVE",
"637 427 OFFCURVE",
"637 637 CURVE SMOOTH",
"637 777 OFFCURVE",
"549 851 OFFCURVE",
"438 851 CURVE SMOOTH"
);
}
);
};
layerId = "FF8CB9F1-2B98-444C-A502-96421F2531A8";
rightMetricsKey = gjmAA;
name = "Bold Italic";
paths = (
{
closed = 1;
nodes = (
"730 404 OFFCURVE",
"661 470 OFFCURVE",
"573 470 CURVE SMOOTH",
"514 470 OFFCURVE",
"487 432 OFFCURVE",
"487 390 CURVE SMOOTH",
"487 360 OFFCURVE",
"499 336 OFFCURVE",
"520 316 CURVE",
"505 241 OFFCURVE",
"453 207 OFFCURVE",
"383 207 CURVE SMOOTH",
"341 207 OFFCURVE",
"302 216 OFFCURVE",
"268 239 CURVE",
"204 220 LINE",
"271 105 OFFCURVE",
"365 66 OFFCURVE",
"474 66 CURVE SMOOTH",
"614 66 OFFCURVE",
"730 162 OFFCURVE",
"730 303 CURVE SMOOTH"
);
},
{
closed = 1;
nodes = (
"813 338 OFFCURVE",
"777 308 OFFCURVE",
"698 320 CURVE",
"656 276 LINE",
"695 236 OFFCURVE",
"744 222 OFFCURVE",
"811 222 CURVE",
"836 413 LINE"
);
},
{
closed = 1;
nodes = (
"205 633 OFFCURVE",
"123 563 OFFCURVE",
"108 461 CURVE SMOOTH",
"105 446 OFFCURVE",
"115 436 OFFCURVE",
"122 436 CURVE SMOOTH",
"132 437 OFFCURVE",
"141 455 OFFCURVE",
"160 456 CURVE SMOOTH",
"172 456 OFFCURVE",
"180 445 OFFCURVE",
"176 427 CURVE SMOOTH",
"174 404 OFFCURVE",
"160 373 OFFCURVE",
"125 341 CURVE",
"108 352 OFFCURVE",
"93 357 OFFCURVE",
"75 357 CURVE SMOOTH",
"43 357 OFFCURVE",
"12 334 OFFCURVE",
"6 295 CURVE SMOOTH",
"-4 240 OFFCURVE",
"53 172 OFFCURVE",
"160 172 CURVE SMOOTH",
"322 172 OFFCURVE",
"457 319 OFFCURVE",
"457 475 CURVE SMOOTH",
"457 578 OFFCURVE",
"391 633 OFFCURVE",
"310 633 CURVE SMOOTH"
);
},
{
closed = 1;
nodes = (
"1005 624 OFFCURVE",
"896 599 OFFCURVE",
"877 542 CURVE SMOOTH",
"795 279 LINE SMOOTH",
"773 213 OFFCURVE",
"763 172 OFFCURVE",
"763 137 CURVE SMOOTH",
"763 63 OFFCURVE",
"807 -3 OFFCURVE",
"925 -3 CURVE SMOOTH",
"1028 -3 OFFCURVE",
"1099 73 OFFCURVE",
"1099 136 CURVE SMOOTH",
"1099 149 OFFCURVE",
"1093 163 OFFCURVE",
"1085 163 CURVE SMOOTH",
"1075 163 OFFCURVE",
"1070 138 OFFCURVE",
"1048 138 CURVE SMOOTH",
"1033 138 OFFCURVE",
"1028 150 OFFCURVE",
"1033 169 CURVE SMOOTH",
"1149 542 LINE SMOOTH",
"1152 555 OFFCURVE",
"1154 566 OFFCURVE",
"1154 575 CURVE SMOOTH",
"1154 599 OFFCURVE",
"1144 624 OFFCURVE",
"1079 624 CURVE SMOOTH"
);
}
);
width = 1121;
},
{
associatedMasterId = "FF8CB9F1-2B98-444C-A502-96421F2531A8";
background = {
paths = (
{
closed = 1;
nodes = (
"1416 844 OFFCURVE",
"1268 809 OFFCURVE",
"1244 733 CURVE SMOOTH",
"1132 379 LINE SMOOTH",
"1103 287 OFFCURVE",
"1090 234 OFFCURVE",
"1090 186 CURVE SMOOTH",
"1090 85 OFFCURVE",
"1149 -4 OFFCURVE",
"1309 -4 CURVE SMOOTH",
"1449 -4 OFFCURVE",
"1542 98 OFFCURVE",
"1542 184 CURVE SMOOTH",
"1542 202 OFFCURVE",
"1536 220 OFFCURVE",
"1525 220 CURVE SMOOTH",
"1512 220 OFFCURVE",
"1504 187 OFFCURVE",
"1474 187 CURVE SMOOTH",
"1456 187 OFFCURVE",
"1448 203 OFFCURVE",
"1456 229 CURVE SMOOTH",
"1610 733 LINE SMOOTH",
"1615 750 OFFCURVE",
"1618 766 OFFCURVE",
"1618 779 CURVE SMOOTH",
"1618 809 OFFCURVE",
"1605 844 OFFCURVE",
"1517 844 CURVE SMOOTH"
);
},
{
closed = 1;
nodes = (
"270 853 OFFCURVE",
"211 773 OFFCURVE",
"211 688 CURVE SMOOTH",
"211 670 OFFCURVE",
"217 652 OFFCURVE",
"228 652 CURVE SMOOTH",
"241 652 OFFCURVE",
"248 684 OFFCURVE",
"278 684 CURVE SMOOTH",
"291 684 OFFCURVE",
"300 676 OFFCURVE",
"300 660 CURVE SMOOTH",
"300 615 OFFCURVE",
"280 569 OFFCURVE",
"242 539 CURVE",
"106 607 OFFCURVE",
"51 505 OFFCURVE",
"51 400 CURVE SMOOTH",
"51 265 OFFCURVE",
"166 200 OFFCURVE",
"264 200 CURVE SMOOTH",
"479 200 OFFCURVE",
"649 453 OFFCURVE",
"649 656 CURVE SMOOTH",
"649 781 OFFCURVE",
"547 853 OFFCURVE",
"411 853 CURVE SMOOTH"
);
},
{
closed = 1;
nodes = (
"770 652 OFFCURVE",
"694 597 OFFCURVE",
"694 570 CURVE SMOOTH",
"694 549 OFFCURVE",
"720 527 OFFCURVE",
"720 479 CURVE SMOOTH",
"720 424 OFFCURVE",
"680 396 OFFCURVE",
"622 396 CURVE SMOOTH",
"594 396 OFFCURVE",
"564 404 OFFCURVE",
"533 417 CURVE",
"482 364 LINE",
"542 238 OFFCURVE",
"647 161 OFFCURVE",
"808 161 CURVE SMOOTH",
"954 161 OFFCURVE",
"1076 284 OFFCURVE",
"1076 440 CURVE SMOOTH",
"1076 576 OFFCURVE",
"981 652 OFFCURVE",
"861 652 CURVE SMOOTH"
);
},
{
closed = 1;
nodes = (
"1149 427 OFFCURVE",
"1103 399 OFFCURVE",
"996 417 CURVE",
"879 372 LINE",
"973 301 OFFCURVE",
"1055 272 OFFCURVE",
"1146 272 CURVE",
"1181 528 LINE"
);
}
);
};
layerId = "C6676A52-EAEF-476C-B148-B2B9460389E3";
rightMetricsKey = "=gjPA";
name = original;
paths = (
{
closed = 1;
nodes = (
"1416 844 OFFCURVE",
"1268 809 OFFCURVE",
"1244 733 CURVE SMOOTH",
"1132 379 LINE SMOOTH",
"1103 287 OFFCURVE",
"1090 234 OFFCURVE",
"1090 186 CURVE SMOOTH",
"1090 85 OFFCURVE",
"1149 -4 OFFCURVE",
"1309 -4 CURVE SMOOTH",
"1449 -4 OFFCURVE",
"1542 98 OFFCURVE",
"1542 184 CURVE SMOOTH",
"1542 202 OFFCURVE",
"1536 220 OFFCURVE",
"1525 220 CURVE SMOOTH",
"1512 220 OFFCURVE",
"1504 187 OFFCURVE",
"1474 187 CURVE SMOOTH",
"1456 187 OFFCURVE",
"1448 203 OFFCURVE",
"1456 229 CURVE SMOOTH",
"1610 733 LINE SMOOTH",
"1615 750 OFFCURVE",
"1618 766 OFFCURVE",
"1618 779 CURVE SMOOTH",
"1618 809 OFFCURVE",
"1605 844 OFFCURVE",
"1517 844 CURVE SMOOTH"
);
},
{
closed = 1;
nodes = (
"270 853 OFFCURVE",
"211 773 OFFCURVE",
"211 688 CURVE SMOOTH",
"211 670 OFFCURVE",
"217 652 OFFCURVE",
"228 652 CURVE SMOOTH",
"241 652 OFFCURVE",
"248 684 OFFCURVE",
"278 684 CURVE SMOOTH",
"291 684 OFFCURVE",
"300 676 OFFCURVE",
"300 660 CURVE SMOOTH",
"300 615 OFFCURVE",
"280 569 OFFCURVE",
"242 539 CURVE",
"106 607 OFFCURVE",
"51 505 OFFCURVE",
"51 400 CURVE SMOOTH",
"51 265 OFFCURVE",
"166 200 OFFCURVE",
"264 200 CURVE SMOOTH",
"479 200 OFFCURVE",
"649 453 OFFCURVE",
"649 656 CURVE SMOOTH",
"649 781 OFFCURVE",
"547 853 OFFCURVE",
"411 853 CURVE SMOOTH"
);
},
{
closed = 1;
nodes = (
"770 652 OFFCURVE",
"694 597 OFFCURVE",
"694 570 CURVE SMOOTH",
"694 549 OFFCURVE",
"720 527 OFFCURVE",
"720 479 CURVE SMOOTH",
"720 424 OFFCURVE",
"680 396 OFFCURVE",
"622 396 CURVE SMOOTH",
"594 396 OFFCURVE",
"564 404 OFFCURVE",
"533 417 CURVE",
"482 364 LINE",
"542 238 OFFCURVE",
"647 161 OFFCURVE",
"808 161 CURVE SMOOTH",
"954 161 OFFCURVE",
"1076 284 OFFCURVE",
"1076 440 CURVE SMOOTH",
"1076 576 OFFCURVE",
"981 652 OFFCURVE",
"861 652 CURVE SMOOTH"
);
},
{
closed = 1;
nodes = (
"1149 427 OFFCURVE",
"1103 399 OFFCURVE",
"996 417 CURVE",
"879 372 LINE",
"973 301 OFFCURVE",
"1055 272 OFFCURVE",
"1146 272 CURVE",
"1181 528 LINE"
);
}
);
width = 1549;
}
);
rightMetricsKey = "pa-gujarati";
unicode = 0A85;
},
{
glyphname = gjAA;
lastChange = "2015-08-11 11:44:37 +0000";
layers = (
{
layerId = "FF8CB9F1-2B98-444C-A502-96421F2531A8";
leftMetricsKey = "=gjA";
rightMetricsKey = gjmAA;
name = "Bold Italic";
paths = (
{
closed = 1;
nodes = (
"1375 624 OFFCURVE",
"1266 599 OFFCURVE",
"1248 542 CURVE SMOOTH",
"1165 279 LINE SMOOTH",
"1143 213 OFFCURVE",
"1133 172 OFFCURVE",
"1133 137 CURVE SMOOTH",
"1133 63 OFFCURVE",
"1177 -3 OFFCURVE",
"1296 -3 CURVE SMOOTH",
"1399 -3 OFFCURVE",
"1468 73 OFFCURVE",
"1468 136 CURVE SMOOTH",
"1468 149 OFFCURVE",
"1465 163 OFFCURVE",
"1456 163 CURVE SMOOTH",
"1445 163 OFFCURVE",
"1440 138 OFFCURVE",
"1418 138 CURVE SMOOTH",
"1405 138 OFFCURVE",
"1397 150 OFFCURVE",
"1405 169 CURVE SMOOTH",
"1519 542 LINE SMOOTH",
"1522 555 OFFCURVE",
"1524 566 OFFCURVE",
"1524 575 CURVE SMOOTH",
"1524 599 OFFCURVE",
"1514 624 OFFCURVE",
"1449 624 CURVE SMOOTH"
);
},
{
closed = 1;
nodes = (
"730 404 OFFCURVE",
"661 470 OFFCURVE",
"573 470 CURVE SMOOTH",
"514 470 OFFCURVE",
"487 432 OFFCURVE",
"487 390 CURVE SMOOTH",
"487 360 OFFCURVE",
"499 336 OFFCURVE",
"520 316 CURVE",
"505 241 OFFCURVE",
"453 207 OFFCURVE",
"383 207 CURVE SMOOTH",
"341 207 OFFCURVE",
"302 216 OFFCURVE",
"268 239 CURVE",
"204 220 LINE",
"271 105 OFFCURVE",
"365 66 OFFCURVE",
"474 66 CURVE SMOOTH",
"614 66 OFFCURVE",
"730 162 OFFCURVE",
"730 303 CURVE SMOOTH"
);
},
{
closed = 1;
nodes = (
"813 338 OFFCURVE",
"777 308 OFFCURVE",
"698 320 CURVE",
"656 276 LINE",
"695 236 OFFCURVE",
"744 222 OFFCURVE",
"811 222 CURVE",
"836 413 LINE"
);
},
{
closed = 1;
nodes = (
"205 633 OFFCURVE",
"123 563 OFFCURVE",
"108 461 CURVE SMOOTH",
"105 446 OFFCURVE",
"115 436 OFFCURVE",
"122 436 CURVE SMOOTH",
"132 437 OFFCURVE",
"141 455 OFFCURVE",
"160 456 CURVE SMOOTH",
"172 456 OFFCURVE",
"180 445 OFFCURVE",
"176 427 CURVE SMOOTH",
"174 404 OFFCURVE",
"160 373 OFFCURVE",
"125 341 CURVE",
"108 352 OFFCURVE",
"93 357 OFFCURVE",
"75 357 CURVE SMOOTH",
"43 357 OFFCURVE",
"12 334 OFFCURVE",
"6 295 CURVE SMOOTH",
"-4 240 OFFCURVE",
"53 172 OFFCURVE",
"160 172 CURVE SMOOTH",
"322 172 OFFCURVE",
"457 319 OFFCURVE",
"457 475 CURVE SMOOTH",
"457 578 OFFCURVE",
"391 633 OFFCURVE",
"310 633 CURVE SMOOTH"
);
},
{
closed = 1;
nodes = (
"1005 624 OFFCURVE",
"896 599 OFFCURVE",
"877 542 CURVE SMOOTH",
"795 279 LINE SMOOTH",
"773 213 OFFCURVE",
"763 172 OFFCURVE",
"763 137 CURVE SMOOTH",
"763 63 OFFCURVE",
"807 -3 OFFCURVE",
"925 -3 CURVE SMOOTH",
"1028 -3 OFFCURVE",
"1099 73 OFFCURVE",
"1099 136 CURVE SMOOTH",
"1099 149 OFFCURVE",
"1093 163 OFFCURVE",
"1085 163 CURVE SMOOTH",
"1075 163 OFFCURVE",
"1070 138 OFFCURVE",
"1048 138 CURVE SMOOTH",
"1033 138 OFFCURVE",
"1028 150 OFFCURVE",
"1033 169 CURVE SMOOTH",
"1149 542 LINE SMOOTH",
"1152 555 OFFCURVE",
"1154 566 OFFCURVE",
"1154 575 CURVE SMOOTH",
"1154 599 OFFCURVE",
"1144 624 OFFCURVE",
"1079 624 CURVE SMOOTH"
);
}
);
width = 1506;
}
);
leftMetricsKey = "a-gujarati";
rightMetricsKey = "pa-gujarati";
unicode = 0A86;
},
{
glyphname = gjI;
lastChange = "2015-08-11 11:44:37 +0000";
layers = (
{
background = {
paths = (
{
closed = 1;
nodes = (
"735 913 OFFCURVE",
"754 913 CURVE SMOOTH",
"807 913 OFFCURVE",
"793 1092 OFFCURVE",
"634 1092 CURVE SMOOTH",
"561 1092 OFFCURVE",
"508 1047 OFFCURVE",
"508 975 CURVE SMOOTH",
"508 783 OFFCURVE",
"642 655 OFFCURVE",
"642 462 CURVE SMOOTH",
"642 357 OFFCURVE",
"590 270 OFFCURVE",
"395 270 CURVE SMOOTH",
"334 270 OFFCURVE",
"267 309 OFFCURVE",
"267 352 CURVE SMOOTH",
"267 424 OFFCURVE",
"461 452 OFFCURVE",
"461 496 CURVE SMOOTH",
"461 538 OFFCURVE",
"356 533 OFFCURVE",
"356 622 CURVE SMOOTH",
"356 651 OFFCURVE",
"372 673 OFFCURVE",
"397 673 CURVE SMOOTH",
"430 673 OFFCURVE",
"436 632 OFFCURVE",
"464 632 CURVE SMOOTH",
"476 632 OFFCURVE",
"485 643 OFFCURVE",
"485 663 CURVE SMOOTH",
"485 761 OFFCURVE",
"397 846 OFFCURVE",
"270 846 CURVE SMOOTH",
"118 846 OFFCURVE",
"42 744 OFFCURVE",
"42 633 CURVE SMOOTH",
"42 530 OFFCURVE",
"111 449 OFFCURVE",
"237 418 CURVE",
"179 488 LINE",
"35 461 OFFCURVE",
"-42 404 OFFCURVE",
"-55 281 CURVE SMOOTH",
"-71 126 OFFCURVE",
"98 0 OFFCURVE",
"326 0 CURVE SMOOTH",
"691 0 OFFCURVE",
"827 186 OFFCURVE",
"827 379 CURVE SMOOTH",
"827 659 OFFCURVE",
"655 687 OFFCURVE",
"655 889 CURVE SMOOTH",
"655 918 OFFCURVE",
"671 935 OFFCURVE",
"693 935 CURVE SMOOTH",
"719 935 OFFCURVE"
);
}
);
};
layerId = "FF8CB9F1-2B98-444C-A502-96421F2531A8";
name = "Bold Italic";
paths = (
{
closed = 1;
nodes = (
"560 675 OFFCURVE",
"573 675 CURVE SMOOTH",
"613 675 OFFCURVE",
"566 807 OFFCURVE",
"448 807 CURVE SMOOTH",
"394 807 OFFCURVE",
"356 774 OFFCURVE",
"356 721 CURVE SMOOTH",
"356 662 OFFCURVE",
"406 611 OFFCURVE",
"455 553 CURVE SMOOTH",
"499 500 OFFCURVE",
"543 441 OFFCURVE",
"543 352 CURVE SMOOTH",
"543 243 OFFCURVE",
"474 200 OFFCURVE",
"412 200 CURVE SMOOTH",
"367 200 OFFCURVE",
"339 227 OFFCURVE",
"339 261 CURVE SMOOTH",
"339 314 OFFCURVE",
"423 325 OFFCURVE",
"423 360 CURVE SMOOTH",
"423 391 OFFCURVE",
"295 394 OFFCURVE",
"295 460 CURVE SMOOTH",
"295 481 OFFCURVE",
"307 498 OFFCURVE",
"324 498 CURVE SMOOTH",
"349 498 OFFCURVE",
"355 466 OFFCURVE",
"373 466 CURVE SMOOTH",
"383 466 OFFCURVE",
"390 475 OFFCURVE",
"390 490 CURVE SMOOTH",
"390 563 OFFCURVE",
"324 625 OFFCURVE",
"230 625 CURVE SMOOTH",
"119 625 OFFCURVE",
"63 551 OFFCURVE",
"63 467 CURVE SMOOTH",
"63 392 OFFCURVE",
"114 330 OFFCURVE",
"207 310 CURVE",
"274 361 LINE",
"169 341 OFFCURVE",
"112 299 OFFCURVE",
"102 209 CURVE SMOOTH",
"90 93 OFFCURVE",
"192 0 OFFCURVE",
"361 0 CURVE SMOOTH",
"550 0 OFFCURVE",
"678 124 OFFCURVE",
"678 291 CURVE SMOOTH",
"678 379 OFFCURVE",
"644 453 OFFCURVE",
"576 534 CURVE SMOOTH",
"509 619 OFFCURVE",
"501 633 OFFCURVE",
"501 657 CURVE SMOOTH",
"501 678 OFFCURVE",
"513 693 OFFCURVE",
"527 693 CURVE SMOOTH",
"549 693 OFFCURVE"
);
}
);
width = 698;
},
{
associatedMasterId = "FF8CB9F1-2B98-444C-A502-96421F2531A8";
background = {
paths = (
{
closed = 1;
nodes = (
"627 860 LINE",
"820 500 OFFCURVE",
"623 270 OFFCURVE",
"479 270 CURVE SMOOTH",
"417 270 OFFCURVE",
"371 297 OFFCURVE",
"371 352 CURVE SMOOTH",
"371 464 OFFCURVE",
"568 440 OFFCURVE",
"568 495 CURVE SMOOTH",
"568 528 OFFCURVE",
"442 535 OFFCURVE",
"442 631 CURVE SMOOTH",
"442 666 OFFCURVE",
"463 686 OFFCURVE",
"484 686 CURVE SMOOTH",
"522 686 OFFCURVE",
"540 632 OFFCURVE",
"572 632 CURVE SMOOTH",
"584 632 OFFCURVE",
"591 643 OFFCURVE",
"591 663 CURVE SMOOTH",
"591 771 OFFCURVE",
"502 846 OFFCURVE",
"375 846 CURVE SMOOTH",
"223 846 OFFCURVE",
"116 754 OFFCURVE",
"116 623 CURVE SMOOTH",
"116 527 OFFCURVE",
"181 462 OFFCURVE",
"274 428 CURVE",
"265 524 LINE",
"124 497 OFFCURVE",
"31 404 OFFCURVE",
"31 281 CURVE SMOOTH",
"31 126 OFFCURVE",
"175 0 OFFCURVE",
"424 0 CURVE SMOOTH",
"730 0 OFFCURVE",
"1052 384 OFFCURVE",
"752 860 CURVE"
);
}
);
};
layerId = "82BFA89C-DD16-4768-B59B-FB755CF67582";
name = "Bold Italic Jul 15 15, 11:56";
paths = (
{
closed = 1;
nodes = (
"831 852 OFFCURVE",
"798 1106 OFFCURVE",
"609 1106 CURVE SMOOTH",
"551 1106 OFFCURVE",
"507 1073 OFFCURVE",
"492 1025 CURVE SMOOTH",
"447 882 OFFCURVE",
"700 755 OFFCURVE",
"666 517 CURVE SMOOTH",
"644 365 OFFCURVE",
"547 270 OFFCURVE",
"419 270 CURVE SMOOTH",
"357 270 OFFCURVE",
"311 297 OFFCURVE",
"311 352 CURVE SMOOTH",
"311 464 OFFCURVE",
"508 440 OFFCURVE",
"508 495 CURVE SMOOTH",
"508 528 OFFCURVE",
"382 535 OFFCURVE",
"382 631 CURVE SMOOTH",
"382 666 OFFCURVE",
"403 686 OFFCURVE",
"424 686 CURVE SMOOTH",
"462 686 OFFCURVE",
"480 632 OFFCURVE",
"512 632 CURVE SMOOTH",
"524 632 OFFCURVE",
"531 643 OFFCURVE",
"531 663 CURVE SMOOTH",
"531 771 OFFCURVE",
"442 846 OFFCURVE",
"315 846 CURVE SMOOTH",
"163 846 OFFCURVE",
"56 754 OFFCURVE",
"56 623 CURVE SMOOTH",
"56 527 OFFCURVE",
"121 462 OFFCURVE",
"214 428 CURVE",
"205 524 LINE",
"64 497 OFFCURVE",
"-29 404 OFFCURVE",
"-29 281 CURVE SMOOTH",
"-29 126 OFFCURVE",
"129 0 OFFCURVE",
"341 0 CURVE SMOOTH",
"648 0 OFFCURVE",
"792 184 OFFCURVE",
"824 339 CURVE SMOOTH",
"860 516 OFFCURVE",
"799 639 OFFCURVE",
"732 799 CURVE SMOOTH",
"711 849 OFFCURVE",
"727 883 OFFCURVE",
"757 874 CURVE SMOOTH"
);
}
);
width = 854;
},
{
associatedMasterId = "FF8CB9F1-2B98-444C-A502-96421F2531A8";
background = {
paths = (
{
closed = 1;
nodes = (
"627 860 LINE",
"820 500 OFFCURVE",
"623 270 OFFCURVE",
"479 270 CURVE SMOOTH",
"417 270 OFFCURVE",
"371 297 OFFCURVE",
"371 352 CURVE SMOOTH",
"371 464 OFFCURVE",
"568 440 OFFCURVE",
"568 495 CURVE SMOOTH",
"568 528 OFFCURVE",
"442 535 OFFCURVE",
"442 631 CURVE SMOOTH",
"442 666 OFFCURVE",
"463 686 OFFCURVE",
"484 686 CURVE SMOOTH",
"522 686 OFFCURVE",
"540 632 OFFCURVE",
"572 632 CURVE SMOOTH",
"584 632 OFFCURVE",
"591 643 OFFCURVE",
"591 663 CURVE SMOOTH",
"591 771 OFFCURVE",
"502 846 OFFCURVE",
"375 846 CURVE SMOOTH",
"223 846 OFFCURVE",
"116 754 OFFCURVE",
"116 623 CURVE SMOOTH",
"116 527 OFFCURVE",
"181 462 OFFCURVE",
"274 428 CURVE",
"265 524 LINE",
"124 497 OFFCURVE",
"31 404 OFFCURVE",
"31 281 CURVE SMOOTH",
"31 126 OFFCURVE",
"175 0 OFFCURVE",
"424 0 CURVE SMOOTH",
"730 0 OFFCURVE",
"1052 384 OFFCURVE",
"752 860 CURVE"
);
}
);
};
layerId = "83BF1E2B-18EB-4948-B053-271C8FA71A35";
name = "Bold Italic Jul 15 15, 12:00";
paths = (
{
closed = 1;
nodes = (
"806 950 OFFCURVE",
"856 1106 OFFCURVE",
"667 1106 CURVE SMOOTH",
"609 1106 OFFCURVE",
"542 1077 OFFCURVE",
"542 1025 CURVE SMOOTH",
"542 948 OFFCURVE",
"564 877 OFFCURVE",
"615 816 CURVE SMOOTH",
"683 735 OFFCURVE",
"723 646 OFFCURVE",
"691 517 CURVE SMOOTH",
"654 365 OFFCURVE",
"517 270 OFFCURVE",
"389 270 CURVE SMOOTH",
"327 270 OFFCURVE",
"284 297 OFFCURVE",
"290 352 CURVE SMOOTH",
"302 464 OFFCURVE",
"496 440 OFFCURVE",
"502 495 CURVE SMOOTH",
"505 528 OFFCURVE",
"380 535 OFFCURVE",
"390 631 CURVE SMOOTH",
"394 666 OFFCURVE",
"417 686 OFFCURVE",
"438 686 CURVE SMOOTH",
"476 686 OFFCURVE",
"488 632 OFFCURVE",
"520 632 CURVE SMOOTH",
"532 632 OFFCURVE",
"540 643 OFFCURVE",
"543 663 CURVE SMOOTH",
"554 771 OFFCURVE",
"473 846 OFFCURVE",
"346 846 CURVE SMOOTH",
"194 846 OFFCURVE",
"77 754 OFFCURVE",
"63 623 CURVE SMOOTH",
"53 527 OFFCURVE",
"111 462 OFFCURVE",
"201 428 CURVE",
"202 524 LINE",
"58 497 OFFCURVE",
"-45 404 OFFCURVE",
"-58 281 CURVE SMOOTH",
"-74 126 OFFCURVE",
"71 0 OFFCURVE",
"323 0 CURVE SMOOTH",
"623 0 OFFCURVE",
"782 184 OFFCURVE",
"830 339 CURVE SMOOTH",
"898 558 OFFCURVE",
"827 755 OFFCURVE",
"702 897 CURVE SMOOTH",
"668 935 OFFCURVE",
"706 981 OFFCURVE",
"735 972 CURVE SMOOTH"
);
}
);
width = 854;
}
);
unicode = 0A87;
},
{
glyphname = gjII;
lastChange = "2015-08-11 11:44:37 +0000";
layers = (
{
background = {
paths = (
{
closed = 1;
nodes = (
"777 913 OFFCURVE",
"796 913 CURVE SMOOTH",
"849 913 OFFCURVE",
"785 1092 OFFCURVE",
"626 1092 CURVE SMOOTH",
"553 1092 OFFCURVE",
"500 1047 OFFCURVE",
"500 975 CURVE SMOOTH",
"500 895 OFFCURVE",
"568 826 OFFCURVE",
"634 748 CURVE SMOOTH",
"695 676 OFFCURVE",
"754 596 OFFCURVE",
"754 476 CURVE SMOOTH",
"754 329 OFFCURVE",
"662 270 OFFCURVE",
"577 270 CURVE SMOOTH",
"516 270 OFFCURVE",
"479 309 OFFCURVE",
"479 352 CURVE SMOOTH",
"479 424 OFFCURVE",
"593 442 OFFCURVE",
"593 486 CURVE SMOOTH",
"593 528 OFFCURVE",
"418 533 OFFCURVE",
"418 622 CURVE SMOOTH",
"418 651 OFFCURVE",
"434 673 OFFCURVE",
"459 673 CURVE SMOOTH",
"492 673 OFFCURVE",
"498 632 OFFCURVE",
"526 632 CURVE SMOOTH",
"538 632 OFFCURVE",
"547 643 OFFCURVE",
"547 663 CURVE SMOOTH",
"547 761 OFFCURVE",
"459 846 OFFCURVE",
"332 846 CURVE SMOOTH",
"180 846 OFFCURVE",
"104 744 OFFCURVE",
"104 633 CURVE SMOOTH",
"104 530 OFFCURVE",
"173 449 OFFCURVE",
"299 418 CURVE",
"391 488 LINE",
"247 461 OFFCURVE",
"170 404 OFFCURVE",
"157 281 CURVE SMOOTH",
"141 126 OFFCURVE",
"280 0 OFFCURVE",
"508 0 CURVE SMOOTH",
"763 0 OFFCURVE",
"939 168 OFFCURVE",
"939 393 CURVE SMOOTH",
"939 514 OFFCURVE",
"890 612 OFFCURVE",
"800 723 CURVE SMOOTH",
"708 837 OFFCURVE",
"697 857 OFFCURVE",
"697 889 CURVE SMOOTH",
"697 918 OFFCURVE",
"713 935 OFFCURVE",
"735 935 CURVE SMOOTH",
"761 935 OFFCURVE"
);
}
);
};
layerId = "FF8CB9F1-2B98-444C-A502-96421F2531A8";
leftMetricsKey = "=gjI";
rightMetricsKey = "=gjI";
name = "Bold Italic";
paths = (
{
closed = 1;
nodes = (
"523 650 OFFCURVE",
"537 665 OFFCURVE",
"556 665 CURVE SMOOTH",
"601 665 OFFCURVE",
"596 601 OFFCURVE",
"625 601 CURVE SMOOTH",
"657 601 OFFCURVE",
"695 645 OFFCURVE",
"695 711 CURVE SMOOTH",
"695 794 OFFCURVE",
"634 862 OFFCURVE",
"539 862 CURVE SMOOTH",
"448 862 OFFCURVE",
"384 793 OFFCURVE",
"386 709 CURVE SMOOTH",
"388 642 OFFCURVE",
"424 591 OFFCURVE",
"463 538 CURVE SMOOTH",
"503 483 OFFCURVE",
"543 427 OFFCURVE",
"543 352 CURVE SMOOTH",
"543 243 OFFCURVE",
"474 200 OFFCURVE",
"412 200 CURVE SMOOTH",
"367 200 OFFCURVE",
"339 227 OFFCURVE",
"339 261 CURVE SMOOTH",
"339 314 OFFCURVE",
"423 325 OFFCURVE",
"423 360 CURVE SMOOTH",
"423 391 OFFCURVE",
"295 394 OFFCURVE",
"295 460 CURVE SMOOTH",
"295 481 OFFCURVE",
"307 498 OFFCURVE",
"324 498 CURVE SMOOTH",
"349 498 OFFCURVE",
"355 466 OFFCURVE",
"373 466 CURVE SMOOTH",
"383 466 OFFCURVE",
"390 475 OFFCURVE",
"390 490 CURVE SMOOTH",
"390 563 OFFCURVE",
"324 625 OFFCURVE",
"230 625 CURVE SMOOTH",
"119 625 OFFCURVE",
"63 551 OFFCURVE",
"63 467 CURVE SMOOTH",
"63 392 OFFCURVE",
"114 330 OFFCURVE",
"207 310 CURVE",
"274 361 LINE",
"169 341 OFFCURVE",
"112 299 OFFCURVE",
"102 209 CURVE SMOOTH",
"90 93 OFFCURVE",
"192 0 OFFCURVE",
"361 0 CURVE SMOOTH",
"550 0 OFFCURVE",
"678 110 OFFCURVE",
"678 275 CURVE SMOOTH",
"678 375 OFFCURVE",
"616 463 OFFCURVE",
"568 533 CURVE SMOOTH",
"530 588 OFFCURVE",
"523 604 OFFCURVE",
"523 628 CURVE SMOOTH"
);
}
);
width = 701;
}
);
leftMetricsKey = gjI;
rightMetricsKey = gjI;
unicode = 0A88;
},
{
glyphname = gjU;
lastChange = "2015-08-11 11:44:37 +0000";
layers = (
{
background = {
paths = (
{
closed = 1;
nodes = (
"1096 1129 OFFCURVE",
"744 1129 CURVE SMOOTH",
"192 1129 OFFCURVE",
"29 689 OFFCURVE",
"29 405 CURVE SMOOTH",
"29 151 OFFCURVE",
"174 -4 OFFCURVE",
"413 -4 CURVE SMOOTH",
"569 -4 OFFCURVE",
"696 86 OFFCURVE",
"728 228 CURVE SMOOTH",
"750 326 OFFCURVE",
"711 414 OFFCURVE",
"651 470 CURVE",
"742 509 OFFCURVE",
"793 585 OFFCURVE",
"809 653 CURVE SMOOTH",
"831 751 OFFCURVE",
"769 857 OFFCURVE",
"618 857 CURVE SMOOTH",
"484 857 OFFCURVE",
"362 781 OFFCURVE",
"333 643 CURVE SMOOTH",
"325 610 OFFCURVE",
"333 600 OFFCURVE",
"346 600 CURVE SMOOTH",
"371 600 OFFCURVE",
"377 624 OFFCURVE",
"402 624 CURVE SMOOTH",
"422 624 OFFCURVE",
"431 610 OFFCURVE",
"429 590 CURVE SMOOTH",
"423 530 OFFCURVE",
"327 497 OFFCURVE",
"308 463 CURVE SMOOTH",
"271 395 OFFCURVE",
"444 442 OFFCURVE",
"424 351 CURVE SMOOTH",
"414 302 OFFCURVE",
"374 266 OFFCURVE",
"311 266 CURVE SMOOTH",
"231 266 OFFCURVE",
"162 337 OFFCURVE",
"162 461 CURVE SMOOTH",
"162 639 OFFCURVE",
"271 970 OFFCURVE",
"630 970 CURVE SMOOTH",
"904 970 OFFCURVE",
"1003 803 OFFCURVE",
"945 623 CURVE SMOOTH",
"868 379 LINE SMOOTH",
"839 287 OFFCURVE",
"826 234 OFFCURVE",
"826 186 CURVE SMOOTH",
"826 85 OFFCURVE",
"885 -4 OFFCURVE",
"1045 -4 CURVE SMOOTH",
"1185 -4 OFFCURVE",
"1278 98 OFFCURVE",
"1278 184 CURVE SMOOTH",
"1278 202 OFFCURVE",
"1272 220 OFFCURVE",
"1261 220 CURVE SMOOTH",
"1248 220 OFFCURVE",
"1240 187 OFFCURVE",
"1210 187 CURVE SMOOTH",
"1192 187 OFFCURVE",
"1184 203 OFFCURVE",
"1192 229 CURVE SMOOTH",
"1297 573 LINE SMOOTH",
"1400 912 OFFCURVE"
);
}
);
};
layerId = "FF8CB9F1-2B98-444C-A502-96421F2531A8";
name = "Bold Italic";
paths = (
{
closed = 1;
nodes = (
"814 655 OFFCURVE",
"829 862 OFFCURVE",
"588 862 CURVE SMOOTH",
"319 862 OFFCURVE",
"57 645 OFFCURVE",
"57 285 CURVE SMOOTH",
"57 113 OFFCURVE",
"168 -3 OFFCURVE",
"322 -3 CURVE SMOOTH",
"437 -3 OFFCURVE",
"534 64 OFFCURVE",
"564 169 CURVE SMOOTH",
"583 241 OFFCURVE",
"559 307 OFFCURVE",
"516 348 CURVE",
"584 375 OFFCURVE",
"625 432 OFFCURVE",
"641 482 CURVE SMOOTH",
"661 556 OFFCURVE",
"619 633 OFFCURVE",
"507 633 CURVE SMOOTH",
"409 633 OFFCURVE",
"315 577 OFFCURVE",
"287 475 CURVE SMOOTH",
"281 452 OFFCURVE",
"286 444 OFFCURVE",
"296 444 CURVE SMOOTH",
"315 444 OFFCURVE",
"319 462 OFFCURVE",
"338 462 CURVE SMOOTH",
"353 462 OFFCURVE",
"360 452 OFFCURVE",
"358 436 CURVE SMOOTH",
"350 392 OFFCURVE",
"276 368 OFFCURVE",
"263 342 CURVE SMOOTH",
"232 293 OFFCURVE",
"361 325 OFFCURVE",
"345 261 CURVE SMOOTH",
"334 222 OFFCURVE",
"305 197 OFFCURVE",
"258 197 CURVE SMOOTH",
"192 197 OFFCURVE",
"152 261 OFFCURVE",
"152 339 CURVE SMOOTH",
"152 548 OFFCURVE",
"335 697 OFFCURVE",
"530 697 CURVE SMOOTH",
"601 697 OFFCURVE",
"665 676 OFFCURVE",
"699 633 CURVE"
);
}
);
width = 634;
}
);
unicode = 0A89;
},
{
glyphname = gjUU;
lastChange = "2015-08-11 11:44:37 +0000";
layers = (
{
background = {
paths = (
{
closed = 1;
nodes = (
"1122 885 OFFCURVE",
"1141 1165 OFFCURVE",
"814 1165 CURVE SMOOTH",
"453 1165 OFFCURVE",
"97 871 OFFCURVE",
"97 386 CURVE SMOOTH",
"97 151 OFFCURVE",
"245 -4 OFFCURVE",
"455 -4 CURVE SMOOTH",
"611 -4 OFFCURVE",
"743 86 OFFCURVE",
"783 228 CURVE SMOOTH",
"810 326 OFFCURVE",
"775 414 OFFCURVE",
"718 470 CURVE",
"811 509 OFFCURVE",
"866 585 OFFCURVE",
"885 653 CURVE SMOOTH",
"913 751 OFFCURVE",
"857 857 OFFCURVE",
"706 857 CURVE SMOOTH",
"572 857 OFFCURVE",
"446 781 OFFCURVE",
"409 643 CURVE SMOOTH",
"400 610 OFFCURVE",
"407 600 OFFCURVE",
"420 600 CURVE SMOOTH",
"445 600 OFFCURVE",
"452 624 OFFCURVE",
"477 624 CURVE SMOOTH",
"497 624 OFFCURVE",
"506 610 OFFCURVE",
"503 590 CURVE SMOOTH",
"493 530 OFFCURVE",
"396 497 OFFCURVE",
"375 463 CURVE SMOOTH",
"334 395 OFFCURVE",
"509 442 OFFCURVE",
"485 351 CURVE SMOOTH",
"472 302 OFFCURVE",
"431 266 OFFCURVE",
"368 266 CURVE SMOOTH",
"280 266 OFFCURVE",
"226 352 OFFCURVE",
"226 458 CURVE SMOOTH",
"226 740 OFFCURVE",
"473 941 OFFCURVE",
"739 941 CURVE SMOOTH",
"832 941 OFFCURVE",
"920 915 OFFCURVE",
"965 857 CURVE"
);
}
);
};
guideLines = (
{
position = "{1109, 623}";
}
);
layerId = "FF8CB9F1-2B98-444C-A502-96421F2531A8";
rightMetricsKey = gjmAA;
name = "Bold Italic";
paths = (
{
closed = 1;
nodes = (
"847 834 OFFCURVE",
"587 834 CURVE SMOOTH",
"177 834 OFFCURVE",
"59 509 OFFCURVE",
"59 300 CURVE SMOOTH",
"59 113 OFFCURVE",
"166 -3 OFFCURVE",
"341 -3 CURVE SMOOTH",
"457 -3 OFFCURVE",
"552 64 OFFCURVE",
"574 169 CURVE SMOOTH",
"591 241 OFFCURVE",
"562 307 OFFCURVE",
"517 348 CURVE",
"584 375 OFFCURVE",
"622 432 OFFCURVE",
"634 482 CURVE SMOOTH",
"651 556 OFFCURVE",
"605 633 OFFCURVE",
"494 633 CURVE SMOOTH",
"394 633 OFFCURVE",
"305 577 OFFCURVE",
"282 475 CURVE SMOOTH",
"275 452 OFFCURVE",
"282 444 OFFCURVE",
"293 444 CURVE SMOOTH",
"311 444 OFFCURVE",
"315 462 OFFCURVE",
"334 462 CURVE SMOOTH",
"349 462 OFFCURVE",
"356 452 OFFCURVE",
"355 436 CURVE SMOOTH",
"349 392 OFFCURVE",
"276 368 OFFCURVE",
"265 342 CURVE SMOOTH",
"236 293 OFFCURVE",
"365 325 OFFCURVE",
"350 261 CURVE SMOOTH",
"342 222 OFFCURVE",
"313 197 OFFCURVE",
"266 197 CURVE SMOOTH",
"208 197 OFFCURVE",
"157 250 OFFCURVE",
"157 341 CURVE SMOOTH",
"157 472 OFFCURVE",
"236 717 OFFCURVE",
"503 717 CURVE SMOOTH",
"705 717 OFFCURVE",
"777 594 OFFCURVE",
"735 461 CURVE SMOOTH",
"677 279 LINE SMOOTH",
"657 213 OFFCURVE",
"648 172 OFFCURVE",
"648 137 CURVE SMOOTH",
"648 63 OFFCURVE",
"691 -3 OFFCURVE",
"809 -3 CURVE SMOOTH",
"912 -3 OFFCURVE",
"981 73 OFFCURVE",
"981 136 CURVE SMOOTH",
"981 149 OFFCURVE",
"977 163 OFFCURVE",
"969 163 CURVE SMOOTH",
"959 163 OFFCURVE",
"953 138 OFFCURVE",
"930 138 CURVE SMOOTH",
"918 138 OFFCURVE",
"911 150 OFFCURVE",
"918 169 CURVE SMOOTH",
"995 423 LINE SMOOTH",
"1071 674 OFFCURVE"
);
}
);
width = 1004;
}
);
rightMetricsKey = gjmAA;
unicode = 0A8A;
},
{
glyphname = gjvR;
lastChange = "2015-08-11 11:44:37 +0000";
layers = (
{
background = {
components = (
{
name = gjmAA;
transform = "{1, 0, 0, 1, 451, 0}";
}
);
paths = (
{
closed = 1;
nodes = (
"221 857 OFFCURVE",
"105 785 OFFCURVE",
"105 684 CURVE SMOOTH",
"105 601 OFFCURVE",
"180 542 OFFCURVE",
"210 542 CURVE SMOOTH",
"255 542 OFFCURVE",
"295 593 OFFCURVE",
"363 593 CURVE SMOOTH",
"415 593 OFFCURVE",
"464 556 OFFCURVE",
"509 495 CURVE",
"297 394 OFFCURVE",
"40 506 OFFCURVE",
"40 382 CURVE SMOOTH",
"40 275 OFFCURVE",
"169 170 OFFCURVE",
"262 170 CURVE SMOOTH",
"342 170 OFFCURVE",
"405 228 OFFCURVE",
"558 427 CURVE",
"593 512 LINE",
"553 645 LINE SMOOTH",
"510 788 OFFCURVE",
"437 857 OFFCURVE",
"311 857 CURVE SMOOTH"
);
},
{
closed = 1;
nodes = (
"1145 436 LINE",
"1167 417 OFFCURVE",
"1171 400 OFFCURVE",
"1171 385 CURVE SMOOTH",
"1171 350 OFFCURVE",
"1149 322 OFFCURVE",
"1099 322 CURVE SMOOTH",
"1021 322 OFFCURVE",
"977 368 OFFCURVE",
"949 368 CURVE SMOOTH",
"937 368 OFFCURVE",
"930 352 OFFCURVE",
"930 333 CURVE SMOOTH",
"930 256 OFFCURVE",
"1028 124 OFFCURVE",
"1246 124 CURVE SMOOTH",
"1390 124 OFFCURVE",
"1451 193 OFFCURVE",
"1451 265 CURVE SMOOTH",
"1451 340 OFFCURVE",
"1394 411 OFFCURVE",
"1173 474 CURVE"
);
},
{
closed = 1;
nodes = (
"1124 857 OFFCURVE",
"1028 773 OFFCURVE",
"1028 653 CURVE SMOOTH",
"1028 594 OFFCURVE",
"1068 538 OFFCURVE",
"1114 516 CURVE",
"1180 546 LINE",
"1164 572 OFFCURVE",
"1157 600 OFFCURVE",
"1164 627 CURVE SMOOTH",
"1170 652 OFFCURVE",
"1186 671 OFFCURVE",
"1212 671 CURVE SMOOTH",
"1238 671 OFFCURVE",
"1255 653 OFFCURVE",
"1245 614 CURVE SMOOTH",
"1227 548 OFFCURVE",
"1128 508 OFFCURVE",
"891 558 CURVE",
"847 451 LINE",
"1418 342 OFFCURVE",
"1588 496 OFFCURVE",
"1588 638 CURVE SMOOTH",
"1588 762 OFFCURVE",
"1452 857 OFFCURVE",
"1292 857 CURVE SMOOTH"
);
}
);
};
layerId = "FF8CB9F1-2B98-444C-A502-96421F2531A8";
name = "Bold Italic";
paths = (
{
closed = 1;
nodes = (
"165 633 OFFCURVE",
"77 580 OFFCURVE",
"77 506 CURVE SMOOTH",
"77 445 OFFCURVE",
"133 401 OFFCURVE",
"156 401 CURVE SMOOTH",
"189 401 OFFCURVE",
"219 439 OFFCURVE",
"268 439 CURVE SMOOTH",
"308 439 OFFCURVE",
"344 411 OFFCURVE",
"375 367 CURVE",
"220 292 OFFCURVE",
"29 373 OFFCURVE",
"29 282 CURVE SMOOTH",
"29 204 OFFCURVE",
"124 125 OFFCURVE",
"193 125 CURVE SMOOTH",
"253 125 OFFCURVE",
"300 169 OFFCURVE",
"413 316 CURVE",
"439 377 LINE",
"409 475 LINE SMOOTH",
"376 582 OFFCURVE",
"323 633 OFFCURVE",
"230 633 CURVE SMOOTH"
);
},
{
closed = 1;
nodes = (
"847 322 LINE",
"863 309 OFFCURVE",
"866 296 OFFCURVE",
"866 285 CURVE SMOOTH",
"866 260 OFFCURVE",
"849 238 OFFCURVE",
"812 238 CURVE SMOOTH",
"756 238 OFFCURVE",
"722 272 OFFCURVE",
"701 272 CURVE SMOOTH",
"694 272 OFFCURVE",
"687 261 OFFCURVE",
"687 246 CURVE SMOOTH",
"687 189 OFFCURVE",
"760 92 OFFCURVE",
"921 92 CURVE SMOOTH",
"1027 92 OFFCURVE",
"1074 143 OFFCURVE",
"1074 197 CURVE SMOOTH",
"1074 252 OFFCURVE",
"1031 305 OFFCURVE",
"867 351 CURVE"
);
},
{
closed = 1;
nodes = (
"831 633 OFFCURVE",
"760 571 OFFCURVE",
"760 482 CURVE SMOOTH",
"760 440 OFFCURVE",
"791 399 OFFCURVE",
"824 380 CURVE",
"873 404 LINE",
"861 422 OFFCURVE",
"856 444 OFFCURVE",
"861 464 CURVE SMOOTH",
"865 481 OFFCURVE",
"876 497 OFFCURVE",
"896 497 CURVE SMOOTH",
"916 497 OFFCURVE",
"928 482 OFFCURVE",
"921 455 CURVE SMOOTH",
"907 406 OFFCURVE",
"834 375 OFFCURVE",
"659 413 CURVE",
"625 334 LINE",
"1049 253 OFFCURVE",
"1175 367 OFFCURVE",
"1175 472 CURVE SMOOTH",
"1175 563 OFFCURVE",
"1074 633 OFFCURVE",
"955 633 CURVE SMOOTH"
);
},
{
closed = 1;
nodes = (
"601 624 OFFCURVE",
"490 599 OFFCURVE",
"472 542 CURVE SMOOTH",
"390 279 LINE SMOOTH",
"368 213 OFFCURVE",
"360 172 OFFCURVE",
"360 137 CURVE SMOOTH",
"360 63 OFFCURVE",
"403 -3 OFFCURVE",
"520 -3 CURVE SMOOTH",
"624 -3 OFFCURVE",
"694 73 OFFCURVE",
"694 136 CURVE SMOOTH",
"694 149 OFFCURVE",
"689 163 OFFCURVE",
"679 163 CURVE SMOOTH",
"671 163 OFFCURVE",
"664 138 OFFCURVE",
"643 138 CURVE SMOOTH",
"629 138 OFFCURVE",
"623 150 OFFCURVE",
"629 169 CURVE SMOOTH",
"744 542 LINE SMOOTH",
"747 555 OFFCURVE",
"749 566 OFFCURVE",
"749 575 CURVE SMOOTH",
"749 599 OFFCURVE",
"740 624 OFFCURVE",
"674 624 CURVE SMOOTH"
);
}
);
width = 1148;
}
);
unicode = 0A8B;
},
{
glyphname = gjvRR;
lastChange = "2015-08-11 11:44:37 +0000";
layers = (
{
background = {
paths = (
{
closed = 1;
nodes = (
"241 857 OFFCURVE",
"125 785 OFFCURVE",
"125 684 CURVE SMOOTH",
"125 601 OFFCURVE",
"200 542 OFFCURVE",
"230 542 CURVE SMOOTH",
"275 542 OFFCURVE",
"315 593 OFFCURVE",
"383 593 CURVE SMOOTH",
"435 593 OFFCURVE",
"484 556 OFFCURVE",
"529 495 CURVE",
"317 394 OFFCURVE",
"60 506 OFFCURVE",
"60 382 CURVE SMOOTH",
"60 275 OFFCURVE",
"189 170 OFFCURVE",
"282 170 CURVE SMOOTH",
"362 170 OFFCURVE",
"425 228 OFFCURVE",
"578 427 CURVE",
"613 512 LINE",
"573 645 LINE SMOOTH",
"530 788 OFFCURVE",
"457 857 OFFCURVE",
"331 857 CURVE SMOOTH"
);
},
{
closed = 1;
nodes = (
"1165 436 LINE",
"1187 417 OFFCURVE",
"1191 400 OFFCURVE",
"1191 385 CURVE SMOOTH",
"1191 350 OFFCURVE",
"1169 322 OFFCURVE",
"1119 322 CURVE SMOOTH",
"1041 322 OFFCURVE",
"997 368 OFFCURVE",
"969 368 CURVE SMOOTH",
"957 368 OFFCURVE",
"950 352 OFFCURVE",
"950 333 CURVE SMOOTH",
"950 256 OFFCURVE",
"1048 124 OFFCURVE",
"1266 124 CURVE SMOOTH",
"1410 124 OFFCURVE",
"1471 193 OFFCURVE",
"1471 265 CURVE SMOOTH",
"1471 340 OFFCURVE",
"1414 411 OFFCURVE",
"1193 474 CURVE"
);
},
{
closed = 1;
nodes = (
"1144 857 OFFCURVE",
"1048 773 OFFCURVE",
"1048 653 CURVE SMOOTH",
"1048 594 OFFCURVE",
"1088 538 OFFCURVE",
"1134 516 CURVE",
"1200 546 LINE",
"1184 572 OFFCURVE",
"1177 600 OFFCURVE",
"1184 627 CURVE SMOOTH",
"1190 652 OFFCURVE",
"1206 671 OFFCURVE",
"1232 671 CURVE SMOOTH",
"1258 671 OFFCURVE",
"1275 653 OFFCURVE",
"1265 614 CURVE SMOOTH",
"1247 548 OFFCURVE",
"1148 508 OFFCURVE",
"911 558 CURVE",
"867 451 LINE",
"1438 342 OFFCURVE",
"1608 496 OFFCURVE",
"1608 638 CURVE SMOOTH",
"1608 762 OFFCURVE",
"1472 857 OFFCURVE",
"1312 857 CURVE SMOOTH"
);
},
{
closed = 1;
nodes = (
"831 844 OFFCURVE",
"683 809 OFFCURVE",
"659 733 CURVE SMOOTH",
"547 379 LINE SMOOTH",
"518 287 OFFCURVE",
"505 234 OFFCURVE",
"505 186 CURVE SMOOTH",
"505 85 OFFCURVE",
"564 -4 OFFCURVE",
"724 -4 CURVE SMOOTH",
"864 -4 OFFCURVE",
"957 98 OFFCURVE",
"957 184 CURVE SMOOTH",
"957 202 OFFCURVE",
"951 220 OFFCURVE",
"940 220 CURVE SMOOTH",
"927 220 OFFCURVE",
"919 187 OFFCURVE",
"889 187 CURVE SMOOTH",
"871 187 OFFCURVE",
"863 203 OFFCURVE",
"871 229 CURVE SMOOTH",
"1025 733 LINE SMOOTH",
"1030 750 OFFCURVE",
"1033 766 OFFCURVE",
"1033 779 CURVE SMOOTH",
"1033 809 OFFCURVE",
"1020 844 OFFCURVE",
"932 844 CURVE SMOOTH"
);
}
);
};
layerId = "FF8CB9F1-2B98-444C-A502-96421F2531A8";
leftMetricsKey = gjvR;
rightMetricsKey = gjvR;
name = "Bold Italic";
paths = (
{
closed = 1;
nodes = (
"165 633 OFFCURVE",
"77 580 OFFCURVE",
"77 506 CURVE SMOOTH",
"77 445 OFFCURVE",
"133 401 OFFCURVE",
"156 401 CURVE SMOOTH",
"189 401 OFFCURVE",
"219 439 OFFCURVE",
"268 439 CURVE SMOOTH",
"308 439 OFFCURVE",
"344 411 OFFCURVE",
"375 367 CURVE",
"220 292 OFFCURVE",
"29 373 OFFCURVE",
"29 282 CURVE SMOOTH",
"29 204 OFFCURVE",
"124 125 OFFCURVE",
"193 125 CURVE SMOOTH",
"253 125 OFFCURVE",
"300 169 OFFCURVE",
"413 316 CURVE",
"439 377 LINE",
"409 475 LINE SMOOTH",
"376 582 OFFCURVE",
"323 633 OFFCURVE",
"230 633 CURVE SMOOTH"
);
},
{
closed = 1;
nodes = (
"809 352 OFFCURVE",
"709 295 OFFCURVE",
"709 210 CURVE SMOOTH",
"709 143 OFFCURVE",
"767 92 OFFCURVE",
"868 92 CURVE SMOOTH",
"984 92 OFFCURVE",
"1056 169 OFFCURVE",
"1056 255 CURVE SMOOTH",
"1056 266 OFFCURVE",
"1054 273 OFFCURVE",
"1047 273 CURVE SMOOTH",
"1028 273 OFFCURVE",
"985 238 OFFCURVE",
"925 238 CURVE SMOOTH",
"886 238 OFFCURVE",
"862 253 OFFCURVE",
"862 273 CURVE SMOOTH",
"862 295 OFFCURVE",
"878 308 OFFCURVE",
"916 308 CURVE",
"901 352 LINE"
);
},
{
closed = 1;
nodes = (
"831 633 OFFCURVE",
"760 571 OFFCURVE",
"760 482 CURVE SMOOTH",
"760 440 OFFCURVE",
"791 399 OFFCURVE",
"824 380 CURVE",
"873 404 LINE",
"861 422 OFFCURVE",
"856 444 OFFCURVE",
"861 464 CURVE SMOOTH",
"865 481 OFFCURVE",
"876 497 OFFCURVE",
"896 497 CURVE SMOOTH",
"916 497 OFFCURVE",
"928 482 OFFCURVE",
"921 455 CURVE SMOOTH",
"907 406 OFFCURVE",
"834 375 OFFCURVE",
"659 413 CURVE",
"625 334 LINE",
"1049 253 OFFCURVE",
"1175 367 OFFCURVE",
"1175 472 CURVE SMOOTH",
"1175 563 OFFCURVE",
"1074 633 OFFCURVE",
"955 633 CURVE SMOOTH"
);
},
{
closed = 1;
nodes = (
"601 624 OFFCURVE",
"490 599 OFFCURVE",
"472 542 CURVE SMOOTH",
"390 279 LINE SMOOTH",
"368 213 OFFCURVE",
"360 172 OFFCURVE",
"360 137 CURVE SMOOTH",
"360 63 OFFCURVE",
"403 -3 OFFCURVE",
"520 -3 CURVE SMOOTH",
"624 -3 OFFCURVE",
"694 73 OFFCURVE",
"694 136 CURVE SMOOTH",
"694 149 OFFCURVE",
"689 163 OFFCURVE",
"679 163 CURVE SMOOTH",
"671 163 OFFCURVE",
"664 138 OFFCURVE",
"643 138 CURVE SMOOTH",
"629 138 OFFCURVE",
"623 150 OFFCURVE",
"629 169 CURVE SMOOTH",
"744 542 LINE SMOOTH",
"747 555 OFFCURVE",
"749 566 OFFCURVE",
"749 575 CURVE SMOOTH",
"749 599 OFFCURVE",
"740 624 OFFCURVE",
"674 624 CURVE SMOOTH"
);
}
);
width = 1148;
}
);
leftMetricsKey = gjvR;
rightMetricsKey = gjvR;
unicode = 0AE0;
},
{
glyphname = gjvL;
lastChange = "2015-08-11 11:44:37 +0000";
layers = (
{
background = {
paths = (
{
closed = 1;
nodes = (
"767 495 OFFCURVE",
"787 473 OFFCURVE",
"774 436 CURVE SMOOTH",
"752 372 OFFCURVE",
"624 306 OFFCURVE",
"596 195 CURVE SMOOTH",
"592 179 OFFCURVE",
"590 162 OFFCURVE",
"591 145 CURVE SMOOTH",
"595 61 OFFCURVE",
"658 -6 OFFCURVE",
"808 -6 CURVE SMOOTH",
"968 -6 OFFCURVE",
"1083 75 OFFCURVE",
"1101 147 CURVE SMOOTH",
"1114 199 OFFCURVE",
"1081 177 OFFCURVE",
"1048 177 CURVE SMOOTH",
"1015 177 OFFCURVE",
"1001 193 OFFCURVE",
"1000 214 CURVE SMOOTH",
"996 285 OFFCURVE",
"1156 358 OFFCURVE",
"1183 482 CURVE SMOOTH",
"1201 564 OFFCURVE",
"1156 665 OFFCURVE",
"944 665 CURVE SMOOTH",
"786 665 OFFCURVE",
"673 634 OFFCURVE",
"565 523 CURVE",
"640 519 LINE",
"584 650 OFFCURVE",
"476 704 OFFCURVE",
"348 704 CURVE SMOOTH",
"178 704 OFFCURVE",
"46 614 OFFCURVE",
"6 462 CURVE SMOOTH",
"-42 281 OFFCURVE",
"76 131 OFFCURVE",
"259 131 CURVE SMOOTH",
"393 131 OFFCURVE",
"475 189 OFFCURVE",
"519 289 CURVE SMOOTH",
"539 335 OFFCURVE",
"524 370 OFFCURVE",
"498 370 CURVE SMOOTH",
"473 370 OFFCURVE",
"454 360 OFFCURVE",
"415 360 CURVE SMOOTH",
"359 360 OFFCURVE",
"322 404 OFFCURVE",
"331 448 CURVE SMOOTH",
"340 488 OFFCURVE",
"373 506 OFFCURVE",
"413 506 CURVE SMOOTH",
"485 506 OFFCURVE",
"509 414 OFFCURVE",
"566 414 CURVE SMOOTH",
"624 414 OFFCURVE",
"668 495 OFFCURVE",
"733 495 CURVE SMOOTH"
);
},
{
closed = 1;
nodes = (
"996 543 LINE",
"1161 686 LINE SMOOTH",
"1196 716 OFFCURVE",
"1208 739 OFFCURVE",
"1208 771 CURVE SMOOTH",
"1208 813 OFFCURVE",
"1157 847 OFFCURVE",
"1049 847 CURVE SMOOTH",
"948 847 OFFCURVE",
"853 813 OFFCURVE",
"844 736 CURVE SMOOTH",
"822 543 LINE"
);
}
);
};
backgroundImage = {
crop = "{{0, 0}, {718.947, 521}}";
imagePath = /Users/jonathanpinhorn/Dropbox/JP_FREELANCE/2015/Projects/GoogleWebFonts/TypeConcepts/Shrikhand/shrikhand/Gujarati/Reference/InitialSketches/Shrikhand_vL.png;
locked = 1;
transform = "{1.900, 0, 0, 1.900, -104, -81}";
};
layerId = "FF8CB9F1-2B98-444C-A502-96421F2531A8";
name = "Bold Italic";
paths = (
{
closed = 1;
nodes = (
"766 402 LINE",
"888 507 LINE SMOOTH",
"914 528 OFFCURVE",
"923 547 OFFCURVE",
"923 570 CURVE SMOOTH",
"923 601 OFFCURVE",
"885 625 OFFCURVE",
"805 625 CURVE SMOOTH",
"730 625 OFFCURVE",
"661 601 OFFCURVE",
"654 545 CURVE SMOOTH",
"636 402 LINE"
);
},
{
closed = 1;
nodes = (
"452 495 OFFCURVE",
"370 520 OFFCURVE",
"276 520 CURVE SMOOTH",
"179 520 OFFCURVE",
"73 462 OFFCURVE",
"33 341 CURVE SMOOTH",
"-13 193 OFFCURVE",
"85 97 OFFCURVE",
"208 97 CURVE SMOOTH",
"347 97 OFFCURVE",
"410 205 OFFCURVE",
"410 264 CURVE SMOOTH",
"410 275 OFFCURVE",
"406 282 OFFCURVE",
"399 282 CURVE SMOOTH",
"378 282 OFFCURVE",
"366 266 OFFCURVE",
"337 266 CURVE SMOOTH",
"295 266 OFFCURVE",
"267 299 OFFCURVE",
"274 330 CURVE SMOOTH",
"281 361 OFFCURVE",
"306 373 OFFCURVE",
"335 373 CURVE SMOOTH",
"389 373 OFFCURVE",
"406 307 OFFCURVE",
"448 307 CURVE SMOOTH",
"492 307 OFFCURVE",
"524 367 OFFCURVE",
"571 367 CURVE SMOOTH",
"598 367 OFFCURVE",
"612 350 OFFCURVE",
"602 322 CURVE SMOOTH",
"584 274 OFFCURVE",
"492 225 OFFCURVE",
"470 145 CURVE SMOOTH",
"466 132 OFFCURVE",
"466 120 OFFCURVE",
"466 108 CURVE SMOOTH",
"470 45 OFFCURVE",
"516 -4 OFFCURVE",
"626 -4 CURVE SMOOTH",
"746 -4 OFFCURVE",
"830 56 OFFCURVE",
"844 109 CURVE SMOOTH",
"854 147 OFFCURVE",
"829 130 OFFCURVE",
"805 130 CURVE SMOOTH",
"780 130 OFFCURVE",
"770 143 OFFCURVE",
"769 159 CURVE SMOOTH",
"766 212 OFFCURVE",
"884 265 OFFCURVE",
"905 357 CURVE SMOOTH",
"918 417 OFFCURVE",
"884 492 OFFCURVE",
"727 492 CURVE SMOOTH",
"611 492 OFFCURVE",
"526 468 OFFCURVE",
"448 387 CURVE",
"504 383 LINE"
);
}
);
width = 900;
},
{
associatedMasterId = "FF8CB9F1-2B98-444C-A502-96421F2531A8";
backgroundImage = {
crop = "{{0, 0}, {718.947, 521}}";
imagePath = /Users/jonathanpinhorn/Dropbox/JP_FREELANCE/2015/Projects/GoogleWebFonts/TypeConcepts/Shrikhand/shrikhand/Gujarati/Reference/InitialSketches/Shrikhand_vL.png;
locked = 1;
transform = "{1.900, 0, 0, 1.900, -124, -81}";
};
layerId = "AC0553F0-1EB7-486C-A957-2583A9C3D568";
name = "Bold Italic Aug 6 15, 12:15";
paths = (
{
closed = 1;
nodes = (
"782 486 OFFCURVE",
"579 384 OFFCURVE",
"579 188 CURVE SMOOTH",
"579 80 OFFCURVE",
"664 -6 OFFCURVE",
"821 -6 CURVE SMOOTH",
"984 -6 OFFCURVE",
"1090 124 OFFCURVE",
"1090 210 CURVE SMOOTH",
"1090 260 OFFCURVE",
"1071 230 OFFCURVE",
"1038 230 CURVE SMOOTH",
"1005 230 OFFCURVE",
"992 250 OFFCURVE",
"992 277 CURVE SMOOTH",
"992 377 OFFCURVE",
"1184 500 OFFCURVE",
"1197 656 CURVE SMOOTH",
"1207 773 OFFCURVE",
"1103 847 OFFCURVE",
"942 847 CURVE SMOOTH",
"793 847 OFFCURVE",
"722 813 OFFCURVE",
"614 704 CURVE",
"561 785 OFFCURVE",
"484 843 OFFCURVE",
"364 843 CURVE SMOOTH",
"194 843 OFFCURVE",
"54 758 OFFCURVE",
"4 569 CURVE SMOOTH",
"-58 336 OFFCURVE",
"63 170 OFFCURVE",
"250 170 CURVE SMOOTH",
"397 170 OFFCURVE",
"528 260 OFFCURVE",
"528 411 CURVE SMOOTH",
"528 458 OFFCURVE",
"521 478 OFFCURVE",
"499 478 CURVE SMOOTH",
"474 478 OFFCURVE",
"454 465 OFFCURVE",
"415 465 CURVE SMOOTH",
"359 465 OFFCURVE",
"324 521 OFFCURVE",
"336 578 CURVE SMOOTH",
"347 630 OFFCURVE",
"369 653 OFFCURVE",
"421 653 CURVE SMOOTH",
"493 653 OFFCURVE",
"512 534 OFFCURVE",
"566 534 CURVE SMOOTH",
"630 534 OFFCURVE",
"671 639 OFFCURVE",
"736 639 CURVE SMOOTH",
"768 639 OFFCURVE",
"782 620 OFFCURVE",
"782 588 CURVE SMOOTH"
);
},
{
closed = 1;
nodes = (
"1006 708 LINE",
"1194 927 LINE SMOOTH",
"1214 950 OFFCURVE",
"1218 971 OFFCURVE",
"1218 991 CURVE SMOOTH",
"1218 1033 OFFCURVE",
"1177 1062 OFFCURVE",
"1099 1062 CURVE SMOOTH",
"998 1062 OFFCURVE",
"839 1028 OFFCURVE",
"834 951 CURVE SMOOTH",
"818 708 LINE"
);
}
);
width = 1234;
}
);
unicode = 0A8C;
},
{
glyphname = gjvLL;
lastChange = "2015-08-11 11:44:37 +0000";
layers = (
{
background = {
paths = (
{
closed = 1;
nodes = (
"1056 543 LINE",
"1221 686 LINE SMOOTH",
"1256 716 OFFCURVE",
"1268 739 OFFCURVE",
"1268 771 CURVE SMOOTH",
"1268 813 OFFCURVE",
"1217 847 OFFCURVE",
"1109 847 CURVE SMOOTH",
"1008 847 OFFCURVE",
"913 813 OFFCURVE",
"904 736 CURVE SMOOTH",
"882 543 LINE"
);
},
{
closed = 1;
nodes = (
"630 668 OFFCURVE",
"522 704 OFFCURVE",
"396 704 CURVE SMOOTH",
"263 704 OFFCURVE",
"117 624 OFFCURVE",
"66 462 CURVE SMOOTH",
"3 261 OFFCURVE",
"136 131 OFFCURVE",
"300 131 CURVE SMOOTH",
"489 131 OFFCURVE",
"574 277 OFFCURVE",
"574 356 CURVE SMOOTH",
"574 374 OFFCURVE",
"568 381 OFFCURVE",
"558 381 CURVE SMOOTH",
"533 381 OFFCURVE",
"514 360 OFFCURVE",
"475 360 CURVE SMOOTH",
"419 360 OFFCURVE",
"382 404 OFFCURVE",
"391 448 CURVE SMOOTH",
"400 488 OFFCURVE",
"433 506 OFFCURVE",
"473 506 CURVE SMOOTH",
"545 506 OFFCURVE",
"569 414 OFFCURVE",
"626 414 CURVE SMOOTH",
"684 414 OFFCURVE",
"728 495 OFFCURVE",
"793 495 CURVE SMOOTH",
"827 495 OFFCURVE",
"847 473 OFFCURVE",
"834 436 CURVE SMOOTH",
"812 372 OFFCURVE",
"684 306 OFFCURVE",
"656 195 CURVE SMOOTH",
"652 179 OFFCURVE",
"650 162 OFFCURVE",
"651 145 CURVE SMOOTH",
"655 61 OFFCURVE",
"718 -6 OFFCURVE",
"868 -6 CURVE SMOOTH",
"1028 -6 OFFCURVE",
"1143 75 OFFCURVE",
"1161 147 CURVE SMOOTH",
"1174 199 OFFCURVE",
"1141 177 OFFCURVE",
"1108 177 CURVE SMOOTH",
"1075 177 OFFCURVE",
"1061 193 OFFCURVE",
"1060 214 CURVE SMOOTH",
"1056 285 OFFCURVE",
"1216 358 OFFCURVE",
"1243 482 CURVE SMOOTH",
"1261 564 OFFCURVE",
"1216 665 OFFCURVE",
"1004 665 CURVE SMOOTH",
"846 665 OFFCURVE",
"733 634 OFFCURVE",
"625 523 CURVE",
"700 519 LINE"
);
}
);
};
guideLines = (
{
angle = 72.4435;
position = "{92, 733}";
},
{
angle = 72.4435;
position = "{92, 733}";
},
{
angle = 72.4435;
position = "{420, 733}";
},
{
angle = 72.4435;
position = "{748, 733}";
},
{
angle = 72.4435;
position = "{1263, 733}";
},
{
angle = 72.4435;
position = "{1292, 733}";
},
{
angle = 72.4435;
position = "{1186, 733}";
},
{
angle = 72.4435;
position = "{863, 733}";
},
{
angle = 72.4435;
position = "{962, 733}";
},
{
angle = 72.4435;
position = "{863, 733}";
}
);
layerId = "FF8CB9F1-2B98-444C-A502-96421F2531A8";
name = "Bold Italic";
paths = (
{
closed = 1;
nodes = (
"766 402 LINE",
"888 507 LINE SMOOTH",
"914 528 OFFCURVE",
"923 547 OFFCURVE",
"923 570 CURVE SMOOTH",
"923 601 OFFCURVE",
"885 625 OFFCURVE",
"805 625 CURVE SMOOTH",
"730 625 OFFCURVE",
"661 601 OFFCURVE",
"654 545 CURVE SMOOTH",
"636 402 LINE"
);
},
{
closed = 1;
nodes = (
"743 -28 OFFCURVE",
"701 -60 OFFCURVE",
"634 -60 CURVE SMOOTH",
"588 -60 OFFCURVE",
"568 -39 OFFCURVE",
"576 -12 CURVE SMOOTH",
"583 11 OFFCURVE",
"603 17 OFFCURVE",
"626 17 CURVE SMOOTH",
"656 17 LINE SMOOTH",
"705 17 OFFCURVE",
"725 32 OFFCURVE",
"730 61 CURVE SMOOTH",
"738 90 OFFCURVE",
"717 103 OFFCURVE",
"671 103 CURVE SMOOTH",
"655 103 LINE SMOOTH",
"622 103 OFFCURVE",
"605 116 OFFCURVE",
"613 138 CURVE SMOOTH",
"619 157 OFFCURVE",
"634 166 OFFCURVE",
"699 180 CURVE SMOOTH",
"813 209 OFFCURVE",
"866 236 OFFCURVE",
"888 305 CURVE SMOOTH",
"920 403 OFFCURVE",
"849 492 OFFCURVE",
"699 492 CURVE SMOOTH",
"614 492 OFFCURVE",
"549 471 OFFCURVE",
"485 420 CURVE",
"437 487 OFFCURVE",
"370 520 OFFCURVE",
"276 520 CURVE SMOOTH",
"179 520 OFFCURVE",
"73 462 OFFCURVE",
"33 341 CURVE SMOOTH",
"-13 193 OFFCURVE",
"85 97 OFFCURVE",
"208 97 CURVE SMOOTH",
"347 97 OFFCURVE",
"410 205 OFFCURVE",
"410 264 CURVE SMOOTH",
"410 275 OFFCURVE",
"406 282 OFFCURVE",
"399 282 CURVE SMOOTH",
"378 282 OFFCURVE",
"366 266 OFFCURVE",
"337 266 CURVE SMOOTH",
"295 266 OFFCURVE",
"267 299 OFFCURVE",
"274 330 CURVE SMOOTH",
"281 361 OFFCURVE",
"306 373 OFFCURVE",
"335 373 CURVE SMOOTH",
"389 373 OFFCURVE",
"406 307 OFFCURVE",
"448 307 CURVE SMOOTH",
"492 307 OFFCURVE",
"523 367 OFFCURVE",
"567 367 CURVE SMOOTH",
"594 367 OFFCURVE",
"606 347 OFFCURVE",
"598 317 CURVE SMOOTH",
"576 257 OFFCURVE",
"482 227 OFFCURVE",
"462 159 CURVE SMOOTH",
"447 112 OFFCURVE",
"461 50 OFFCURVE",
"530 28 CURVE",
"520 59 LINE",
"466 53 OFFCURVE",
"421 22 OFFCURVE",
"406 -29 CURVE SMOOTH",
"375 -120 OFFCURVE",
"434 -214 OFFCURVE",
"566 -214 CURVE SMOOTH",
"667 -214 OFFCURVE",
"729 -162 OFFCURVE",
"759 -97 CURVE SMOOTH",
"774 -63 OFFCURVE",
"780 -28 OFFCURVE",
"760 -28 CURVE"
);
}
);
width = 889;
}
);
unicode = 0AE1;
},
{
glyphname = gjE;
lastChange = "2015-08-11 11:44:37 +0000";
layers = (
{
background = {
components = (
{
name = gjmO;
transform = "{1, 0, 0, 1, 739, 0}";
}
);
paths = (
{
closed = 1;
nodes = (
"730 404 OFFCURVE",
"661 470 OFFCURVE",
"573 470 CURVE SMOOTH",
"514 470 OFFCURVE",
"487 432 OFFCURVE",
"487 390 CURVE SMOOTH",
"487 360 OFFCURVE",
"499 336 OFFCURVE",
"520 316 CURVE",
"505 241 OFFCURVE",
"453 207 OFFCURVE",
"383 207 CURVE SMOOTH",
"341 207 OFFCURVE",
"302 216 OFFCURVE",
"268 239 CURVE",
"204 220 LINE",
"271 105 OFFCURVE",
"365 66 OFFCURVE",
"474 66 CURVE SMOOTH",
"614 66 OFFCURVE",
"730 162 OFFCURVE",
"730 303 CURVE SMOOTH"
);
},
{
closed = 1;
nodes = (
"813 338 OFFCURVE",
"777 308 OFFCURVE",
"698 320 CURVE",
"656 276 LINE",
"695 236 OFFCURVE",
"744 222 OFFCURVE",
"811 222 CURVE",
"836 413 LINE"
);
},
{
closed = 1;
nodes = (
"205 633 OFFCURVE",
"123 563 OFFCURVE",
"108 461 CURVE SMOOTH",
"105 446 OFFCURVE",
"115 436 OFFCURVE",
"122 436 CURVE SMOOTH",
"132 437 OFFCURVE",
"141 455 OFFCURVE",
"160 456 CURVE SMOOTH",
"172 456 OFFCURVE",
"180 445 OFFCURVE",
"176 427 CURVE SMOOTH",
"174 404 OFFCURVE",
"160 373 OFFCURVE",
"125 341 CURVE",
"108 352 OFFCURVE",
"93 357 OFFCURVE",
"75 357 CURVE SMOOTH",
"43 357 OFFCURVE",
"12 334 OFFCURVE",
"6 295 CURVE SMOOTH",
"-4 240 OFFCURVE",
"53 172 OFFCURVE",
"160 172 CURVE SMOOTH",
"322 172 OFFCURVE",
"457 319 OFFCURVE",
"457 475 CURVE SMOOTH",
"457 578 OFFCURVE",
"391 633 OFFCURVE",
"310 633 CURVE SMOOTH"
);
},
{
closed = 1;
nodes = (
"1005 624 OFFCURVE",
"896 599 OFFCURVE",
"877 542 CURVE SMOOTH",
"795 279 LINE SMOOTH",
"773 213 OFFCURVE",
"763 172 OFFCURVE",
"763 137 CURVE SMOOTH",
"763 63 OFFCURVE",
"807 -3 OFFCURVE",
"925 -3 CURVE SMOOTH",
"1028 -3 OFFCURVE",
"1099 73 OFFCURVE",
"1099 136 CURVE SMOOTH",
"1099 149 OFFCURVE",
"1093 163 OFFCURVE",
"1085 163 CURVE SMOOTH",
"1075 163 OFFCURVE",
"1070 138 OFFCURVE",
"1048 138 CURVE SMOOTH",
"1033 138 OFFCURVE",
"1028 150 OFFCURVE",
"1033 169 CURVE SMOOTH",
"1149 542 LINE SMOOTH",
"1152 555 OFFCURVE",
"1154 566 OFFCURVE",
"1154 575 CURVE SMOOTH",
"1154 599 OFFCURVE",
"1144 624 OFFCURVE",
"1079 624 CURVE SMOOTH"
);
},
{
closed = 1;
nodes = (
"959 931 OFFCURVE",
"907 931 CURVE SMOOTH",
"866 931 OFFCURVE",
"840 914 OFFCURVE",
"827 880 CURVE SMOOTH",
"782 761 OFFCURVE",
"984 650 OFFCURVE",
"1097 650 CURVE SMOOTH",
"1121 650 OFFCURVE",
"1136 668 OFFCURVE",
"1123 693 CURVE SMOOTH",
"1035 834 LINE SMOOTH",
"993 906 OFFCURVE"
);
}
);
};
components = (
{
name = gjA;
transform = "{1, 0, 0, 1, 0, 0}";
},
{
name = gjmE;
transform = "{1, 0, 0, 1, 1104, 0}";
}
);
layerId = "FF8CB9F1-2B98-444C-A502-96421F2531A8";
rightMetricsKey = auto;
name = "Bold Italic";
width = 1121;
}
);
rightMetricsKey = gjmAA;
unicode = 0A8F;
},
{
glyphname = gjAI;
lastChange = "2015-08-11 11:44:37 +0000";
layers = (
{
background = {
components = (
{
name = gjmAU;
transform = "{1, 0, 0, 1, 739, 0}";
}
);
paths = (
{
closed = 1;
nodes = (
"730 404 OFFCURVE",
"661 470 OFFCURVE",
"573 470 CURVE SMOOTH",
"514 470 OFFCURVE",
"487 432 OFFCURVE",
"487 390 CURVE SMOOTH",
"487 360 OFFCURVE",
"499 336 OFFCURVE",
"520 316 CURVE",
"505 241 OFFCURVE",
"453 207 OFFCURVE",
"383 207 CURVE SMOOTH",
"341 207 OFFCURVE",
"302 216 OFFCURVE",
"268 239 CURVE",
"204 220 LINE",
"271 105 OFFCURVE",
"365 66 OFFCURVE",
"474 66 CURVE SMOOTH",
"614 66 OFFCURVE",
"730 162 OFFCURVE",
"730 303 CURVE SMOOTH"
);
},
{
closed = 1;
nodes = (
"813 338 OFFCURVE",
"777 308 OFFCURVE",
"698 320 CURVE",
"656 276 LINE",
"695 236 OFFCURVE",
"744 222 OFFCURVE",
"811 222 CURVE",
"836 413 LINE"
);
},
{
closed = 1;
nodes = (
"205 633 OFFCURVE",
"123 563 OFFCURVE",
"108 461 CURVE SMOOTH",
"105 446 OFFCURVE",
"115 436 OFFCURVE",
"122 436 CURVE SMOOTH",
"132 437 OFFCURVE",
"141 455 OFFCURVE",
"160 456 CURVE SMOOTH",
"172 456 OFFCURVE",
"180 445 OFFCURVE",
"176 427 CURVE SMOOTH",
"174 404 OFFCURVE",
"160 373 OFFCURVE",
"125 341 CURVE",
"108 352 OFFCURVE",
"93 357 OFFCURVE",
"75 357 CURVE SMOOTH",
"43 357 OFFCURVE",
"12 334 OFFCURVE",
"6 295 CURVE SMOOTH",
"-4 240 OFFCURVE",
"53 172 OFFCURVE",
"160 172 CURVE SMOOTH",
"322 172 OFFCURVE",
"457 319 OFFCURVE",
"457 475 CURVE SMOOTH",
"457 578 OFFCURVE",
"391 633 OFFCURVE",
"310 633 CURVE SMOOTH"
);
},
{
closed = 1;
nodes = (
"1005 624 OFFCURVE",
"896 599 OFFCURVE",
"877 542 CURVE SMOOTH",
"795 279 LINE SMOOTH",
"773 213 OFFCURVE",
"763 172 OFFCURVE",
"763 137 CURVE SMOOTH",
"763 63 OFFCURVE",
"807 -3 OFFCURVE",
"925 -3 CURVE SMOOTH",
"1028 -3 OFFCURVE",
"1099 73 OFFCURVE",
"1099 136 CURVE SMOOTH",
"1099 149 OFFCURVE",
"1093 163 OFFCURVE",
"1085 163 CURVE SMOOTH",
"1075 163 OFFCURVE",
"1070 138 OFFCURVE",
"1048 138 CURVE SMOOTH",
"1033 138 OFFCURVE",
"1028 150 OFFCURVE",
"1033 169 CURVE SMOOTH",
"1149 542 LINE SMOOTH",
"1152 555 OFFCURVE",
"1154 566 OFFCURVE",
"1154 575 CURVE SMOOTH",
"1154 599 OFFCURVE",
"1144 624 OFFCURVE",
"1079 624 CURVE SMOOTH"
);
},
{
closed = 1;
nodes = (
"1024 931 OFFCURVE",
"993 910 OFFCURVE",
"985 866 CURVE SMOOTH",
"977 820 OFFCURVE",
"996 777 OFFCURVE",
"1052 699 CURVE",
"1052 705 LINE",
"984 770 LINE SMOOTH",
"886 867 OFFCURVE",
"858 886 OFFCURVE",
"820 886 CURVE SMOOTH",
"785 886 OFFCURVE",
"760 869 OFFCURVE",
"752 837 CURVE SMOOTH",
"725 728 OFFCURVE",
"868 653 OFFCURVE",
"1093 653 CURVE SMOOTH",
"1116 653 OFFCURVE",
"1125 661 OFFCURVE",
"1128 678 CURVE SMOOTH",
"1142 772 LINE SMOOTH",
"1163 889 OFFCURVE",
"1109 931 OFFCURVE",
"1062 931 CURVE SMOOTH"
);
}
);
};
components = (
{
name = gjA;
transform = "{1, 0, 0, 1, 0, 0}";
},
{
name = gjmAI;
transform = "{1, 0, 0, 1, 1129, 0}";
}
);
layerId = "FF8CB9F1-2B98-444C-A502-96421F2531A8";
rightMetricsKey = auto;
name = "Bold Italic";
width = 1121;
}
);
rightMetricsKey = gjmAA;
unicode = 0A90;
},
{
glyphname = gjmAA;
lastChange = "2015-08-11 11:44:37 +0000";
layers = (
{
background = {
paths = (
{
closed = 1;
nodes = (
"12 379 LINE",
"-18 287 OFFCURVE",
"-30 234 OFFCURVE",
"-30 186 CURVE SMOOTH",
"-30 85 OFFCURVE",
"29 -4 OFFCURVE",
"189 -4 CURVE SMOOTH",
"329 -4 OFFCURVE",
"422 98 OFFCURVE",
"422 184 CURVE SMOOTH",
"422 202 OFFCURVE",
"416 220 OFFCURVE",
"405 220 CURVE SMOOTH",
"392 220 OFFCURVE",
"384 187 OFFCURVE",
"354 187 CURVE SMOOTH",
"336 187 OFFCURVE",
"328 203 OFFCURVE",
"336 229 CURVE SMOOTH",
"490 733 LINE SMOOTH",
"495 750 OFFCURVE",
"498 766 OFFCURVE",
"498 779 CURVE SMOOTH",
"498 809 OFFCURVE",
"485 844 OFFCURVE",
"402 844 CURVE SMOOTH",
"329 844 OFFCURVE",
"248 821 OFFCURVE",
"137 774 CURVE"
);
}
);
};
layerId = "FF8CB9F1-2B98-444C-A502-96421F2531A8";
name = "Bold Italic";
paths = (
{
closed = 1;
nodes = (
"266 624 OFFCURVE",
"157 599 OFFCURVE",
"139 542 CURVE SMOOTH",
"56 279 LINE SMOOTH",
"34 213 OFFCURVE",
"26 172 OFFCURVE",
"26 137 CURVE SMOOTH",
"26 63 OFFCURVE",
"70 -3 OFFCURVE",
"187 -3 CURVE SMOOTH",
"291 -3 OFFCURVE",
"360 73 OFFCURVE",
"360 136 CURVE SMOOTH",
"360 149 OFFCURVE",
"356 163 OFFCURVE",
"347 163 CURVE SMOOTH",
"337 163 OFFCURVE",
"330 138 OFFCURVE",
"310 138 CURVE SMOOTH",
"296 138 OFFCURVE",
"289 150 OFFCURVE",
"296 169 CURVE SMOOTH",
"410 542 LINE SMOOTH",
"413 555 OFFCURVE",
"415 566 OFFCURVE",
"415 575 CURVE SMOOTH",
"415 599 OFFCURVE",
"406 624 OFFCURVE",
"341 624 CURVE SMOOTH"
);
}
);
width = 380;
}
);
unicode = 0ABE;
},
{
glyphname = gjmI;
lastChange = "2015-08-11 11:44:37 +0000";
layers = (
{
associatedMasterId = "FF8CB9F1-2B98-444C-A502-96421F2531A8";
background = {
paths = (
{
closed = 1;
nodes = (
"140 635 LINE",
"62 379 LINE SMOOTH",
"32 287 OFFCURVE",
"20 234 OFFCURVE",
"20 186 CURVE SMOOTH",
"20 85 OFFCURVE",
"79 -4 OFFCURVE",
"239 -4 CURVE SMOOTH",
"379 -4 OFFCURVE",
"472 98 OFFCURVE",
"472 184 CURVE SMOOTH",
"472 202 OFFCURVE",
"466 220 OFFCURVE",
"455 220 CURVE SMOOTH",
"442 220 OFFCURVE",
"434 187 OFFCURVE",
"404 187 CURVE SMOOTH",
"386 187 OFFCURVE",
"378 203 OFFCURVE",
"386 229 CURVE SMOOTH",
"510 635 LINE"
);
},
{
closed = 1;
nodes = (
"510 635 LINE",
"540 733 LINE SMOOTH",
"590 897 OFFCURVE",
"482 1093 OFFCURVE",
"54 1093 CURVE SMOOTH",
"-244 1093 OFFCURVE",
"-412 978 OFFCURVE",
"-412 833 CURVE SMOOTH",
"-412 751 OFFCURVE",
"-341 673 OFFCURVE",
"-214 673 CURVE SMOOTH",
"-84 673 OFFCURVE",
"46 707 OFFCURVE",
"46 855 CURVE SMOOTH",
"46 873 OFFCURVE",
"40 879 OFFCURVE",
"30 879 CURVE SMOOTH",
"16 879 OFFCURVE",
"9 846 OFFCURVE",
"-23 846 CURVE SMOOTH",
"-37 846 OFFCURVE",
"-44 864 OFFCURVE",
"-44 893 CURVE SMOOTH",
"-44 934 OFFCURVE",
"-2 985 OFFCURVE",
"66 985 CURVE SMOOTH",
"160 985 OFFCURVE",
"221 900 OFFCURVE",
"176 751 CURVE SMOOTH",
"140 635 LINE"
);
}
);
};
layerId = "40EEC142-9D03-4298-9310-C82D7AFA62C2";
name = Disconnected;
paths = (
{
closed = 1;
nodes = (
"1633 984 OFFCURVE",
"1254 1165 OFFCURVE",
"879 1165 CURVE SMOOTH",
"558 1165 OFFCURVE",
"278 1077 OFFCURVE",
"200 826 CURVE SMOOTH",
"62 379 LINE SMOOTH",
"32 287 OFFCURVE",
"20 234 OFFCURVE",
"20 186 CURVE SMOOTH",
"20 85 OFFCURVE",
"79 -4 OFFCURVE",
"239 -4 CURVE SMOOTH",
"379 -4 OFFCURVE",
"472 98 OFFCURVE",
"472 184 CURVE SMOOTH",
"472 202 OFFCURVE",
"466 220 OFFCURVE",
"455 220 CURVE SMOOTH",
"442 220 OFFCURVE",
"434 187 OFFCURVE",
"404 187 CURVE SMOOTH",
"386 187 OFFCURVE",
"378 203 OFFCURVE",
"386 229 CURVE SMOOTH",
"555 778 LINE SMOOTH",
"604 936 OFFCURVE",
"694 1020 OFFCURVE",
"955 1020 CURVE SMOOTH",
"1252 1020 OFFCURVE",
"1465 884 OFFCURVE",
"1582 884 CURVE SMOOTH",
"1614 884 OFFCURVE",
"1633 895 OFFCURVE",
"1633 921 CURVE SMOOTH"
);
}
);
width = 600;
},
{
associatedMasterId = "FF8CB9F1-2B98-444C-A502-96421F2531A8";
background = {
paths = (
{
closed = 1;
nodes = (
"140 635 LINE",
"62 379 LINE SMOOTH",
"32 287 OFFCURVE",
"20 234 OFFCURVE",
"20 186 CURVE SMOOTH",
"20 85 OFFCURVE",
"79 -4 OFFCURVE",
"239 -4 CURVE SMOOTH",
"379 -4 OFFCURVE",
"472 98 OFFCURVE",
"472 184 CURVE SMOOTH",
"472 202 OFFCURVE",
"466 220 OFFCURVE",
"455 220 CURVE SMOOTH",
"442 220 OFFCURVE",
"434 187 OFFCURVE",
"404 187 CURVE SMOOTH",
"386 187 OFFCURVE",
"378 203 OFFCURVE",
"386 229 CURVE SMOOTH",
"510 635 LINE"
);
},
{
closed = 1;
nodes = (
"510 635 LINE",
"540 733 LINE SMOOTH",
"590 897 OFFCURVE",
"482 1093 OFFCURVE",
"54 1093 CURVE SMOOTH",
"-244 1093 OFFCURVE",
"-412 978 OFFCURVE",
"-412 833 CURVE SMOOTH",
"-412 751 OFFCURVE",
"-341 673 OFFCURVE",
"-214 673 CURVE SMOOTH",
"-84 673 OFFCURVE",
"46 707 OFFCURVE",
"46 855 CURVE SMOOTH",
"46 873 OFFCURVE",
"40 879 OFFCURVE",
"30 879 CURVE SMOOTH",
"16 879 OFFCURVE",
"9 846 OFFCURVE",
"-23 846 CURVE SMOOTH",
"-37 846 OFFCURVE",
"-44 864 OFFCURVE",
"-44 893 CURVE SMOOTH",
"-44 934 OFFCURVE",
"-2 985 OFFCURVE",
"66 985 CURVE SMOOTH",
"160 985 OFFCURVE",
"221 900 OFFCURVE",
"176 751 CURVE SMOOTH",
"140 635 LINE"
);
}
);
};
layerId = "A34654E4-1092-42CB-9E8E-F837C630DD70";
name = "Bold Italic Aug 6 15, 23:34";
paths = (
{
closed = 1;
nodes = (
"274 1245 OFFCURVE",
"46 1086 OFFCURVE",
"191 795 CURVE",
"62 379 LINE SMOOTH",
"32 287 OFFCURVE",
"20 234 OFFCURVE",
"20 186 CURVE SMOOTH",
"20 85 OFFCURVE",
"79 -4 OFFCURVE",
"239 -4 CURVE SMOOTH",
"379 -4 OFFCURVE",
"472 98 OFFCURVE",
"472 184 CURVE SMOOTH",
"472 202 OFFCURVE",
"466 220 OFFCURVE",
"455 220 CURVE SMOOTH",
"442 220 OFFCURVE",
"434 187 OFFCURVE",
"404 187 CURVE SMOOTH",
"386 187 OFFCURVE",
"378 203 OFFCURVE",
"386 229 CURVE SMOOTH",
"574 838 LINE",
"402 1045 OFFCURVE",
"494 1190 OFFCURVE",
"627 1190 CURVE SMOOTH",
"774 1190 OFFCURVE",
"891 1114 OFFCURVE",
"891 1037 CURVE SMOOTH",
"891 1008 OFFCURVE",
"855 990 OFFCURVE",
"841 990 CURVE SMOOTH",
"809 990 OFFCURVE",
"822 1023 OFFCURVE",
"808 1023 CURVE SMOOTH",
"798 1023 OFFCURVE",
"781 1018 OFFCURVE",
"777 999 CURVE SMOOTH",
"743 851 OFFCURVE",
"915 817 OFFCURVE",
"1045 817 CURVE SMOOTH",
"1172 817 OFFCURVE",
"1255 899 OFFCURVE",
"1255 996 CURVE SMOOTH",
"1255 1168 OFFCURVE",
"1047 1335 OFFCURVE",
"685 1293 CURVE SMOOTH"
);
}
);
width = 600;
},
{
associatedMasterId = "FF8CB9F1-2B98-444C-A502-96421F2531A8";
background = {
paths = (
{
closed = 1;
nodes = (
"140 635 LINE",
"62 379 LINE SMOOTH",
"32 287 OFFCURVE",
"20 234 OFFCURVE",
"20 186 CURVE SMOOTH",
"20 85 OFFCURVE",
"79 -4 OFFCURVE",
"239 -4 CURVE SMOOTH",
"379 -4 OFFCURVE",
"472 98 OFFCURVE",
"472 184 CURVE SMOOTH",
"472 202 OFFCURVE",
"466 220 OFFCURVE",
"455 220 CURVE SMOOTH",
"442 220 OFFCURVE",
"434 187 OFFCURVE",
"404 187 CURVE SMOOTH",
"386 187 OFFCURVE",
"378 203 OFFCURVE",
"386 229 CURVE SMOOTH",
"510 635 LINE"
);
},
{
closed = 1;
nodes = (
"510 635 LINE",
"540 733 LINE SMOOTH",
"590 897 OFFCURVE",
"482 1093 OFFCURVE",
"54 1093 CURVE SMOOTH",
"-244 1093 OFFCURVE",
"-412 978 OFFCURVE",
"-412 833 CURVE SMOOTH",
"-412 751 OFFCURVE",
"-341 673 OFFCURVE",
"-214 673 CURVE SMOOTH",
"-84 673 OFFCURVE",
"46 707 OFFCURVE",
"46 855 CURVE SMOOTH",
"46 873 OFFCURVE",
"40 879 OFFCURVE",
"30 879 CURVE SMOOTH",
"16 879 OFFCURVE",
"9 846 OFFCURVE",
"-23 846 CURVE SMOOTH",
"-37 846 OFFCURVE",
"-44 864 OFFCURVE",
"-44 893 CURVE SMOOTH",
"-44 934 OFFCURVE",
"-2 985 OFFCURVE",
"66 985 CURVE SMOOTH",
"160 985 OFFCURVE",
"221 900 OFFCURVE",
"176 751 CURVE SMOOTH",
"140 635 LINE"
);
}
);
};
layerId = "ACCFAEBC-CF25-4E27-9B0F-D595EE9ABC58";
name = "Bold Italic Aug 7 15, 12:13";
paths = (
{
closed = 1;
nodes = (
"1078 941 OFFCURVE",
"1074 969 OFFCURVE",
"1051 1009 CURVE SMOOTH",
"969 1150 OFFCURVE",
"786 1302 OFFCURVE",
"532 1302 CURVE SMOOTH",
"313 1302 OFFCURVE",
"161 1215 OFFCURVE",
"125 1072 CURVE SMOOTH",
"107 999 OFFCURVE",
"118 913 OFFCURVE",
"197 815 CURVE",
"62 379 LINE SMOOTH",
"33 287 OFFCURVE",
"20 234 OFFCURVE",
"20 186 CURVE SMOOTH",
"20 85 OFFCURVE",
"79 -4 OFFCURVE",
"239 -4 CURVE SMOOTH",
"379 -4 OFFCURVE",
"472 98 OFFCURVE",
"472 184 CURVE SMOOTH",
"472 202 OFFCURVE",
"466 220 OFFCURVE",
"455 220 CURVE SMOOTH",
"442 220 OFFCURVE",
"434 187 OFFCURVE",
"404 187 CURVE SMOOTH",
"386 187 OFFCURVE",
"378 203 OFFCURVE",
"386 229 CURVE SMOOTH",
"564 806 LINE SMOOTH",
"592 898 OFFCURVE",
"490 941 OFFCURVE",
"512 1028 CURVE SMOOTH",
"525 1078 OFFCURVE",
"575 1112 OFFCURVE",
"647 1112 CURVE SMOOTH",
"784 1112 OFFCURVE",
"881 1034 OFFCURVE",
"982 934 CURVE SMOOTH",
"1013 903 OFFCURVE",
"1038 901 OFFCURVE",
"1059 922 CURVE SMOOTH"
);
}
);
width = 517;
},
{
background = {
components = (
{
name = gjmAA;
transform = "{1, 0, 0, 1, 18, 0}";
}
);
};
guideLines = (
{
angle = 73.0092;
position = "{188, 733}";
},
{
angle = 73.0092;
position = "{-8, 723}";
},
{
angle = 73.0092;
position = "{359, 733}";
},
{
angle = 73.0092;
position = "{595, 853}";
},
{
angle = 73.0092;
position = "{797, 853}";
},
{
angle = 73.0092;
position = "{1091, 853}";
},
{
angle = 73.0092;
position = "{1127, 853}";
},
{
angle = 73.0092;
position = "{696, 853}";
}
);
layerId = "FF8CB9F1-2B98-444C-A502-96421F2531A8";
name = "Bold Italic";
paths = (
{
closed = 1;
nodes = (
"214 931 OFFCURVE",
"93 872 OFFCURVE",
"61 766 CURVE SMOOTH",
"35 686 OFFCURVE",
"72 614 OFFCURVE",
"124 561 CURVE SMOOTH",
"133 552 OFFCURVE",
"136 543 OFFCURVE",
"132 530 CURVE SMOOTH",
"56 279 LINE SMOOTH",
"34 212 OFFCURVE",
"26 172 OFFCURVE",
"26 137 CURVE SMOOTH",
"26 63 OFFCURVE",
"68 -3 OFFCURVE",
"186 -3 CURVE SMOOTH",
"289 -3 OFFCURVE",
"360 73 OFFCURVE",
"360 136 CURVE SMOOTH",
"360 149 OFFCURVE",
"355 163 OFFCURVE",
"347 163 CURVE SMOOTH",
"337 163 OFFCURVE",
"329 138 OFFCURVE",
"309 138 CURVE SMOOTH",
"295 138 OFFCURVE",
"289 150 OFFCURVE",
"295 169 CURVE SMOOTH",
"406 527 LINE SMOOTH",
"413 555 OFFCURVE",
"412 569 OFFCURVE",
"398 582 CURVE SMOOTH",
"337 641 OFFCURVE",
"308 689 OFFCURVE",
"327 759 CURVE SMOOTH",
"345 812 OFFCURVE",
"400 842 OFFCURVE",
"488 842 CURVE SMOOTH",
"587 842 OFFCURVE",
"641 809 OFFCURVE",
"629 771 CURVE SMOOTH",
"624 756 OFFCURVE",
"614 750 OFFCURVE",
"600 750 CURVE SMOOTH",
"576 750 OFFCURVE",
"574 774 OFFCURVE",
"564 774 CURVE SMOOTH",
"559 774 OFFCURVE",
"553 769 OFFCURVE",
"550 758 CURVE SMOOTH",
"536 714 OFFCURVE",
"578 659 OFFCURVE",
"696 659 CURVE SMOOTH",
"778 659 OFFCURVE",
"822 693 OFFCURVE",
"835 738 CURVE SMOOTH",
"865 833 OFFCURVE",
"725 931 OFFCURVE",
"460 931 CURVE SMOOTH"
);
}
);
width = 380;
}
);
unicode = 0ABF;
},
{
glyphname = gjmII;
lastChange = "2015-08-11 11:44:37 +0000";
layers = (
{
associatedMasterId = "FF8CB9F1-2B98-444C-A502-96421F2531A8";
background = {
components = (
{
name = gjmAA;
transform = "{1, 0, 0, 1, 0, 0}";
}
);
};
layerId = "B1090613-BEB7-4F7B-8476-E5B3BAD29558";
rightMetricsKey = gjmAA;
name = "Bold Italic Aug 7 15, 12:13";
paths = (
{
closed = 1;
nodes = (
"45 1235 OFFCURVE",
"-125 1188 OFFCURVE",
"-125 1043 CURVE SMOOTH",
"-125 961 OFFCURVE",
"-103 883 OFFCURVE",
"4 883 CURVE SMOOTH",
"47 883 OFFCURVE",
"122 881 OFFCURVE",
"122 989 CURVE SMOOTH",
"122 1007 OFFCURVE",
"116 1013 OFFCURVE",
"106 1013 CURVE SMOOTH",
"92 1013 OFFCURVE",
"85 988 OFFCURVE",
"53 988 CURVE SMOOTH",
"39 988 OFFCURVE",
"32 1006 OFFCURVE",
"32 1035 CURVE SMOOTH",
"32 1076 OFFCURVE",
"64 1127 OFFCURVE",
"120 1127 CURVE SMOOTH",
"200 1127 OFFCURVE",
"267 1062 OFFCURVE",
"233 953 CURVE SMOOTH",
"53 379 LINE SMOOTH",
"25 288 OFFCURVE",
"11 234 OFFCURVE",
"11 186 CURVE SMOOTH",
"11 85 OFFCURVE",
"70 -4 OFFCURVE",
"230 -4 CURVE SMOOTH",
"370 -4 OFFCURVE",
"463 98 OFFCURVE",
"463 184 CURVE SMOOTH",
"463 202 OFFCURVE",
"457 220 OFFCURVE",
"446 220 CURVE SMOOTH",
"433 220 OFFCURVE",
"425 187 OFFCURVE",
"395 187 CURVE SMOOTH",
"377 187 OFFCURVE",
"369 203 OFFCURVE",
"377 229 CURVE SMOOTH",
"579 875 LINE SMOOTH",
"629 1035 OFFCURVE",
"558 1235 OFFCURVE",
"190 1235 CURVE SMOOTH"
);
}
);
width = 525;
},
{
background = {
components = (
{
name = gjmAA;
transform = "{1, 0, 0, 1, 20, 0}";
}
);
};
guideLines = (
{
angle = 73.0092;
position = "{560, 733}";
},
{
angle = 73.0092;
position = "{-347, 733}";
},
{
angle = 73.0092;
position = "{191, 733}";
},
{
angle = 73.0092;
position = "{-71, 733}";
},
{
angle = 73.0092;
position = "{59, 733}";
}
);
layerId = "FF8CB9F1-2B98-444C-A502-96421F2531A8";
rightMetricsKey = gjmAA;
name = "Bold Italic";
paths = (
{
closed = 1;
nodes = (
"-66 931 OFFCURVE",
"-160 877 OFFCURVE",
"-181 801 CURVE SMOOTH",
"-205 725 OFFCURVE",
"-155 659 OFFCURVE",
"-41 659 CURVE SMOOTH",
"49 659 OFFCURVE",
"85 695 OFFCURVE",
"98 736 CURVE SMOOTH",
"105 758 OFFCURVE",
"99 768 OFFCURVE",
"92 768 CURVE SMOOTH",
"81 768 OFFCURVE",
"74 749 OFFCURVE",
"50 749 CURVE SMOOTH",
"27 749 OFFCURVE",
"13 770 OFFCURVE",
"23 802 CURVE SMOOTH",
"32 834 OFFCURVE",
"62 852 OFFCURVE",
"99 852 CURVE SMOOTH",
"161 852 OFFCURVE",
"217 805 OFFCURVE",
"185 699 CURVE SMOOTH",
"56 279 LINE SMOOTH",
"35 212 OFFCURVE",
"26 172 OFFCURVE",
"26 137 CURVE SMOOTH",
"26 63 OFFCURVE",
"70 -3 OFFCURVE",
"187 -3 CURVE SMOOTH",
"291 -3 OFFCURVE",
"360 73 OFFCURVE",
"360 136 CURVE SMOOTH",
"360 149 OFFCURVE",
"356 163 OFFCURVE",
"347 163 CURVE SMOOTH",
"337 163 OFFCURVE",
"330 138 OFFCURVE",
"310 138 CURVE SMOOTH",
"296 138 OFFCURVE",
"289 150 OFFCURVE",
"296 169 CURVE SMOOTH",
"435 625 LINE SMOOTH",
"478 772 OFFCURVE",
"399 931 OFFCURVE",
"105 931 CURVE SMOOTH"
);
}
);
width = 380;
}
);
rightMetricsKey = gjPA;
unicode = 0AC0;
},
{
glyphname = gjmU;
lastChange = "2015-08-11 11:44:37 +0000";
layers = (
{
background = {
paths = (
{
closed = 0;
nodes = (
"-311 -274 LINE",
"-218 -240 OFFCURVE",
"-153 -175 OFFCURVE",
"-153 -79 CURVE SMOOTH",
"-153 52 OFFCURVE",
"-260 144 OFFCURVE",
"-412 144 CURVE SMOOTH",
"-539 144 OFFCURVE",
"-628 69 OFFCURVE",
"-628 -39 CURVE SMOOTH",
"-628 -59 OFFCURVE",
"-621 -70 OFFCURVE",
"-609 -70 CURVE SMOOTH",
"-577 -70 OFFCURVE",
"-559 -16 OFFCURVE",
"-521 -16 CURVE SMOOTH",
"-500 -16 OFFCURVE",
"-479 -36 OFFCURVE",
"-479 -71 CURVE SMOOTH",
"-479 -167 OFFCURVE",
"-599 -210 OFFCURVE",
"-755 -130 CURVE",
"-811 -101 OFFCURVE",
"-824 -83 OFFCURVE",
"-824 -152 CURVE SMOOTH",
"-824 -221 OFFCURVE",
"-637 -323 OFFCURVE",
"-466 -323 CURVE"
);
}
);
};
layerId = "FF8CB9F1-2B98-444C-A502-96421F2531A8";
name = "Bold Italic";
paths = (
{
closed = 1;
nodes = (
"-415 107 OFFCURVE",
"-481 51 OFFCURVE",
"-481 -28 CURVE SMOOTH",
"-481 -43 OFFCURVE",
"-475 -52 OFFCURVE",
"-467 -52 CURVE SMOOTH",
"-445 -52 OFFCURVE",
"-430 -12 OFFCURVE",
"-404 -12 CURVE SMOOTH",
"-388 -12 OFFCURVE",
"-371 -26 OFFCURVE",
"-371 -53 CURVE SMOOTH",
"-371 -95 OFFCURVE",
"-404 -120 OFFCURVE",
"-443 -120 CURVE SMOOTH",
"-507 -120 OFFCURVE",
"-553 -60 OFFCURVE",
"-577 -60 CURVE SMOOTH",
"-591 -60 OFFCURVE",
"-596 -65 OFFCURVE",
"-596 -80 CURVE SMOOTH",
"-596 -146 OFFCURVE",
"-494 -230 OFFCURVE",
"-349 -230 CURVE SMOOTH",
"-217 -230 OFFCURVE",
"-130 -155 OFFCURVE",
"-130 -59 CURVE SMOOTH",
"-130 38 OFFCURVE",
"-230 107 OFFCURVE",
"-322 107 CURVE SMOOTH"
);
}
);
width = 0;
}
);
unicode = 0AC1;
},
{
glyphname = gjmUU;
lastChange = "2015-08-11 11:44:37 +0000";
layers = (
{
background = {
paths = (
{
closed = 1;
nodes = (
"-507 174 OFFCURVE",
"-639 93 OFFCURVE",
"-661 -35 CURVE SMOOTH",
"-684 -163 OFFCURVE",
"-568 -278 OFFCURVE",
"-445 -300 CURVE SMOOTH",
"-322 -322 OFFCURVE",
"-219 -263 OFFCURVE",
"-201 -157 CURVE SMOOTH",
"-197 -137 OFFCURVE",
"-202 -125 OFFCURVE",
"-214 -123 CURVE SMOOTH",
"-245 -118 OFFCURVE",
"-273 -168 OFFCURVE",
"-310 -161 CURVE SMOOTH",
"-331 -158 OFFCURVE",
"-348 -134 OFFCURVE",
"-342 -100 CURVE SMOOTH",
"-332 -43 OFFCURVE",
"-285 -17 OFFCURVE",
"-232 -27 CURVE SMOOTH",
"-146 -42 OFFCURVE",
"-99 -133 OFFCURVE",
"-65 -139 CURVE SMOOTH",
"-50 -142 OFFCURVE",
"-41 -137 OFFCURVE",
"-37 -116 CURVE SMOOTH",
"-21 -28 OFFCURVE",
"-138 109 OFFCURVE",
"-330 143 CURVE SMOOTH"
);
}
);
};
layerId = "FF8CB9F1-2B98-444C-A502-96421F2531A8";
name = "Bold Italic";
paths = (
{
closed = 1;
nodes = (
"-391 112 OFFCURVE",
"-472 44 OFFCURVE",
"-472 -60 CURVE SMOOTH",
"-472 -163 OFFCURVE",
"-380 -225 OFFCURVE",
"-276 -225 CURVE SMOOTH",
"-181 -225 OFFCURVE",
"-128 -162 OFFCURVE",
"-128 -110 CURVE SMOOTH",
"-128 -97 OFFCURVE",
"-134 -91 OFFCURVE",
"-144 -91 CURVE SMOOTH",
"-165 -91 OFFCURVE",
"-176 -120 OFFCURVE",
"-207 -120 CURVE SMOOTH",
"-224 -120 OFFCURVE",
"-234 -103 OFFCURVE",
"-234 -83 CURVE SMOOTH",
"-234 -53 OFFCURVE",
"-214 -20 OFFCURVE",
"-169 -20 CURVE SMOOTH",
"-93 -20 OFFCURVE",
"-56 -104 OFFCURVE",
"-24 -104 CURVE SMOOTH",
"-13 -104 OFFCURVE",
"-7 -91 OFFCURVE",
"-7 -75 CURVE SMOOTH",
"-7 -1 OFFCURVE",
"-118 112 OFFCURVE",
"-276 112 CURVE SMOOTH"
);
}
);
width = 0;
}
);
unicode = 0AC2;
},
{
glyphname = gjmvR;
lastChange = "2015-08-11 11:44:37 +0000";
layers = (
{
background = {
paths = (
{
closed = 1;
nodes = (
"-508 150 OFFCURVE",
"-619 60 OFFCURVE",
"-619 -80 CURVE SMOOTH",
"-619 -220 OFFCURVE",
"-496 -305 OFFCURVE",
"-356 -305 CURVE SMOOTH",
"-226 -305 OFFCURVE",
"-154 -219 OFFCURVE",
"-154 -149 CURVE SMOOTH",
"-154 -132 OFFCURVE",
"-162 -123 OFFCURVE",
"-174 -123 CURVE SMOOTH",
"-202 -123 OFFCURVE",
"-220 -161 OFFCURVE",
"-259 -161 CURVE SMOOTH",
"-284 -161 OFFCURVE",
"-297 -139 OFFCURVE",
"-297 -113 CURVE SMOOTH",
"-297 -72 OFFCURVE",
"-268 -25 OFFCURVE",
"-207 -25 CURVE SMOOTH",
"-105 -25 OFFCURVE",
"-55 -140 OFFCURVE",
"-12 -140 CURVE SMOOTH",
"3 -140 OFFCURVE",
"11 -123 OFFCURVE",
"11 -103 CURVE SMOOTH",
"11 -1 OFFCURVE",
"-139 150 OFFCURVE",
"-356 150 CURVE SMOOTH"
);
}
);
};
layerId = "FF8CB9F1-2B98-444C-A502-96421F2531A8";
name = "Bold Italic";
paths = (
{
closed = 1;
nodes = (
"-409 44 OFFCURVE",
"-472 -4 OFFCURVE",
"-472 -84 CURVE SMOOTH",
"-472 -161 OFFCURVE",
"-411 -225 OFFCURVE",
"-306 -225 CURVE SMOOTH",
"-189 -225 OFFCURVE",
"-94 -147 OFFCURVE",
"-94 -45 CURVE SMOOTH",
"-94 -37 OFFCURVE",
"-96 -28 OFFCURVE",
"-104 -28 CURVE SMOOTH",
"-132 -28 OFFCURVE",
"-130 -74 OFFCURVE",
"-244 -79 CURVE SMOOTH",
"-282 -80 OFFCURVE",
"-313 -65 OFFCURVE",
"-313 -43 CURVE SMOOTH",
"-313 -22 OFFCURVE",
"-282 -3 OFFCURVE",
"-245 -3 CURVE SMOOTH",
"-236 -3 OFFCURVE",
"-231 3 OFFCURVE",
"-231 14 CURVE",
"-317 44 LINE"
);
}
);
width = 0;
}
);
unicode = 0AC3;
},
{
glyphname = gjmvRR;
lastChange = "2015-08-11 11:44:37 +0000";
layers = (
{
background = {
paths = (
{
closed = 1;
nodes = (
"-532 60 OFFCURVE",
"-619 -5 OFFCURVE",
"-619 -114 CURVE SMOOTH",
"-619 -217 OFFCURVE",
"-536 -305 OFFCURVE",
"-393 -305 CURVE SMOOTH",
"-235 -305 OFFCURVE",
"-107 -198 OFFCURVE",
"-107 -61 CURVE SMOOTH",
"-107 -50 OFFCURVE",
"-110 -39 OFFCURVE",
"-120 -39 CURVE SMOOTH",
"-158 -39 OFFCURVE",
"-157 -101 OFFCURVE",
"-310 -107 CURVE SMOOTH",
"-361 -109 OFFCURVE",
"-401 -87 OFFCURVE",
"-401 -58 CURVE SMOOTH",
"-401 -28 OFFCURVE",
"-361 -4 OFFCURVE",
"-311 -4 CURVE SMOOTH",
"-300 -4 OFFCURVE",
"-293 4 OFFCURVE",
"-293 19 CURVE",
"-408 60 LINE"
);
}
);
};
layerId = "FF8CB9F1-2B98-444C-A502-96421F2531A8";
name = "Bold Italic";
paths = (
{
closed = 1;
nodes = (
"-295 49 LINE",
"-368 49 OFFCURVE",
"-413 28 OFFCURVE",
"-425 -14 CURVE SMOOTH",
"-445 -72 OFFCURVE",
"-399 -112 OFFCURVE",
"-333 -125 CURVE",
"-372 -81 LINE",
"-421 -85 OFFCURVE",
"-477 -97 OFFCURVE",
"-501 -157 CURVE SMOOTH",
"-525 -223 OFFCURVE",
"-470 -296 OFFCURVE",
"-334 -296 CURVE SMOOTH",
"-245 -296 OFFCURVE",
"-172 -256 OFFCURVE",
"-147 -208 CURVE SMOOTH",
"-132 -181 OFFCURVE",
"-125 -156 OFFCURVE",
"-145 -156 CURVE",
"-162 -156 OFFCURVE",
"-199 -177 OFFCURVE",
"-261 -177 CURVE SMOOTH",
"-305 -177 OFFCURVE",
"-322 -165 OFFCURVE",
"-314 -143 CURVE SMOOTH",
"-308 -125 OFFCURVE",
"-289 -122 OFFCURVE",
"-267 -122 CURVE SMOOTH",
"-240 -122 LINE SMOOTH",
"-197 -122 OFFCURVE",
"-175 -109 OFFCURVE",
"-171 -87 CURVE SMOOTH",
"-166 -66 OFFCURVE",
"-183 -56 OFFCURVE",
"-226 -56 CURVE SMOOTH",
"-242 -56 LINE SMOOTH",
"-272 -56 OFFCURVE",
"-287 -45 OFFCURVE",
"-279 -28 CURVE SMOOTH",
"-274 -15 OFFCURVE",
"-261 -9 OFFCURVE",
"-225 0 CURVE"
);
}
);
width = 0;
}
);
unicode = 0AC4;
},
{
glyphname = gjmE;
lastChange = "2015-08-11 11:44:37 +0000";
layers = (
{
background = {
paths = (
{
closed = 1;
nodes = (
"-135 931 OFFCURVE",
"-189 931 CURVE SMOOTH",
"-227 931 OFFCURVE",
"-254 914 OFFCURVE",
"-266 880 CURVE SMOOTH",
"-313 761 OFFCURVE",
"-110 650 OFFCURVE",
"2 650 CURVE SMOOTH",
"26 650 OFFCURVE",
"42 668 OFFCURVE",
"28 693 CURVE SMOOTH",
"-59 834 LINE SMOOTH",
"-101 906 OFFCURVE"
);
}
);
};
layerId = "FF8CB9F1-2B98-444C-A502-96421F2531A8";
name = "Bold Italic";
paths = (
{
closed = 1;
nodes = (
"-137 931 OFFCURVE",
"-189 931 CURVE SMOOTH",
"-239 931 OFFCURVE",
"-273 896 OFFCURVE",
"-273 843 CURVE SMOOTH",
"-273 730 OFFCURVE",
"-99 650 OFFCURVE",
"1 650 CURVE SMOOTH",
"25 650 OFFCURVE",
"42 668 OFFCURVE",
"23 699 CURVE SMOOTH",
"-59 834 LINE SMOOTH",
"-100 902 OFFCURVE"
);
}
);
width = 0;
}
);
unicode = 0AC7;
},
{
glyphname = gjmAI;
lastChange = "2015-08-11 11:44:37 +0000";
layers = (
{
background = {
paths = (
{
closed = 1;
nodes = (
"-82 931 OFFCURVE",
"-104 891 OFFCURVE",
"-104 844 CURVE SMOOTH",
"-104 806 OFFCURVE",
"-89 764 OFFCURVE",
"-43 699 CURVE",
"-43 705 LINE",
"-110 770 LINE SMOOTH",
"-209 867 OFFCURVE",
"-236 886 OFFCURVE",
"-274 886 CURVE SMOOTH",
"-317 886 OFFCURVE",
"-345 861 OFFCURVE",
"-345 816 CURVE SMOOTH",
"-345 699 OFFCURVE",
"-132 653 OFFCURVE",
"-19 653 CURVE SMOOTH",
"10 653 OFFCURVE",
"24 661 OFFCURVE",
"30 689 CURVE SMOOTH",
"44 748 LINE SMOOTH",
"74 878 OFFCURVE",
"28 931 OFFCURVE",
"-27 931 CURVE SMOOTH"
);
}
);
};
layerId = "FF8CB9F1-2B98-444C-A502-96421F2531A8";
name = "Bold Italic";
paths = (
{
closed = 1;
nodes = (
"-32 931 OFFCURVE",
"-62 896 OFFCURVE",
"-62 844 CURVE SMOOTH",
"-62 806 OFFCURVE",
"-47 764 OFFCURVE",
"-1 699 CURVE",
"-1 705 LINE",
"-68 770 LINE SMOOTH",
"-167 867 OFFCURVE",
"-194 886 OFFCURVE",
"-232 886 CURVE SMOOTH",
"-275 886 OFFCURVE",
"-303 861 OFFCURVE",
"-303 816 CURVE SMOOTH",
"-303 699 OFFCURVE",
"-80 653 OFFCURVE",
"12 653 CURVE SMOOTH",
"47 653 OFFCURVE",
"89 716 OFFCURVE",
"89 810 CURVE SMOOTH",
"89 895 OFFCURVE",
"51 931 OFFCURVE",
"9 931 CURVE SMOOTH"
);
}
);
width = 0;
}
);
unicode = 0AC8;
},
{
color = 3;
glyphname = gjmO;
lastChange = "2015-08-11 11:44:37 +0000";
layers = (
{
layerId = "FF8CB9F1-2B98-444C-A502-96421F2531A8";
name = "Bold Italic";
paths = (
{
closed = 1;
nodes = (
"266 624 OFFCURVE",
"157 599 OFFCURVE",
"139 542 CURVE SMOOTH",
"56 279 LINE SMOOTH",
"34 213 OFFCURVE",
"26 172 OFFCURVE",
"26 137 CURVE SMOOTH",
"26 63 OFFCURVE",
"70 -3 OFFCURVE",
"187 -3 CURVE SMOOTH",
"291 -3 OFFCURVE",
"360 73 OFFCURVE",
"360 136 CURVE SMOOTH",
"360 149 OFFCURVE",
"356 163 OFFCURVE",
"347 163 CURVE SMOOTH",
"337 163 OFFCURVE",
"330 138 OFFCURVE",
"310 138 CURVE SMOOTH",
"296 138 OFFCURVE",
"289 150 OFFCURVE",
"296 169 CURVE SMOOTH",
"410 542 LINE SMOOTH",
"413 555 OFFCURVE",
"415 566 OFFCURVE",
"415 575 CURVE SMOOTH",
"415 599 OFFCURVE",
"406 624 OFFCURVE",
"341 624 CURVE SMOOTH"
);
},
{
closed = 1;
nodes = (
"227 931 OFFCURVE",
"174 931 CURVE SMOOTH",
"135 931 OFFCURVE",
"110 914 OFFCURVE",
"97 880 CURVE SMOOTH",
"51 761 OFFCURVE",
"254 650 OFFCURVE",
"366 650 CURVE SMOOTH",
"389 650 OFFCURVE",
"406 668 OFFCURVE",
"391 693 CURVE SMOOTH",
"305 834 LINE SMOOTH",
"263 906 OFFCURVE"
);
}
);
width = 380;
}
);
unicode = 0ACB;
},
{
color = 3;
glyphname = gjmAU;
lastChange = "2015-08-11 11:44:37 +0000";
layers = (
{
background = {
paths = (
{
closed = 1;
nodes = (
"293 931 OFFCURVE",
"264 910 OFFCURVE",
"255 866 CURVE SMOOTH",
"246 820 OFFCURVE",
"265 777 OFFCURVE",
"319 699 CURVE",
"319 705 LINE",
"254 770 LINE SMOOTH",
"156 867 OFFCURVE",
"125 886 OFFCURVE",
"88 886 CURVE SMOOTH",
"55 886 OFFCURVE",
"28 869 OFFCURVE",
"22 837 CURVE SMOOTH",
"-6 728 OFFCURVE",
"137 653 OFFCURVE",
"362 653 CURVE SMOOTH",
"384 653 OFFCURVE",
"394 661 OFFCURVE",
"398 678 CURVE SMOOTH",
"412 772 LINE SMOOTH",
"431 889 OFFCURVE",
"377 931 OFFCURVE",
"329 931 CURVE SMOOTH"
);
}
);
};
guideLines = (
{
angle = 73.0053;
position = "{410, 542}";
}
);
layerId = "FF8CB9F1-2B98-444C-A502-96421F2531A8";
name = "Bold Italic";
paths = (
{
closed = 1;
nodes = (
"266 624 OFFCURVE",
"157 599 OFFCURVE",
"139 542 CURVE SMOOTH",
"56 279 LINE SMOOTH",
"34 213 OFFCURVE",
"26 172 OFFCURVE",
"26 137 CURVE SMOOTH",
"26 63 OFFCURVE",
"70 -3 OFFCURVE",
"187 -3 CURVE SMOOTH",
"291 -3 OFFCURVE",
"360 73 OFFCURVE",
"360 136 CURVE SMOOTH",
"360 149 OFFCURVE",
"356 163 OFFCURVE",
"347 163 CURVE SMOOTH",
"337 163 OFFCURVE",
"330 138 OFFCURVE",
"310 138 CURVE SMOOTH",
"296 138 OFFCURVE",
"289 150 OFFCURVE",
"296 169 CURVE SMOOTH",
"410 542 LINE SMOOTH",
"413 555 OFFCURVE",
"415 566 OFFCURVE",
"415 575 CURVE SMOOTH",
"415 599 OFFCURVE",
"406 624 OFFCURVE",
"341 624 CURVE SMOOTH"
);
},
{
closed = 1;
nodes = (
"358 931 OFFCURVE",
"328 896 OFFCURVE",
"328 844 CURVE SMOOTH",
"328 806 OFFCURVE",
"343 764 OFFCURVE",
"389 699 CURVE",
"389 705 LINE",
"322 770 LINE SMOOTH",
"223 867 OFFCURVE",
"196 886 OFFCURVE",
"158 886 CURVE SMOOTH",
"115 886 OFFCURVE",
"87 861 OFFCURVE",
"87 816 CURVE SMOOTH",
"87 699 OFFCURVE",
"310 653 OFFCURVE",
"402 653 CURVE SMOOTH",
"437 653 OFFCURVE",
"479 716 OFFCURVE",
"479 810 CURVE SMOOTH",
"479 895 OFFCURVE",
"441 931 OFFCURVE",
"399 931 CURVE SMOOTH"
);
}
);
width = 380;
}
);
unicode = 0ACC;
},
{
glyphname = gjKA;
lastChange = "2015-08-11 11:44:37 +0000";
layers = (
{
associatedMasterId = "FF8CB9F1-2B98-444C-A502-96421F2531A8";
background = {
paths = (
{
closed = 1;
nodes = (
"-15 98 OFFCURVE",
"113 -9 OFFCURVE",
"339 -9 CURVE SMOOTH",
"545 -9 OFFCURVE",
"672 89 OFFCURVE",
"686 227 CURVE SMOOTH",
"703 382 OFFCURVE",
"430 448 OFFCURVE",
"440 540 CURVE SMOOTH",
"444 573 OFFCURVE",
"458 576 OFFCURVE",
"478 576 CURVE SMOOTH",
"499 576 OFFCURVE",
"566 565 OFFCURVE",
"568 569 CURVE SMOOTH",
"601 623 OFFCURVE",
"622 650 OFFCURVE",
"626 692 CURVE SMOOTH",
"632 746 OFFCURVE",
"517 839 OFFCURVE",
"413 839 CURVE SMOOTH",
"303 839 OFFCURVE",
"221 786 OFFCURVE",
"211 688 CURVE SMOOTH",
"191 504 OFFCURVE",
"518 435 OFFCURVE",
"510 355 CURVE SMOOTH",
"506 323 OFFCURVE",
"468 279 OFFCURVE",
"335 279 CURVE SMOOTH",
"201 279 OFFCURVE",
"143 331 OFFCURVE",
"139 398 CURVE SMOOTH",
"138 420 OFFCURVE",
"133 428 OFFCURVE",
"122 428 CURVE SMOOTH",
"91 428 OFFCURVE",
"12 355 OFFCURVE",
"-1 236 CURVE SMOOTH"
);
},
{
closed = 1;
nodes = (
"603 509 OFFCURVE",
"593 516 OFFCURVE",
"576 516 CURVE SMOOTH",
"522 516 OFFCURVE",
"458 463 OFFCURVE",
"268 463 CURVE SMOOTH",
"224 463 OFFCURVE",
"208 452 OFFCURVE",
"208 429 CURVE SMOOTH",
"208 397 OFFCURVE",
"252 349 OFFCURVE",
"331 349 CURVE SMOOTH",
"422 349 OFFCURVE",
"603 435 OFFCURVE",
"603 494 CURVE SMOOTH"
);
}
);
};
layerId = "B58D9CD6-DCBA-495E-A027-BBA101B63102";
name = "Bold Jun 2 15, 15:45";
paths = (
{
closed = 1;
nodes = (
"456 407 LINE",
"474 389 OFFCURVE",
"481 371 OFFCURVE",
"481 351 CURVE SMOOTH",
"481 317 OFFCURVE",
"449 279 OFFCURVE",
"340 279 CURVE SMOOTH",
"187 279 OFFCURVE",
"130 334 OFFCURVE",
"122 401 CURVE SMOOTH",
"119 422 OFFCURVE",
"113 428 OFFCURVE",
"102 428 CURVE SMOOTH",
"74 428 OFFCURVE",
"19 340 OFFCURVE",
"19 246 CURVE SMOOTH",
"19 102 OFFCURVE",
"136 -9 OFFCURVE",
"356 -9 CURVE SMOOTH",
"563 -9 OFFCURVE",
"686 102 OFFCURVE",
"686 223 CURVE SMOOTH",
"686 320 OFFCURVE",
"592 382 OFFCURVE",
"520 438 CURVE"
);
},
{
closed = 1;
nodes = (
"613 509 OFFCURVE",
"603 516 OFFCURVE",
"586 516 CURVE SMOOTH",
"513 516 OFFCURVE",
"451 456 OFFCURVE",
"258 456 CURVE SMOOTH",
"202 456 OFFCURVE",
"186 440 OFFCURVE",
"186 417 CURVE SMOOTH",
"186 381 OFFCURVE",
"235 357 OFFCURVE",
"321 357 CURVE SMOOTH",
"445 357 OFFCURVE",
"613 435 OFFCURVE",
"613 494 CURVE SMOOTH"
);
},
{
closed = 1;
nodes = (
"491 461 LINE",
"461 487 OFFCURVE",
"440 512 OFFCURVE",
"440 540 CURVE SMOOTH",
"440 563 OFFCURVE",
"456 576 OFFCURVE",
"476 576 CURVE SMOOTH",
"499 576 OFFCURVE",
"515 555 OFFCURVE",
"532 555 CURVE SMOOTH",
"549 555 OFFCURVE",
"567 584 OFFCURVE",
"567 652 CURVE SMOOTH",
"567 766 OFFCURVE",
"478 839 OFFCURVE",
"381 839 CURVE SMOOTH",
"284 839 OFFCURVE",
"211 772 OFFCURVE",
"211 672 CURVE SMOOTH",
"211 573 OFFCURVE",
"288 500 OFFCURVE",
"427 446 CURVE"
);
}
);
width = 757.002;
},
{
associatedMasterId = "FF8CB9F1-2B98-444C-A502-96421F2531A8";
background = {
paths = (
{
closed = 1;
nodes = (
"30 111 OFFCURVE",
"87 -9 OFFCURVE",
"325 -9 CURVE SMOOTH",
"613 -9 OFFCURVE",
"723 124 OFFCURVE",
"718 262 CURVE SMOOTH",
"714 379 OFFCURVE",
"598 411 OFFCURVE",
"510 449 CURVE SMOOTH",
"422 487 OFFCURVE",
"399 493 OFFCURVE",
"399 513 CURVE SMOOTH",
"399 553 OFFCURVE",
"486 576 OFFCURVE",
"561 576 CURVE SMOOTH",
"616 576 OFFCURVE",
"636 552 OFFCURVE",
"659 533 CURVE SMOOTH",
"684 513 OFFCURVE",
"718 586 OFFCURVE",
"718 664 CURVE SMOOTH",
"718 766 OFFCURVE",
"638 839 OFFCURVE",
"530 839 CURVE SMOOTH",
"347 839 OFFCURVE",
"171 751 OFFCURVE",
"178 595 CURVE SMOOTH",
"182 500 OFFCURVE",
"228 480 OFFCURVE",
"357 413 CURVE SMOOTH",
"439 371 OFFCURVE",
"447 355 OFFCURVE",
"448 333 CURVE SMOOTH",
"449 301 OFFCURVE",
"412 279 OFFCURVE",
"332 279 CURVE SMOOTH",
"247 279 OFFCURVE",
"202 336 OFFCURVE",
"201 356 CURVE SMOOTH",
"200 376 OFFCURVE",
"200 388 OFFCURVE",
"172 388 CURVE SMOOTH",
"144 388 OFFCURVE",
"30 333 OFFCURVE",
"30 190 CURVE SMOOTH"
);
},
{
closed = 1;
nodes = (
"583 526 LINE SMOOTH",
"574 538 OFFCURVE",
"560 543 OFFCURVE",
"546 535 CURVE SMOOTH",
"267 387 LINE SMOOTH",
"255 381 OFFCURVE",
"251 365 OFFCURVE",
"258 354 CURVE SMOOTH",
"271 332 LINE SMOOTH",
"279 318 OFFCURVE",
"295 314 OFFCURVE",
"307 321 CURVE SMOOTH",
"587 470 LINE SMOOTH",
"598 477 OFFCURVE",
"603 491 OFFCURVE",
"595 504 CURVE SMOOTH"
);
}
);
};
guideLines = (
{
angle = 90;
position = "{374, 215}";
}
);
layerId = "CE8E40B7-9A06-46E7-9AD8-96ED10AA5577";
name = "Bold Italic Jul 9 15, 15:11 Jul 9 15, 15:23";
paths = (
{
closed = 1;
nodes = (
"336 839 OFFCURVE",
"204 746 OFFCURVE",
"204 612 CURVE SMOOTH",
"204 533 OFFCURVE",
"247 494 OFFCURVE",
"368 413 CURVE SMOOTH",
"431 371 OFFCURVE",
"447 334 OFFCURVE",
"448 312 CURVE SMOOTH",
"449 280 OFFCURVE",
"412 250 OFFCURVE",
"332 250 CURVE SMOOTH",
"187 250 OFFCURVE",
"140 314 OFFCURVE",
"140 356 CURVE SMOOTH",
"140 376 OFFCURVE",
"139 388 OFFCURVE",
"124 388 CURVE SMOOTH",
"98 388 OFFCURVE",
"30 324 OFFCURVE",
"30 215 CURVE SMOOTH",
"30 84 OFFCURVE",
"162 -9 OFFCURVE",
"374 -9 CURVE SMOOTH",
"575 -9 OFFCURVE",
"718 90 OFFCURVE",
"718 227 CURVE SMOOTH",
"718 320 OFFCURVE",
"635 362 OFFCURVE",
"515 428 CURVE SMOOTH",
"442 468 OFFCURVE",
"425 495 OFFCURVE",
"425 515 CURVE SMOOTH",
"425 555 OFFCURVE",
"461 598 OFFCURVE",
"536 598 CURVE SMOOTH",
"618 598 OFFCURVE",
"668 575 OFFCURVE",
"691 556 CURVE SMOOTH",
"716 536 OFFCURVE",
"750 586 OFFCURVE",
"750 664 CURVE SMOOTH",
"750 766 OFFCURVE",
"653 839 OFFCURVE",
"519 839 CURVE SMOOTH"
);
},
{
closed = 1;
nodes = (
"434 445 LINE",
"233 451 LINE SMOOTH",
"192 452 OFFCURVE",
"176 422 OFFCURVE",
"197 397 CURVE SMOOTH",
"253 330 LINE SMOOTH",
"270 309 OFFCURVE",
"304 284 OFFCURVE",
"340 319 CURVE SMOOTH",
"456 431 LINE",
"638 433 LINE SMOOTH",
"660 433 OFFCURVE",
"677 467 OFFCURVE",
"659 484 CURVE SMOOTH",
"599 543 LINE SMOOTH",
"583 559 OFFCURVE",
"543 568 OFFCURVE",
"526 548 CURVE SMOOTH"
);
}
);
width = 748;
},
{
associatedMasterId = "FF8CB9F1-2B98-444C-A502-96421F2531A8";
background = {
paths = (
{
closed = 1;
nodes = (
"30 111 OFFCURVE",
"87 -9 OFFCURVE",
"325 -9 CURVE SMOOTH",
"613 -9 OFFCURVE",
"723 124 OFFCURVE",
"718 262 CURVE SMOOTH",
"714 379 OFFCURVE",
"598 411 OFFCURVE",
"510 449 CURVE SMOOTH",
"422 487 OFFCURVE",
"399 493 OFFCURVE",
"399 513 CURVE SMOOTH",
"399 553 OFFCURVE",
"486 576 OFFCURVE",
"561 576 CURVE SMOOTH",
"616 576 OFFCURVE",
"636 552 OFFCURVE",
"659 533 CURVE SMOOTH",
"684 513 OFFCURVE",
"718 586 OFFCURVE",
"718 664 CURVE SMOOTH",
"718 766 OFFCURVE",
"638 839 OFFCURVE",
"530 839 CURVE SMOOTH",
"347 839 OFFCURVE",
"171 751 OFFCURVE",
"178 595 CURVE SMOOTH",
"182 500 OFFCURVE",
"228 480 OFFCURVE",
"357 413 CURVE SMOOTH",
"439 371 OFFCURVE",
"447 355 OFFCURVE",
"448 333 CURVE SMOOTH",
"449 301 OFFCURVE",
"412 279 OFFCURVE",
"332 279 CURVE SMOOTH",
"247 279 OFFCURVE",
"202 336 OFFCURVE",
"201 356 CURVE SMOOTH",
"200 376 OFFCURVE",
"200 388 OFFCURVE",
"172 388 CURVE SMOOTH",
"144 388 OFFCURVE",
"30 333 OFFCURVE",
"30 190 CURVE SMOOTH"
);
},
{
closed = 1;
nodes = (
"583 526 LINE SMOOTH",
"574 538 OFFCURVE",
"560 543 OFFCURVE",
"546 535 CURVE SMOOTH",
"267 387 LINE SMOOTH",
"255 381 OFFCURVE",
"251 365 OFFCURVE",
"258 354 CURVE SMOOTH",
"271 332 LINE SMOOTH",
"279 318 OFFCURVE",
"295 314 OFFCURVE",
"307 321 CURVE SMOOTH",
"587 470 LINE SMOOTH",
"598 477 OFFCURVE",
"603 491 OFFCURVE",
"595 504 CURVE SMOOTH"
);
}
);
};
guideLines = (
{
angle = 90;
position = "{374, 215}";
}
);
layerId = "1953A51A-563D-4BD2-8CF5-0C5EB2DDE6DD";
name = "Bold Italic Jul 9 15, 15:11 Jul 9 15, 15:28";
paths = (
{
closed = 1;
nodes = (
"336 839 OFFCURVE",
"204 746 OFFCURVE",
"204 612 CURVE SMOOTH",
"204 533 OFFCURVE",
"247 494 OFFCURVE",
"368 413 CURVE SMOOTH",
"431 371 OFFCURVE",
"447 334 OFFCURVE",
"448 312 CURVE SMOOTH",
"449 280 OFFCURVE",
"412 250 OFFCURVE",
"332 250 CURVE SMOOTH",
"134 250 OFFCURVE",
"144 338 OFFCURVE",
"110 338 CURVE SMOOTH",
"84 338 OFFCURVE",
"30 274 OFFCURVE",
"30 208 CURVE SMOOTH",
"30 77 OFFCURVE",
"162 -9 OFFCURVE",
"374 -9 CURVE SMOOTH",
"575 -9 OFFCURVE",
"718 90 OFFCURVE",
"718 227 CURVE SMOOTH",
"718 320 OFFCURVE",
"635 362 OFFCURVE",
"515 428 CURVE SMOOTH",
"442 468 OFFCURVE",
"425 495 OFFCURVE",
"425 515 CURVE SMOOTH",
"425 555 OFFCURVE",
"461 598 OFFCURVE",
"564 598 CURVE SMOOTH",
"618 598 OFFCURVE",
"668 575 OFFCURVE",
"691 556 CURVE SMOOTH",
"716 536 OFFCURVE",
"750 586 OFFCURVE",
"750 664 CURVE SMOOTH",
"750 766 OFFCURVE",
"653 839 OFFCURVE",
"519 839 CURVE SMOOTH"
);
},
{
closed = 1;
nodes = (
"390 445 LINE",
"222 445 LINE SMOOTH",
"181 445 OFFCURVE",
"149 413 OFFCURVE",
"172 388 CURVE SMOOTH",
"229 325 LINE SMOOTH",
"248 304 OFFCURVE",
"274 286 OFFCURVE",
"316 314 CURVE SMOOTH",
"456 406 LINE",
"638 433 LINE SMOOTH",
"660 436 OFFCURVE",
"677 467 OFFCURVE",
"659 484 CURVE SMOOTH",
"599 543 LINE SMOOTH",
"583 559 OFFCURVE",
"547 564 OFFCURVE",
"526 548 CURVE SMOOTH"
);
}
);
width = 748;
},
{
associatedMasterId = "FF8CB9F1-2B98-444C-A502-96421F2531A8";
background = {
paths = (
{
closed = 1;
nodes = (
"30 111 OFFCURVE",
"87 -9 OFFCURVE",
"325 -9 CURVE SMOOTH",
"613 -9 OFFCURVE",
"723 124 OFFCURVE",
"718 262 CURVE SMOOTH",
"714 379 OFFCURVE",
"598 411 OFFCURVE",
"510 449 CURVE SMOOTH",
"422 487 OFFCURVE",
"399 493 OFFCURVE",
"399 513 CURVE SMOOTH",
"399 553 OFFCURVE",
"486 576 OFFCURVE",
"561 576 CURVE SMOOTH",
"616 576 OFFCURVE",
"636 552 OFFCURVE",
"659 533 CURVE SMOOTH",
"684 513 OFFCURVE",
"718 586 OFFCURVE",
"718 664 CURVE SMOOTH",
"718 766 OFFCURVE",
"638 839 OFFCURVE",
"530 839 CURVE SMOOTH",
"347 839 OFFCURVE",
"171 751 OFFCURVE",
"178 595 CURVE SMOOTH",
"182 500 OFFCURVE",
"228 480 OFFCURVE",
"357 413 CURVE SMOOTH",
"439 371 OFFCURVE",
"447 355 OFFCURVE",
"448 333 CURVE SMOOTH",
"449 301 OFFCURVE",
"412 279 OFFCURVE",
"332 279 CURVE SMOOTH",
"247 279 OFFCURVE",
"202 336 OFFCURVE",
"201 356 CURVE SMOOTH",
"200 376 OFFCURVE",
"200 388 OFFCURVE",
"172 388 CURVE SMOOTH",
"144 388 OFFCURVE",
"30 333 OFFCURVE",
"30 190 CURVE SMOOTH"
);
},
{
closed = 1;
nodes = (
"583 526 LINE SMOOTH",
"574 538 OFFCURVE",
"560 543 OFFCURVE",
"546 535 CURVE SMOOTH",
"267 387 LINE SMOOTH",
"255 381 OFFCURVE",
"251 365 OFFCURVE",
"258 354 CURVE SMOOTH",
"271 332 LINE SMOOTH",
"279 318 OFFCURVE",
"295 314 OFFCURVE",
"307 321 CURVE SMOOTH",
"587 470 LINE SMOOTH",
"598 477 OFFCURVE",
"603 491 OFFCURVE",
"595 504 CURVE SMOOTH"
);
}
);
};
guideLines = (
{
angle = 90;
position = "{374, 215}";
}
);
layerId = "4E8B1FF7-4D06-43EA-84A2-2D7F9298D747";
name = "Bold Italic Jul 9 15, 15:28";
paths = (
{
closed = 1;
nodes = (
"304 839 OFFCURVE",
"178 746 OFFCURVE",
"178 612 CURVE SMOOTH",
"178 533 OFFCURVE",
"228 480 OFFCURVE",
"357 413 CURVE SMOOTH",
"439 371 OFFCURVE",
"447 355 OFFCURVE",
"448 333 CURVE SMOOTH",
"449 301 OFFCURVE",
"412 279 OFFCURVE",
"332 279 CURVE SMOOTH",
"247 279 OFFCURVE",
"202 336 OFFCURVE",
"201 356 CURVE SMOOTH",
"200 376 OFFCURVE",
"200 388 OFFCURVE",
"172 388 CURVE SMOOTH",
"144 388 OFFCURVE",
"30 346 OFFCURVE",
"30 215 CURVE SMOOTH",
"30 84 OFFCURVE",
"173 -9 OFFCURVE",
"374 -9 CURVE SMOOTH",
"575 -9 OFFCURVE",
"718 84 OFFCURVE",
"718 215 CURVE SMOOTH",
"718 344 OFFCURVE",
"598 411 OFFCURVE",
"510 449 CURVE SMOOTH",
"422 487 OFFCURVE",
"399 493 OFFCURVE",
"399 513 CURVE SMOOTH",
"399 553 OFFCURVE",
"486 576 OFFCURVE",
"561 576 CURVE SMOOTH",
"616 576 OFFCURVE",
"636 552 OFFCURVE",
"659 533 CURVE SMOOTH",
"684 513 OFFCURVE",
"718 586 OFFCURVE",
"718 664 CURVE SMOOTH",
"718 766 OFFCURVE",
"621 839 OFFCURVE",
"487 839 CURVE SMOOTH"
);
},
{
closed = 1;
nodes = (
"267 387 LINE SMOOTH",
"255 381 OFFCURVE",
"251 365 OFFCURVE",
"258 354 CURVE SMOOTH",
"271 332 LINE SMOOTH",
"279 318 OFFCURVE",
"295 314 OFFCURVE",
"307 321 CURVE SMOOTH",
"587 470 LINE SMOOTH",
"598 477 OFFCURVE",
"603 491 OFFCURVE",
"595 504 CURVE SMOOTH",
"583 526 LINE SMOOTH",
"574 538 OFFCURVE",
"560 543 OFFCURVE",
"546 535 CURVE SMOOTH"
);
}
);
width = 748;
},
{
background = {
paths = (
{
closed = 1;
nodes = (
"551 409 LINE",
"595 383 OFFCURVE",
"619 359 OFFCURVE",
"617 321 CURVE SMOOTH",
"615 281 OFFCURVE",
"582 250 OFFCURVE",
"512 250 CURVE SMOOTH",
"348 250 OFFCURVE",
"320 338 OFFCURVE",
"290 338 CURVE SMOOTH",
"265 338 OFFCURVE",
"209 285 OFFCURVE",
"204 208 CURVE SMOOTH",
"198 83 OFFCURVE",
"338 -9 OFFCURVE",
"536 -9 CURVE SMOOTH",
"748 -9 OFFCURVE",
"887 86 OFFCURVE",
"894 217 CURVE SMOOTH",
"899 317 OFFCURVE",
"789 391 OFFCURVE",
"661 434 CURVE"
);
},
{
closed = 1;
nodes = (
"751 543 OFFCURVE",
"729 539 OFFCURVE",
"690 520 CURVE SMOOTH",
"588 469 LINE",
"383 469 LINE SMOOTH",
"335 469 OFFCURVE",
"323 445 OFFCURVE",
"322 426 CURVE SMOOTH",
"319 383 OFFCURVE",
"405 333 OFFCURVE",
"465 333 CURVE SMOOTH",
"492 333 OFFCURVE",
"527 348 OFFCURVE",
"650 411 CURVE",
"802 411 LINE SMOOTH",
"859 411 OFFCURVE",
"869 433 OFFCURVE",
"870 452 CURVE SMOOTH",
"872 488 OFFCURVE",
"811 543 OFFCURVE",
"769 543 CURVE SMOOTH"
);
},
{
closed = 1;
nodes = (
"472 839 OFFCURVE",
"401 720 OFFCURVE",
"401 618 CURVE SMOOTH",
"401 546 OFFCURVE",
"462 474 OFFCURVE",
"538 437 CURVE",
"645 462 LINE",
"632 473 OFFCURVE",
"615 492 OFFCURVE",
"616 517 CURVE SMOOTH",
"619 567 OFFCURVE",
"659 598 OFFCURVE",
"726 598 CURVE SMOOTH",
"820 598 OFFCURVE",
"863 550 OFFCURVE",
"902 550 CURVE SMOOTH",
"917 550 OFFCURVE",
"938 568 OFFCURVE",
"938 610 CURVE SMOOTH",
"938 718 OFFCURVE",
"840 839 OFFCURVE",
"664 839 CURVE SMOOTH"
);
}
);
};
layerId = "FF8CB9F1-2B98-444C-A502-96421F2531A8";
name = "Bold Italic";
paths = (
{
closed = 1;
nodes = (
"271 307 LINE",
"305 287 OFFCURVE",
"322 270 OFFCURVE",
"319 241 CURVE SMOOTH",
"319 212 OFFCURVE",
"295 189 OFFCURVE",
"243 189 CURVE SMOOTH",
"122 189 OFFCURVE",
"101 254 OFFCURVE",
"77 254 CURVE SMOOTH",
"61 254 OFFCURVE",
"20 215 OFFCURVE",
"15 158 CURVE SMOOTH",
"11 66 OFFCURVE",
"115 -3 OFFCURVE",
"261 -3 CURVE SMOOTH",
"417 -3 OFFCURVE",
"519 68 OFFCURVE",
"525 165 CURVE SMOOTH",
"527 238 OFFCURVE",
"448 293 OFFCURVE",
"353 324 CURVE"
);
},
{
closed = 1;
nodes = (
"419 409 OFFCURVE",
"404 405 OFFCURVE",
"373 391 CURVE SMOOTH",
"299 353 LINE",
"147 353 LINE SMOOTH",
"113 353 OFFCURVE",
"103 335 OFFCURVE",
"103 320 CURVE SMOOTH",
"101 289 OFFCURVE",
"165 253 OFFCURVE",
"209 253 CURVE SMOOTH",
"227 253 OFFCURVE",
"254 264 OFFCURVE",
"345 310 CURVE",
"457 310 LINE SMOOTH",
"499 310 OFFCURVE",
"506 325 OFFCURVE",
"507 340 CURVE SMOOTH",
"509 367 OFFCURVE",
"464 409 OFFCURVE",
"432 409 CURVE SMOOTH"
);
},
{
closed = 1;
nodes = (
"221 633 OFFCURVE",
"161 556 OFFCURVE",
"161 476 CURVE SMOOTH",
"161 417 OFFCURVE",
"207 363 OFFCURVE",
"263 337 CURVE",
"341 356 LINE",
"330 363 OFFCURVE",
"319 376 OFFCURVE",
"319 397 CURVE SMOOTH",
"322 432 OFFCURVE",
"352 456 OFFCURVE",
"401 456 CURVE SMOOTH",
"470 456 OFFCURVE",
"503 420 OFFCURVE",
"530 420 CURVE SMOOTH",
"542 420 OFFCURVE",
"558 432 OFFCURVE",
"558 465 CURVE SMOOTH",
"558 545 OFFCURVE",
"485 633 OFFCURVE",
"340 633 CURVE SMOOTH"
);
}
);
width = 539;
},
{
associatedMasterId = "FF8CB9F1-2B98-444C-A502-96421F2531A8";
background = {
paths = (
{
closed = 1;
nodes = (
"336 839 OFFCURVE",
"204 746 OFFCURVE",
"204 612 CURVE SMOOTH",
"204 533 OFFCURVE",
"247 494 OFFCURVE",
"368 413 CURVE SMOOTH",
"431 371 OFFCURVE",
"447 334 OFFCURVE",
"448 312 CURVE SMOOTH",
"449 280 OFFCURVE",
"412 250 OFFCURVE",
"332 250 CURVE SMOOTH",
"134 250 OFFCURVE",
"144 338 OFFCURVE",
"110 338 CURVE SMOOTH",
"84 338 OFFCURVE",
"30 274 OFFCURVE",
"30 208 CURVE SMOOTH",
"30 77 OFFCURVE",
"162 -9 OFFCURVE",
"374 -9 CURVE SMOOTH",
"575 -9 OFFCURVE",
"718 90 OFFCURVE",
"718 227 CURVE SMOOTH",
"718 320 OFFCURVE",
"635 362 OFFCURVE",
"515 428 CURVE SMOOTH",
"442 468 OFFCURVE",
"425 495 OFFCURVE",
"425 515 CURVE SMOOTH",
"425 555 OFFCURVE",
"461 598 OFFCURVE",
"564 598 CURVE SMOOTH",
"618 598 OFFCURVE",
"668 575 OFFCURVE",
"691 556 CURVE SMOOTH",
"716 536 OFFCURVE",
"750 586 OFFCURVE",
"750 664 CURVE SMOOTH",
"750 766 OFFCURVE",
"653 839 OFFCURVE",
"519 839 CURVE SMOOTH"
);
},
{
closed = 1;
nodes = (
"390 445 LINE",
"222 445 LINE SMOOTH",
"181 445 OFFCURVE",
"149 413 OFFCURVE",
"172 388 CURVE SMOOTH",
"229 325 LINE SMOOTH",
"248 304 OFFCURVE",
"274 286 OFFCURVE",
"316 314 CURVE SMOOTH",
"456 406 LINE",
"638 433 LINE SMOOTH",
"660 436 OFFCURVE",
"677 467 OFFCURVE",
"659 484 CURVE SMOOTH",
"599 543 LINE SMOOTH",
"583 559 OFFCURVE",
"547 564 OFFCURVE",
"526 548 CURVE SMOOTH"
);
}
);
};
guideLines = (
{
angle = 90;
position = "{374, 215}";
}
);
layerId = "7DC2417D-22EE-4D05-9A29-EFD596D2B54C";
name = "Bold Italic Jul 9 15, 15:59";
paths = (
{
closed = 1;
nodes = (
"481 415 LINE",
"429 453 OFFCURVE",
"397 487 OFFCURVE",
"397 527 CURVE SMOOTH",
"397 567 OFFCURVE",
"435 598 OFFCURVE",
"513 598 CURVE SMOOTH",
"573 598 OFFCURVE",
"623 581 OFFCURVE",
"663 556 CURVE SMOOTH",
"689 540 OFFCURVE",
"722 586 OFFCURVE",
"722 664 CURVE SMOOTH",
"722 766 OFFCURVE",
"625 839 OFFCURVE",
"491 839 CURVE SMOOTH",
"308 839 OFFCURVE",
"176 746 OFFCURVE",
"176 612 CURVE SMOOTH",
"176 528 OFFCURVE",
"224 490 OFFCURVE",
"362 398 CURVE"
);
},
{
closed = 1;
nodes = (
"362 469 LINE",
"166 469 LINE SMOOTH",
"118 469 OFFCURVE",
"107 445 OFFCURVE",
"107 426 CURVE SMOOTH",
"107 383 OFFCURVE",
"195 333 OFFCURVE",
"255 333 CURVE SMOOTH",
"283 333 OFFCURVE",
"319 349 OFFCURVE",
"450 418 CURVE"
);
},
{
closed = 1;
nodes = (
"432 411 LINE",
"588 411 LINE SMOOTH",
"645 411 OFFCURVE",
"654 433 OFFCURVE",
"654 452 CURVE SMOOTH",
"654 488 OFFCURVE",
"590 543 OFFCURVE",
"548 543 CURVE SMOOTH",
"530 543 OFFCURVE",
"509 539 OFFCURVE",
"471 520 CURVE SMOOTH",
"389 478 LINE"
);
},
{
closed = 1;
nodes = (
"319 426 LINE",
"377 392 OFFCURVE",
"407 359 OFFCURVE",
"408 334 CURVE SMOOTH",
"409 302 OFFCURVE",
"384 250 OFFCURVE",
"279 250 CURVE SMOOTH",
"143 250 OFFCURVE",
"110 338 OFFCURVE",
"70 338 CURVE SMOOTH",
"44 338 OFFCURVE",
"2 268 OFFCURVE",
"2 208 CURVE SMOOTH",
"2 77 OFFCURVE",
"124 -9 OFFCURVE",
"346 -9 CURVE SMOOTH",
"556 -9 OFFCURVE",
"690 86 OFFCURVE",
"690 217 CURVE SMOOTH",
"690 317 OFFCURVE",
"577 391 OFFCURVE",
"446 434 CURVE"
);
}
);
width = 748;
}
);
unicode = 0A95;
},
{
color = 6;
glyphname = gjKHA;
lastChange = "2015-08-11 11:44:37 +0000";
layers = (
{
background = {
paths = (
{
closed = 1;
nodes = (
"375 839 OFFCURVE",
"283 737 OFFCURVE",
"283 652 CURVE SMOOTH",
"283 634 OFFCURVE",
"289 616 OFFCURVE",
"300 616 CURVE SMOOTH",
"313 616 OFFCURVE",
"320 648 OFFCURVE",
"350 648 CURVE SMOOTH",
"363 648 OFFCURVE",
"372 640 OFFCURVE",
"372 624 CURVE SMOOTH",
"372 619 OFFCURVE",
"370 613 OFFCURVE",
"368 606 CURVE SMOOTH",
"334 506 LINE SMOOTH",
"317 457 OFFCURVE",
"308 413 OFFCURVE",
"308 372 CURVE SMOOTH",
"308 252 OFFCURVE",
"380 170 OFFCURVE",
"560 170 CURVE SMOOTH",
"769 170 OFFCURVE",
"1004 361 OFFCURVE",
"1004 566 CURVE SMOOTH",
"1004 636 OFFCURVE",
"966 676 OFFCURVE",
"904 676 CURVE SMOOTH",
"844 676 OFFCURVE",
"781 632 OFFCURVE",
"781 535 CURVE SMOOTH",
"781 488 OFFCURVE",
"800 460 OFFCURVE",
"816 436 CURVE",
"790 401 OFFCURVE",
"759 382 OFFCURVE",
"720 382 CURVE SMOOTH",
"681 382 OFFCURVE",
"664 413 OFFCURVE",
"682 454 CURVE SMOOTH",
"713 525 LINE SMOOTH",
"731 566 OFFCURVE",
"739 610 OFFCURVE",
"739 654 CURVE SMOOTH",
"739 759 OFFCURVE",
"668 839 OFFCURVE",
"516 839 CURVE SMOOTH"
);
},
{
closed = 1;
nodes = (
"1061 490 OFFCURVE",
"1029 470 OFFCURVE",
"985 470 CURVE",
"831 410 LINE",
"904 351 OFFCURVE",
"988 318 OFFCURVE",
"1079 318 CURVE",
"1079 548 LINE"
);
}
);
};
layerId = "FF8CB9F1-2B98-444C-A502-96421F2531A8";
leftMetricsKey = gjPA;
rightMetricsKey = gjmAA;
name = "Bold Italic";
paths = (
{
closed = 1;
nodes = (
"125 633 OFFCURVE",
"59 559 OFFCURVE",
"59 496 CURVE SMOOTH",
"59 481 OFFCURVE",
"63 468 OFFCURVE",
"72 468 CURVE SMOOTH",
"80 468 OFFCURVE",
"85 493 OFFCURVE",
"108 493 CURVE SMOOTH",
"118 493 OFFCURVE",
"124 487 OFFCURVE",
"124 474 CURVE SMOOTH",
"124 471 OFFCURVE",
"123 466 OFFCURVE",
"122 462 CURVE SMOOTH",
"92 373 LINE SMOOTH",
"79 337 OFFCURVE",
"73 306 OFFCURVE",
"73 274 CURVE SMOOTH",
"73 186 OFFCURVE",
"125 125 OFFCURVE",
"260 125 CURVE SMOOTH",
"413 125 OFFCURVE",
"588 267 OFFCURVE",
"588 418 CURVE SMOOTH",
"588 470 OFFCURVE",
"559 500 OFFCURVE",
"514 500 CURVE SMOOTH",
"468 500 OFFCURVE",
"422 466 OFFCURVE",
"422 397 CURVE SMOOTH",
"422 361 OFFCURVE",
"436 340 OFFCURVE",
"448 322 CURVE",
"428 297 OFFCURVE",
"406 282 OFFCURVE",
"376 282 CURVE SMOOTH",
"349 282 OFFCURVE",
"337 305 OFFCURVE",
"349 336 CURVE SMOOTH",
"375 402 LINE SMOOTH",
"389 432 OFFCURVE",
"397 465 OFFCURVE",
"397 497 CURVE SMOOTH",
"397 572 OFFCURVE",
"339 633 OFFCURVE",
"230 633 CURVE SMOOTH"
);
},
{
closed = 1;
nodes = (
"629 362 OFFCURVE",
"605 348 OFFCURVE",
"573 348 CURVE",
"460 304 LINE",
"514 261 OFFCURVE",
"575 235 OFFCURVE",
"643 235 CURVE",
"643 406 LINE"
);
},
{
closed = 1;
nodes = (
"812 624 OFFCURVE",
"703 599 OFFCURVE",
"684 542 CURVE SMOOTH",
"602 279 LINE SMOOTH",
"580 213 OFFCURVE",
"570 172 OFFCURVE",
"570 137 CURVE SMOOTH",
"570 63 OFFCURVE",
"614 -3 OFFCURVE",
"732 -3 CURVE SMOOTH",
"836 -3 OFFCURVE",
"906 73 OFFCURVE",
"906 136 CURVE SMOOTH",
"906 149 OFFCURVE",
"901 163 OFFCURVE",
"893 163 CURVE SMOOTH",
"883 163 OFFCURVE",
"876 138 OFFCURVE",
"855 138 CURVE SMOOTH",
"842 138 OFFCURVE",
"835 150 OFFCURVE",
"842 169 CURVE SMOOTH",
"955 542 LINE SMOOTH",
"959 555 OFFCURVE",
"961 566 OFFCURVE",
"961 575 CURVE SMOOTH",
"961 599 OFFCURVE",
"952 624 OFFCURVE",
"886 624 CURVE SMOOTH"
);
}
);
width = 927;
}
);
leftMetricsKey = gjPA;
rightMetricsKey = "pa-gujarati";
unicode = 0A96;
},
{
color = 6;
glyphname = gjGA;
lastChange = "2015-08-11 11:44:37 +0000";
layers = (
{
background = {
paths = (
{
closed = 1;
nodes = (
"1053 844 OFFCURVE",
"905 809 OFFCURVE",
"881 733 CURVE SMOOTH",
"769 379 LINE SMOOTH",
"740 287 OFFCURVE",
"727 234 OFFCURVE",
"727 186 CURVE SMOOTH",
"727 85 OFFCURVE",
"786 -4 OFFCURVE",
"946 -4 CURVE SMOOTH",
"1086 -4 OFFCURVE",
"1179 98 OFFCURVE",
"1179 184 CURVE SMOOTH",
"1179 202 OFFCURVE",
"1173 220 OFFCURVE",
"1162 220 CURVE SMOOTH",
"1149 220 OFFCURVE",
"1141 187 OFFCURVE",
"1111 187 CURVE SMOOTH",
"1093 187 OFFCURVE",
"1085 203 OFFCURVE",
"1093 229 CURVE SMOOTH",
"1247 733 LINE SMOOTH",
"1252 750 OFFCURVE",
"1255 766 OFFCURVE",
"1255 779 CURVE SMOOTH",
"1255 809 OFFCURVE",
"1242 844 OFFCURVE",
"1154 844 CURVE SMOOTH"
);
},
{
closed = 1;
nodes = (
"376 853 OFFCURVE",
"309 780 OFFCURVE",
"309 687 CURVE SMOOTH",
"309 670 OFFCURVE",
"315 652 OFFCURVE",
"326 652 CURVE SMOOTH",
"339 652 OFFCURVE",
"351 684 OFFCURVE",
"376 684 CURVE SMOOTH",
"392 684 OFFCURVE",
"401 668 OFFCURVE",
"401 634 CURVE SMOOTH",
"401 551 OFFCURVE",
"355 514 OFFCURVE",
"313 514 CURVE SMOOTH",
"283 514 OFFCURVE",
"277 547 OFFCURVE",
"261 547 CURVE SMOOTH",
"253 547 OFFCURVE",
"244 537 OFFCURVE",
"244 511 CURVE SMOOTH",
"244 395 OFFCURVE",
"339 323 OFFCURVE",
"462 323 CURVE SMOOTH",
"621 323 OFFCURVE",
"756 432 OFFCURVE",
"756 626 CURVE SMOOTH",
"756 758 OFFCURVE",
"672 853 OFFCURVE",
"509 853 CURVE SMOOTH"
);
},
{
closed = 1;
nodes = (
"395 857 OFFCURVE",
"309 774 OFFCURVE",
"309 691 CURVE SMOOTH",
"309 674 OFFCURVE",
"315 656 OFFCURVE",
"326 656 CURVE SMOOTH",
"341 656 OFFCURVE",
"351 688 OFFCURVE",
"376 688 CURVE SMOOTH",
"392 688 OFFCURVE",
"401 672 OFFCURVE",
"401 642 CURVE SMOOTH",
"401 551 OFFCURVE",
"354 478 OFFCURVE",
"308 478 CURVE SMOOTH",
"275 478 OFFCURVE",
"272 511 OFFCURVE",
"256 511 CURVE SMOOTH",
"248 511 OFFCURVE",
"239 495 OFFCURVE",
"239 468 CURVE SMOOTH",
"239 362 OFFCURVE",
"330 287 OFFCURVE",
"467 287 CURVE SMOOTH",
"616 287 OFFCURVE",
"751 406 OFFCURVE",
"751 613 CURVE SMOOTH",
"751 747 OFFCURVE",
"670 857 OFFCURVE",
"515 857 CURVE SMOOTH"
);
}
);
};
layerId = "FF8CB9F1-2B98-444C-A502-96421F2531A8";
rightMetricsKey = gjmAA;
name = "Bold Italic";
paths = (
{
closed = 1;
nodes = (
"137 633 OFFCURVE",
"73 572 OFFCURVE",
"73 511 CURVE SMOOTH",
"73 499 OFFCURVE",
"77 485 OFFCURVE",
"85 485 CURVE SMOOTH",
"97 485 OFFCURVE",
"105 509 OFFCURVE",
"123 509 CURVE SMOOTH",
"134 509 OFFCURVE",
"141 497 OFFCURVE",
"141 474 CURVE SMOOTH",
"141 409 OFFCURVE",
"107 339 OFFCURVE",
"68 339 CURVE SMOOTH",
"43 339 OFFCURVE",
"41 363 OFFCURVE",
"28 363 CURVE SMOOTH",
"24 363 OFFCURVE",
"17 352 OFFCURVE",
"17 330 CURVE SMOOTH",
"17 253 OFFCURVE",
"83 198 OFFCURVE",
"185 198 CURVE SMOOTH",
"310 198 OFFCURVE",
"401 300 OFFCURVE",
"401 454 CURVE SMOOTH",
"401 553 OFFCURVE",
"340 633 OFFCURVE",
"225 633 CURVE SMOOTH"
);
},
{
closed = 1;
nodes = (
"623 624 OFFCURVE",
"514 599 OFFCURVE",
"497 542 CURVE SMOOTH",
"413 279 LINE SMOOTH",
"392 213 OFFCURVE",
"381 172 OFFCURVE",
"381 137 CURVE SMOOTH",
"381 63 OFFCURVE",
"425 -3 OFFCURVE",
"545 -3 CURVE SMOOTH",
"648 -3 OFFCURVE",
"716 73 OFFCURVE",
"716 136 CURVE SMOOTH",
"716 149 OFFCURVE",
"711 163 OFFCURVE",
"704 163 CURVE SMOOTH",
"695 163 OFFCURVE",
"689 138 OFFCURVE",
"666 138 CURVE SMOOTH",
"653 138 OFFCURVE",
"648 150 OFFCURVE",
"653 169 CURVE SMOOTH",
"767 542 LINE SMOOTH",
"770 555 OFFCURVE",
"773 566 OFFCURVE",
"773 575 CURVE SMOOTH",
"773 599 OFFCURVE",
"762 624 OFFCURVE",
"698 624 CURVE SMOOTH"
);
}
);
width = 738;
}
);
rightMetricsKey = "pa-gujarati";
unicode = 0A97;
},
{
color = 6;
glyphname = gjGHA;
lastChange = "2015-08-11 11:44:37 +0000";
layers = (
{
background = {
paths = (
{
closed = 1;
nodes = (
"435 876 OFFCURVE",
"328 784 OFFCURVE",
"328 653 CURVE SMOOTH",
"328 557 OFFCURVE",
"393 492 OFFCURVE",
"486 458 CURVE",
"477 554 LINE",
"336 527 OFFCURVE",
"243 462 OFFCURVE",
"243 339 CURVE SMOOTH",
"243 224 OFFCURVE",
"339 138 OFFCURVE",
"497 138 CURVE SMOOTH",
"690 138 OFFCURVE",
"838 271 OFFCURVE",
"910 453 CURVE",
"863 530 LINE",
"829 421 OFFCURVE",
"770 336 OFFCURVE",
"670 336 CURVE SMOOTH",
"608 336 OFFCURVE",
"583 348 OFFCURVE",
"583 382 CURVE SMOOTH",
"583 494 OFFCURVE",
"780 470 OFFCURVE",
"780 525 CURVE SMOOTH",
"780 558 OFFCURVE",
"654 565 OFFCURVE",
"654 661 CURVE SMOOTH",
"654 696 OFFCURVE",
"675 716 OFFCURVE",
"696 716 CURVE SMOOTH",
"734 716 OFFCURVE",
"752 662 OFFCURVE",
"784 662 CURVE SMOOTH",
"796 662 OFFCURVE",
"803 673 OFFCURVE",
"803 693 CURVE SMOOTH",
"803 801 OFFCURVE",
"714 876 OFFCURVE",
"587 876 CURVE SMOOTH"
);
},
{
closed = 1;
nodes = (
"1131 844 OFFCURVE",
"1050 821 OFFCURVE",
"939 774 CURVE",
"814 379 LINE",
"784 287 OFFCURVE",
"772 234 OFFCURVE",
"772 186 CURVE SMOOTH",
"772 85 OFFCURVE",
"831 -4 OFFCURVE",
"991 -4 CURVE SMOOTH",
"1131 -4 OFFCURVE",
"1224 98 OFFCURVE",
"1224 184 CURVE SMOOTH",
"1224 202 OFFCURVE",
"1218 220 OFFCURVE",
"1207 220 CURVE SMOOTH",
"1194 220 OFFCURVE",
"1186 187 OFFCURVE",
"1156 187 CURVE SMOOTH",
"1138 187 OFFCURVE",
"1130 203 OFFCURVE",
"1138 229 CURVE SMOOTH",
"1292 733 LINE SMOOTH",
"1297 750 OFFCURVE",
"1300 766 OFFCURVE",
"1300 779 CURVE SMOOTH",
"1300 809 OFFCURVE",
"1287 844 OFFCURVE",
"1204 844 CURVE SMOOTH"
);
}
);
};
layerId = "FF8CB9F1-2B98-444C-A502-96421F2531A8";
rightMetricsKey = gjmAA;
name = "Bold Italic";
paths = (
{
closed = 1;
nodes = (
"147 633 OFFCURVE",
"77 563 OFFCURVE",
"77 478 CURVE SMOOTH",
"77 420 OFFCURVE",
"125 369 OFFCURVE",
"194 347 CURVE",
"188 412 LINE",
"83 394 OFFCURVE",
"15 349 OFFCURVE",
"15 265 CURVE SMOOTH",
"15 185 OFFCURVE",
"80 125 OFFCURVE",
"201 125 CURVE SMOOTH",
"351 125 OFFCURVE",
"456 214 OFFCURVE",
"516 359 CURVE",
"481 397 LINE",
"457 320 OFFCURVE",
"406 263 OFFCURVE",
"334 263 CURVE SMOOTH",
"293 263 OFFCURVE",
"274 275 OFFCURVE",
"274 300 CURVE SMOOTH",
"274 363 OFFCURVE",
"420 355 OFFCURVE",
"420 392 CURVE SMOOTH",
"420 415 OFFCURVE",
"325 420 OFFCURVE",
"325 486 CURVE SMOOTH",
"325 509 OFFCURVE",
"342 524 OFFCURVE",
"359 524 CURVE SMOOTH",
"383 524 OFFCURVE",
"400 487 OFFCURVE",
"422 487 CURVE SMOOTH",
"431 487 OFFCURVE",
"437 495 OFFCURVE",
"437 508 CURVE SMOOTH",
"437 574 OFFCURVE",
"361 633 OFFCURVE",
"255 633 CURVE SMOOTH"
);
},
{
closed = 1;
nodes = (
"654 624 OFFCURVE",
"545 599 OFFCURVE",
"525 542 CURVE SMOOTH",
"444 279 LINE SMOOTH",
"422 213 OFFCURVE",
"413 172 OFFCURVE",
"413 137 CURVE SMOOTH",
"413 63 OFFCURVE",
"457 -3 OFFCURVE",
"574 -3 CURVE SMOOTH",
"677 -3 OFFCURVE",
"747 73 OFFCURVE",
"747 136 CURVE SMOOTH",
"747 149 OFFCURVE",
"743 163 OFFCURVE",
"734 163 CURVE SMOOTH",
"725 163 OFFCURVE",
"718 138 OFFCURVE",
"697 138 CURVE SMOOTH",
"683 138 OFFCURVE",
"676 150 OFFCURVE",
"683 169 CURVE SMOOTH",
"798 542 LINE SMOOTH",
"801 555 OFFCURVE",
"803 566 OFFCURVE",
"803 575 CURVE SMOOTH",
"803 599 OFFCURVE",
"793 624 OFFCURVE",
"728 624 CURVE SMOOTH"
);
}
);
width = 775;
}
);
rightMetricsKey = gjmAA;
unicode = 0A98;
},
{
glyphname = gjNGA;
lastChange = "2015-08-11 11:44:37 +0000";
layers = (
{
background = {
paths = (
{
closed = 1;
nodes = (
"432 857 OFFCURVE",
"371 796 OFFCURVE",
"371 718 CURVE SMOOTH",
"371 572 OFFCURVE",
"633 493 OFFCURVE",
"633 384 CURVE SMOOTH",
"633 322 OFFCURVE",
"583 285 OFFCURVE",
"509 285 CURVE SMOOTH",
"383 285 OFFCURVE",
"278 403 OFFCURVE",
"248 403 CURVE SMOOTH",
"227 403 OFFCURVE",
"209 359 OFFCURVE",
"209 293 CURVE SMOOTH",
"209 128 OFFCURVE",
"335 -4 OFFCURVE",
"551 -4 CURVE SMOOTH",
"753 -4 OFFCURVE",
"876 102 OFFCURVE",
"876 255 CURVE SMOOTH",
"876 434 OFFCURVE",
"660 504 OFFCURVE",
"660 581 CURVE SMOOTH",
"660 607 OFFCURVE",
"675 623 OFFCURVE",
"701 623 CURVE SMOOTH",
"750 623 OFFCURVE",
"780 568 OFFCURVE",
"809 568 CURVE SMOOTH",
"824 568 OFFCURVE",
"838 591 OFFCURVE",
"837 631 CURVE SMOOTH",
"834 739 OFFCURVE",
"727 857 OFFCURVE",
"551 857 CURVE SMOOTH"
);
},
{
closed = 1;
nodes = (
"787 823 OFFCURVE",
"736 760 OFFCURVE",
"736 672 CURVE SMOOTH",
"736 605 OFFCURVE",
"784 557 OFFCURVE",
"851 557 CURVE SMOOTH",
"924 557 OFFCURVE",
"975 620 OFFCURVE",
"975 708 CURVE SMOOTH",
"975 775 OFFCURVE",
"927 823 OFFCURVE",
"860 823 CURVE SMOOTH"
);
}
);
};
layerId = "FF8CB9F1-2B98-444C-A502-96421F2531A8";
name = "Bold Italic";
paths = (
{
closed = 1;
nodes = (
"406 461 OFFCURVE",
"420 412 OFFCURVE",
"481 412 CURVE SMOOTH",
"536 412 OFFCURVE",
"573 458 OFFCURVE",
"573 524 CURVE SMOOTH",
"573 573 OFFCURVE",
"538 609 OFFCURVE",
"488 609 CURVE SMOOTH",
"455 609 OFFCURVE",
"409 589 OFFCURVE",
"399 518 CURVE",
"360 596 OFFCURVE",
"295 633 OFFCURVE",
"228 633 CURVE SMOOTH",
"169 633 OFFCURVE",
"125 589 OFFCURVE",
"125 530 CURVE SMOOTH",
"125 422 OFFCURVE",
"319 365 OFFCURVE",
"319 284 CURVE SMOOTH",
"319 238 OFFCURVE",
"283 212 OFFCURVE",
"227 212 CURVE SMOOTH",
"135 212 OFFCURVE",
"59 298 OFFCURVE",
"35 298 CURVE SMOOTH",
"21 298 OFFCURVE",
"7 265 OFFCURVE",
"7 217 CURVE SMOOTH",
"7 95 OFFCURVE",
"101 -3 OFFCURVE",
"261 -3 CURVE SMOOTH",
"409 -3 OFFCURVE",
"500 74 OFFCURVE",
"500 189 CURVE SMOOTH",
"500 320 OFFCURVE",
"340 372 OFFCURVE",
"340 429 CURVE SMOOTH",
"340 450 OFFCURVE",
"352 461 OFFCURVE",
"370 461 CURVE SMOOTH"
);
}
);
width = 549;
}
);
unicode = 0A99;
},
{
color = 6;
glyphname = gjCA;
lastChange = "2015-08-11 11:44:37 +0000";
layers = (
{
background = {
paths = (
{
closed = 1;
nodes = (
"861 356 OFFCURVE",
"823 315 OFFCURVE",
"756 315 CURVE SMOOTH",
"702 315 OFFCURVE",
"629 341 OFFCURVE",
"532 400 CURVE",
"490 364 LINE",
"591 186 OFFCURVE",
"745 156 OFFCURVE",
"868 156 CURVE",
"883 424 LINE"
);
},
{
closed = 1;
nodes = (
"486 851 OFFCURVE",
"376 755 OFFCURVE",
"354 617 CURVE SMOOTH",
"351 597 OFFCURVE",
"363 584 OFFCURVE",
"374 584 CURVE SMOOTH",
"387 585 OFFCURVE",
"401 608 OFFCURVE",
"425 609 CURVE SMOOTH",
"442 610 OFFCURVE",
"453 596 OFFCURVE",
"449 573 CURVE SMOOTH",
"444 540 OFFCURVE",
"424 500 OFFCURVE",
"379 455 CURVE",
"354 469 OFFCURVE",
"335 475 OFFCURVE",
"312 475 CURVE SMOOTH",
"267 475 OFFCURVE",
"224 446 OFFCURVE",
"216 392 CURVE SMOOTH",
"204 319 OFFCURVE",
"280 227 OFFCURVE",
"425 227 CURVE SMOOTH",
"644 227 OFFCURVE",
"826 427 OFFCURVE",
"826 637 CURVE SMOOTH",
"826 777 OFFCURVE",
"738 851 OFFCURVE",
"627 851 CURVE SMOOTH"
);
}
);
};
layerId = "FF8CB9F1-2B98-444C-A502-96421F2531A8";
leftMetricsKey = gjA;
rightMetricsKey = gjmAA;
name = "Bold Italic";
paths = (
{
closed = 1;
nodes = (
"205 633 OFFCURVE",
"123 563 OFFCURVE",
"108 461 CURVE SMOOTH",
"105 446 OFFCURVE",
"115 436 OFFCURVE",
"122 436 CURVE SMOOTH",
"132 437 OFFCURVE",
"141 455 OFFCURVE",
"160 456 CURVE SMOOTH",
"172 456 OFFCURVE",
"180 445 OFFCURVE",
"176 427 CURVE SMOOTH",
"174 404 OFFCURVE",
"160 373 OFFCURVE",
"125 341 CURVE",
"108 352 OFFCURVE",
"93 357 OFFCURVE",
"75 357 CURVE SMOOTH",
"43 357 OFFCURVE",
"12 334 OFFCURVE",
"6 295 CURVE SMOOTH",
"-4 240 OFFCURVE",
"53 172 OFFCURVE",
"160 172 CURVE SMOOTH",
"322 172 OFFCURVE",
"457 319 OFFCURVE",
"457 475 CURVE SMOOTH",
"457 578 OFFCURVE",
"391 633 OFFCURVE",
"310 633 CURVE SMOOTH"
);
},
{
closed = 1;
nodes = (
"481 264 OFFCURVE",
"454 233 OFFCURVE",
"404 233 CURVE SMOOTH",
"363 233 OFFCURVE",
"310 253 OFFCURVE",
"238 296 CURVE",
"208 270 LINE",
"282 137 OFFCURVE",
"397 116 OFFCURVE",
"487 116 CURVE",
"498 314 LINE"
);
},
{
closed = 1;
nodes = (
"697 624 OFFCURVE",
"588 599 OFFCURVE",
"569 542 CURVE SMOOTH",
"487 279 LINE SMOOTH",
"465 213 OFFCURVE",
"456 172 OFFCURVE",
"456 137 CURVE SMOOTH",
"456 63 OFFCURVE",
"499 -3 OFFCURVE",
"618 -3 CURVE SMOOTH",
"721 -3 OFFCURVE",
"791 73 OFFCURVE",
"791 136 CURVE SMOOTH",
"791 149 OFFCURVE",
"784 163 OFFCURVE",
"777 163 CURVE SMOOTH",
"768 163 OFFCURVE",
"761 138 OFFCURVE",
"740 138 CURVE SMOOTH",
"725 138 OFFCURVE",
"720 150 OFFCURVE",
"725 169 CURVE SMOOTH",
"840 542 LINE SMOOTH",
"844 555 OFFCURVE",
"846 566 OFFCURVE",
"846 575 CURVE SMOOTH",
"846 599 OFFCURVE",
"836 624 OFFCURVE",
"771 624 CURVE SMOOTH"
);
}
);
width = 812;
}
);
leftMetricsKey = gjA;
rightMetricsKey = gjmAA;
unicode = 0A9A;
},
{
glyphname = gjCHA;
lastChange = "2015-08-11 11:44:37 +0000";
layers = (
{
background = {
paths = (
{
closed = 1;
nodes = (
"763 464 OFFCURVE",
"810 475 OFFCURVE",
"810 495 CURVE SMOOTH",
"810 528 OFFCURVE",
"684 530 OFFCURVE",
"684 620 CURVE SMOOTH",
"684 661 OFFCURVE",
"700 686 OFFCURVE",
"730 686 CURVE SMOOTH",
"749 686 OFFCURVE",
"761 673 OFFCURVE",
"763 648 CURVE SMOOTH",
"765 628 OFFCURVE",
"767 624 OFFCURVE",
"777 624 CURVE SMOOTH",
"819 624 OFFCURVE",
"848 656 OFFCURVE",
"843 710 CURVE SMOOTH",
"837 782 OFFCURVE",
"772 846 OFFCURVE",
"642 846 CURVE SMOOTH",
"478 846 OFFCURVE",
"358 749 OFFCURVE",
"358 604 CURVE SMOOTH",
"358 524 OFFCURVE",
"413 462 OFFCURVE",
"516 443 CURVE",
"482 516 LINE",
"339 490 OFFCURVE",
"244 395 OFFCURVE",
"244 265 CURVE SMOOTH",
"244 124 OFFCURVE",
"367 0 OFFCURVE",
"625 0 CURVE SMOOTH",
"931 0 OFFCURVE",
"1193 226 OFFCURVE",
"1193 550 CURVE SMOOTH",
"1193 689 OFFCURVE",
"1132 777 OFFCURVE",
"1035 777 CURVE SMOOTH",
"938 777 OFFCURVE",
"877 695 OFFCURVE",
"877 565 CURVE SMOOTH",
"877 476 OFFCURVE",
"913 411 OFFCURVE",
"978 355 CURVE",
"1022 407 LINE",
"999 443 OFFCURVE",
"988 473 OFFCURVE",
"988 512 CURVE SMOOTH",
"988 552 OFFCURVE",
"1002 570 OFFCURVE",
"1017 570 CURVE SMOOTH",
"1032 570 OFFCURVE",
"1046 552 OFFCURVE",
"1046 516 CURVE SMOOTH",
"1046 380 OFFCURVE",
"893 270 OFFCURVE",
"725 270 CURVE SMOOTH",
"638 270 OFFCURVE",
"590 300 OFFCURVE",
"590 353 CURVE SMOOTH",
"590 403 OFFCURVE",
"639 433 OFFCURVE",
"695 447 CURVE SMOOTH"
);
}
);
};
layerId = "FF8CB9F1-2B98-444C-A502-96421F2531A8";
name = "Bold Italic";
paths = (
{
closed = 1;
nodes = (
"402 344 OFFCURVE",
"436 352 OFFCURVE",
"436 367 CURVE SMOOTH",
"436 391 OFFCURVE",
"344 398 OFFCURVE",
"344 466 CURVE SMOOTH",
"344 497 OFFCURVE",
"357 515 OFFCURVE",
"375 515 CURVE SMOOTH",
"391 515 OFFCURVE",
"399 506 OFFCURVE",
"402 485 CURVE SMOOTH",
"404 473 OFFCURVE",
"409 470 OFFCURVE",
"415 470 CURVE SMOOTH",
"432 470 OFFCURVE",
"457 487 OFFCURVE",
"457 524 CURVE SMOOTH",
"457 584 OFFCURVE",
"397 633 OFFCURVE",
"308 633 CURVE SMOOTH",
"177 633 OFFCURVE",
"103 553 OFFCURVE",
"103 460 CURVE SMOOTH",
"103 401 OFFCURVE",
"149 352 OFFCURVE",
"219 336 CURVE",
"193 380 LINE",
"87 362 OFFCURVE",
"26 293 OFFCURVE",
"19 197 CURVE SMOOTH",
"11 87 OFFCURVE",
"102 0 OFFCURVE",
"270 0 CURVE SMOOTH",
"525 0 OFFCURVE",
"719 168 OFFCURVE",
"719 408 CURVE SMOOTH",
"719 509 OFFCURVE",
"674 574 OFFCURVE",
"603 574 CURVE SMOOTH",
"530 574 OFFCURVE",
"486 514 OFFCURVE",
"486 418 CURVE SMOOTH",
"486 352 OFFCURVE",
"513 305 OFFCURVE",
"561 263 CURVE",
"593 302 LINE",
"575 326 OFFCURVE",
"568 350 OFFCURVE",
"568 377 CURVE SMOOTH",
"568 409 OFFCURVE",
"577 421 OFFCURVE",
"590 421 CURVE SMOOTH",
"601 421 OFFCURVE",
"611 409 OFFCURVE",
"611 380 CURVE SMOOTH",
"611 281 OFFCURVE",
"498 200 OFFCURVE",
"373 200 CURVE SMOOTH",
"310 200 OFFCURVE",
"273 221 OFFCURVE",
"273 262 CURVE SMOOTH",
"273 298 OFFCURVE",
"310 319 OFFCURVE",
"352 329 CURVE SMOOTH"
);
}
);
width = 725;
},
{
associatedMasterId = "FF8CB9F1-2B98-444C-A502-96421F2531A8";
layerId = "F216DA94-8BA4-4618-A66D-220C06E2654F";
name = "Regular Feb 23 14, 16:04";
paths = (
{
closed = 1;
nodes = (
"758 418 CURVE",
"741 462 OFFCURVE",
"748 530 OFFCURVE",
"783 530 CURVE SMOOTH",
"808 530 OFFCURVE",
"808 466 OFFCURVE"
);
},
{
closed = 1;
nodes = (
"643 508 CURVE SMOOTH",
"643 441 OFFCURVE",
"672 379 OFFCURVE",
"700 342 CURVE",
"707 376 LINE",
"625 300 OFFCURVE",
"552 270 OFFCURVE",
"468 270 CURVE SMOOTH",
"411 270 OFFCURVE",
"366 289 OFFCURVE",
"366 340 CURVE SMOOTH",
"366 402 OFFCURVE",
"415 433 OFFCURVE",
"487 450 CURVE SMOOTH",
"557 467 OFFCURVE",
"576 475 OFFCURVE",
"576 495 CURVE SMOOTH",
"576 528 OFFCURVE",
"461 530 OFFCURVE",
"461 620 CURVE SMOOTH",
"461 661 OFFCURVE",
"483 686 OFFCURVE",
"513 686 CURVE SMOOTH",
"532 686 OFFCURVE",
"543 673 OFFCURVE",
"543 648 CURVE SMOOTH",
"543 628 OFFCURVE",
"545 624 OFFCURVE",
"555 624 CURVE SMOOTH",
"597 624 OFFCURVE",
"628 656 OFFCURVE",
"628 710 CURVE SMOOTH",
"628 782 OFFCURVE",
"569 846 OFFCURVE",
"439 846 CURVE SMOOTH",
"275 846 OFFCURVE",
"134 764 OFFCURVE",
"134 604 CURVE SMOOTH",
"134 513 OFFCURVE",
"183 456 OFFCURVE",
"276 422 CURVE",
"258 516 LINE",
"107 490 OFFCURVE",
"20 402 OFFCURVE",
"20 273 CURVE SMOOTH",
"20 109 OFFCURVE",
"170 0 OFFCURVE",
"367 0 CURVE SMOOTH",
"739 0 OFFCURVE",
"972 289 OFFCURVE",
"972 518 CURVE SMOOTH",
"972 650 OFFCURVE",
"915 737 OFFCURVE",
"812 737 CURVE SMOOTH",
"719 737 OFFCURVE",
"643 652 OFFCURVE"
);
}
);
width = 982;
}
);
unicode = 0A9B;
},
{
glyphname = gjJA;
lastChange = "2015-08-11 11:44:37 +0000";
layers = (
{
background = {
paths = (
{
closed = 1;
nodes = (
"918 937 OFFCURVE",
"844 873 OFFCURVE",
"844 829 CURVE SMOOTH",
"844 794 OFFCURVE",
"904 818 OFFCURVE",
"904 769 CURVE SMOOTH",
"904 734 OFFCURVE",
"867 687 OFFCURVE",
"687 547 CURVE SMOOTH",
"521 418 OFFCURVE",
"479 339 OFFCURVE",
"479 246 CURVE SMOOTH",
"479 100 OFFCURVE",
"598 -4 OFFCURVE",
"766 -4 CURVE SMOOTH",
"911 -4 OFFCURVE",
"1014 77 OFFCURVE",
"1014 192 CURVE SMOOTH",
"1014 262 OFFCURVE",
"966 324 OFFCURVE",
"892 349 CURVE",
"1005 403 LINE SMOOTH",
"1168 481 OFFCURVE",
"1258 589 OFFCURVE",
"1258 707 CURVE SMOOTH",
"1258 838 OFFCURVE",
"1164 937 OFFCURVE",
"1026 937 CURVE SMOOTH"
);
},
{
closed = 1;
nodes = (
"830 286 OFFCURVE",
"842 266 OFFCURVE",
"842 239 CURVE SMOOTH",
"842 208 OFFCURVE",
"818 183 OFFCURVE",
"789 183 CURVE SMOOTH",
"761 183 OFFCURVE",
"742 199 OFFCURVE",
"742 225 CURVE SMOOTH",
"742 252 OFFCURVE",
"762 275 OFFCURVE",
"809 303 CURVE"
);
},
{
closed = 1;
nodes = (
"368 834 OFFCURVE",
"290 769 OFFCURVE",
"290 660 CURVE SMOOTH",
"290 531 OFFCURVE",
"389 452 OFFCURVE",
"479 452 CURVE SMOOTH",
"499 452 OFFCURVE",
"509 461 OFFCURVE",
"509 473 CURVE SMOOTH",
"509 492 OFFCURVE",
"489 499 OFFCURVE",
"489 528 CURVE SMOOTH",
"489 554 OFFCURVE",
"507 572 OFFCURVE",
"545 572 CURVE SMOOTH",
"579 572 OFFCURVE",
"619 561 OFFCURVE",
"666 513 CURVE",
"731 545 LINE",
"669 762 OFFCURVE",
"571 834 OFFCURVE",
"458 834 CURVE SMOOTH"
);
}
);
};
layerId = "FF8CB9F1-2B98-444C-A502-96421F2531A8";
name = "Bold Italic";
paths = (
{
closed = 1;
nodes = (
"524 694 OFFCURVE",
"474 646 OFFCURVE",
"474 613 CURVE SMOOTH",
"474 588 OFFCURVE",
"518 605 OFFCURVE",
"518 568 CURVE SMOOTH",
"518 543 OFFCURVE",
"492 508 OFFCURVE",
"359 405 CURVE SMOOTH",
"235 310 OFFCURVE",
"204 251 OFFCURVE",
"204 181 CURVE SMOOTH",
"204 74 OFFCURVE",
"293 -3 OFFCURVE",
"416 -3 CURVE SMOOTH",
"524 -3 OFFCURVE",
"601 57 OFFCURVE",
"601 141 CURVE SMOOTH",
"601 193 OFFCURVE",
"564 240 OFFCURVE",
"509 258 CURVE",
"593 298 LINE SMOOTH",
"714 357 OFFCURVE",
"780 420 OFFCURVE",
"780 523 CURVE SMOOTH",
"780 620 OFFCURVE",
"704 694 OFFCURVE",
"601 694 CURVE SMOOTH"
);
},
{
closed = 1;
nodes = (
"464 212 OFFCURVE",
"472 197 OFFCURVE",
"472 175 CURVE SMOOTH",
"472 155 OFFCURVE",
"456 135 OFFCURVE",
"432 135 CURVE SMOOTH",
"413 135 OFFCURVE",
"399 147 OFFCURVE",
"399 168 CURVE SMOOTH",
"399 186 OFFCURVE",
"413 204 OFFCURVE",
"448 223 CURVE"
);
},
{
closed = 1;
nodes = (
"122 633 OFFCURVE",
"65 584 OFFCURVE",
"65 505 CURVE SMOOTH",
"65 410 OFFCURVE",
"137 352 OFFCURVE",
"204 352 CURVE SMOOTH",
"219 352 OFFCURVE",
"225 359 OFFCURVE",
"225 367 CURVE SMOOTH",
"225 380 OFFCURVE",
"212 386 OFFCURVE",
"212 409 CURVE SMOOTH",
"212 425 OFFCURVE",
"224 441 OFFCURVE",
"253 441 CURVE SMOOTH",
"276 441 OFFCURVE",
"308 432 OFFCURVE",
"349 388 CURVE",
"391 420 LINE",
"345 580 OFFCURVE",
"272 633 OFFCURVE",
"189 633 CURVE SMOOTH"
);
}
);
width = 759;
},
{
associatedMasterId = "FF8CB9F1-2B98-444C-A502-96421F2531A8";
layerId = "ACE1C649-40E4-45B1-ADE0-6657E8FC8904";
name = "Regular Feb 23 14, 14:59";
paths = (
{
closed = 1;
nodes = (
"188 507 OFFCURVE",
"626 649 OFFCURVE",
"626 732 CURVE",
"626 774 OFFCURVE",
"587 792 OFFCURVE",
"587 807 CURVE",
"587 822 OFFCURVE",
"624 828 OFFCURVE",
"639 828 CURVE SMOOTH",
"803 828 OFFCURVE",
"921 777 OFFCURVE",
"921 623 CURVE",
"921 331 OFFCURVE",
"508 417 OFFCURVE",
"508 198 CURVE SMOOTH",
"506 180 OFFCURVE",
"523 162 OFFCURVE",
"544 162 CURVE",
"586 162 OFFCURVE",
"631 215 OFFCURVE",
"631 261 CURVE",
"631 308 OFFCURVE",
"564 316 OFFCURVE",
"514 316 CURVE",
"465 316 OFFCURVE",
"564 374 OFFCURVE",
"642 374 CURVE",
"720 374 OFFCURVE",
"810 291 OFFCURVE",
"810 195 CURVE",
"810 99 OFFCURVE",
"720 -8 OFFCURVE",
"518 -8 CURVE",
"325 -8 OFFCURVE",
"188 113 OFFCURVE",
"188 223 CURVE SMOOTH"
);
},
{
closed = 1;
nodes = (
"329 838 OFFCURVE",
"410 795 OFFCURVE",
"523 585 CURVE SMOOTH",
"415 523 LINE SMOOTH",
"390 545 OFFCURVE",
"372 576 OFFCURVE",
"325 576 CURVE",
"279 576 OFFCURVE",
"229 522 OFFCURVE",
"229 493 CURVE",
"229 465 OFFCURVE",
"249 459 OFFCURVE",
"249 439 CURVE SMOOTH",
"249 419 OFFCURVE",
"222 414 OFFCURVE",
"204 414 CURVE",
"186 414 OFFCURVE",
"30 487 OFFCURVE",
"30 621 CURVE",
"30 755 OFFCURVE",
"131 838 OFFCURVE",
"256 838 CURVE"
);
}
);
width = 941;
},
{
associatedMasterId = "FF8CB9F1-2B98-444C-A502-96421F2531A8";
background = {
paths = (
{
closed = 1;
nodes = (
"794 506 OFFCURVE",
"886 597 OFFCURVE",
"915 689 CURVE SMOOTH",
"947 789 OFFCURVE",
"909 920 OFFCURVE",
"757 968 CURVE SMOOTH",
"623 1010 OFFCURVE",
"506 940 OFFCURVE",
"480 858 CURVE SMOOTH",
"474 840 OFFCURVE",
"473 822 OFFCURVE",
"483 819 CURVE SMOOTH",
"496 815 OFFCURVE",
"507 834 OFFCURVE",
"548 821 CURVE SMOOTH",
"610 802 OFFCURVE",
"643 738 OFFCURVE",
"617 654 CURVE SMOOTH",
"603 609 OFFCURVE",
"565 556 OFFCURVE",
"500 499 CURVE",
"527 449 LINE"
);
}
);
};
layerId = "BCCAF9D4-6E05-4858-88CD-0FC634B4B854";
name = "Regular Feb 23 14, 16:11";
paths = (
{
closed = 1;
nodes = (
"199 343 OFFCURVE",
"238 424 OFFCURVE",
"432 580 CURVE SMOOTH",
"569 690 OFFCURVE",
"633 728 OFFCURVE",
"633 771 CURVE",
"633 811 OFFCURVE",
"564 789 OFFCURVE",
"564 833 CURVE",
"564 885 OFFCURVE",
"647 941 OFFCURVE",
"760 941 CURVE SMOOTH",
"878 941 OFFCURVE",
"978 842 OFFCURVE",
"978 711 CURVE",
"978 569 OFFCURVE",
"912 495 OFFCURVE",
"725 407 CURVE SMOOTH",
"572 335 OFFCURVE",
"462 287 OFFCURVE",
"462 229 CURVE SMOOTH",
"462 195 OFFCURVE",
"485 176 OFFCURVE",
"509 176 CURVE SMOOTH",
"538 176 OFFCURVE",
"562 207 OFFCURVE",
"562 240 CURVE",
"562 287 OFFCURVE",
"543 307 OFFCURVE",
"493 332 CURVE",
"540 386 LINE",
"674 348 OFFCURVE",
"734 287 OFFCURVE",
"734 182 CURVE",
"734 73 OFFCURVE",
"635 0 OFFCURVE",
"511 0 CURVE",
"339 0 OFFCURVE",
"199 97 OFFCURVE",
"199 250 CURVE SMOOTH"
);
},
{
closed = 1;
nodes = (
"297 838 OFFCURVE",
"400 735 OFFCURVE",
"463 545 CURVE",
"365 523 LINE",
"327 556 OFFCURVE",
"299 576 OFFCURVE",
"265 576 CURVE",
"227 576 OFFCURVE",
"209 558 OFFCURVE",
"209 532 CURVE",
"209 507 OFFCURVE",
"229 504 OFFCURVE",
"229 488 CURVE SMOOTH",
"229 476 OFFCURVE",
"219 467 OFFCURVE",
"199 467 CURVE",
"129 467 OFFCURVE",
"10 547 OFFCURVE",
"10 661 CURVE",
"10 765 OFFCURVE",
"81 838 OFFCURVE",
"186 838 CURVE"
);
}
);
width = 1003;
},
{
associatedMasterId = "FF8CB9F1-2B98-444C-A502-96421F2531A8";
layerId = "E2ED2BC9-5E81-44FC-8538-4BC3146DE54F";
name = "Regular Jun 19 14, 21:28";
paths = (
{
closed = 1;
nodes = (
"199 328 OFFCURVE",
"236 391 OFFCURVE",
"310 454 CURVE SMOOTH",
"601 701 LINE SMOOTH",
"623 720 OFFCURVE",
"633 733 OFFCURVE",
"633 755 CURVE SMOOTH",
"633 824 OFFCURVE",
"564 792 OFFCURVE",
"564 833 CURVE",
"564 887 OFFCURVE",
"631 941 OFFCURVE",
"754 941 CURVE SMOOTH",
"881 941 OFFCURVE",
"978 842 OFFCURVE",
"978 711 CURVE",
"978 569 OFFCURVE",
"912 495 OFFCURVE",
"725 407 CURVE SMOOTH",
"572 335 OFFCURVE",
"462 287 OFFCURVE",
"462 229 CURVE SMOOTH",
"462 195 OFFCURVE",
"485 187 OFFCURVE",
"509 187 CURVE SMOOTH",
"538 187 OFFCURVE",
"563 210 OFFCURVE",
"563 248 CURVE",
"563 291 OFFCURVE",
"550 323 OFFCURVE",
"509 361 CURVE",
"572 393 LINE",
"684 339 OFFCURVE",
"734 277 OFFCURVE",
"734 182 CURVE SMOOTH",
"734 73 OFFCURVE",
"645 0 OFFCURVE",
"501 0 CURVE SMOOTH",
"319 0 OFFCURVE",
"199 100 OFFCURVE",
"199 253 CURVE SMOOTH"
);
},
{
closed = 1;
nodes = (
"297 838 OFFCURVE",
"385 739 OFFCURVE",
"475 554 CURVE",
"412 502 LINE",
"349 547 OFFCURVE",
"301 576 OFFCURVE",
"262 576 CURVE SMOOTH",
"224 576 OFFCURVE",
"209 558 OFFCURVE",
"209 532 CURVE SMOOTH",
"209 511 OFFCURVE",
"229 504 OFFCURVE",
"229 488 CURVE SMOOTH",
"229 476 OFFCURVE",
"219 467 OFFCURVE",
"199 467 CURVE",
"132 467 OFFCURVE",
"10 547 OFFCURVE",
"10 661 CURVE",
"10 765 OFFCURVE",
"81 838 OFFCURVE",
"186 838 CURVE"
);
}
);
width = 1003;
}
);
unicode = 0A9C;
},
{
glyphname = gjJHA;
lastChange = "2015-08-11 11:44:37 +0000";
layers = (
{
background = {
paths = (
{
closed = 1;
nodes = (
"425 839 OFFCURVE",
"343 747 OFFCURVE",
"343 667 CURVE SMOOTH",
"343 651 OFFCURVE",
"351 642 OFFCURVE",
"359 642 CURVE SMOOTH",
"376 642 OFFCURVE",
"387 668 OFFCURVE",
"416 668 CURVE SMOOTH",
"448 668 OFFCURVE",
"477 641 OFFCURVE",
"477 580 CURVE SMOOTH",
"477 423 OFFCURVE",
"383 242 OFFCURVE",
"310 242 CURVE SMOOTH",
"261 242 OFFCURVE",
"253 289 OFFCURVE",
"232 289 CURVE SMOOTH",
"219 289 OFFCURVE",
"210 272 OFFCURVE",
"210 237 CURVE SMOOTH",
"210 101 OFFCURVE",
"303 -4 OFFCURVE",
"437 -4 CURVE SMOOTH",
"628 -4 OFFCURVE",
"800 165 OFFCURVE",
"800 509 CURVE SMOOTH",
"800 730 OFFCURVE",
"693 839 OFFCURVE",
"552 839 CURVE SMOOTH"
);
}
);
};
layerId = "FF8CB9F1-2B98-444C-A502-96421F2531A8";
name = "Bold Italic";
paths = (
{
closed = 1;
nodes = (
"174 633 OFFCURVE",
"114 566 OFFCURVE",
"114 506 CURVE",
"114 495 OFFCURVE",
"120 488 OFFCURVE",
"124 488 CURVE",
"137 488 OFFCURVE",
"146 507 OFFCURVE",
"168 507 CURVE",
"191 507 OFFCURVE",
"213 487 OFFCURVE",
"213 443 CURVE",
"213 313 OFFCURVE",
"143 177 OFFCURVE",
"88 177 CURVE",
"53 177 OFFCURVE",
"46 214 OFFCURVE",
"30 214 CURVE",
"22 214 OFFCURVE",
"15 201 OFFCURVE",
"15 175 CURVE",
"15 74 OFFCURVE",
"83 -3 OFFCURVE",
"193 -3 CURVE",
"313 -3 OFFCURVE",
"452 122 OFFCURVE",
"452 390 CURVE",
"452 553 OFFCURVE",
"371 633 OFFCURVE",
"267 633 CURVE"
);
},
{
closed = 1;
nodes = (
"553 429 OFFCURVE",
"487 393 OFFCURVE",
"418 303 CURVE SMOOTH",
"405 157 LINE SMOOTH",
"451 252 OFFCURVE",
"482 287 OFFCURVE",
"527 287 CURVE",
"561 287 OFFCURVE",
"582 261 OFFCURVE",
"582 222 CURVE",
"582 180 OFFCURVE",
"564 157 OFFCURVE",
"526 157 CURVE",
"490 157 OFFCURVE",
"487 187 OFFCURVE",
"472 187 CURVE",
"463 187 OFFCURVE",
"458 175 OFFCURVE",
"458 157 CURVE",
"458 63 OFFCURVE",
"525 -3 OFFCURVE",
"634 -3 CURVE",
"754 -3 OFFCURVE",
"846 90 OFFCURVE",
"846 222 CURVE",
"846 357 OFFCURVE",
"758 429 OFFCURVE",
"652 429 CURVE"
);
},
{
closed = 1;
nodes = (
"753 348 LINE SMOOTH",
"861 524 LINE",
"872 543 OFFCURVE",
"878 557 OFFCURVE",
"878 571 CURVE",
"878 603 OFFCURVE",
"848 624 OFFCURVE",
"791 624 CURVE",
"716 624 OFFCURVE",
"613 599 OFFCURVE",
"595 542 CURVE",
"531 348 LINE SMOOTH"
);
}
);
width = 858;
}
);
unicode = 0A9D;
},
{
color = 6;
glyphname = gjNYA;
lastChange = "2015-08-11 11:44:37 +0000";
layers = (
{
background = {
paths = (
{
closed = 1;
nodes = (
"395 857 OFFCURVE",
"309 774 OFFCURVE",
"309 691 CURVE SMOOTH",
"309 674 OFFCURVE",
"315 656 OFFCURVE",
"326 656 CURVE SMOOTH",
"341 656 OFFCURVE",
"351 688 OFFCURVE",
"376 688 CURVE SMOOTH",
"392 688 OFFCURVE",
"401 672 OFFCURVE",
"401 642 CURVE SMOOTH",
"401 551 OFFCURVE",
"354 478 OFFCURVE",
"308 478 CURVE SMOOTH",
"275 478 OFFCURVE",
"272 511 OFFCURVE",
"256 511 CURVE SMOOTH",
"248 511 OFFCURVE",
"239 495 OFFCURVE",
"239 468 CURVE SMOOTH",
"239 362 OFFCURVE",
"330 287 OFFCURVE",
"467 287 CURVE SMOOTH",
"616 287 OFFCURVE",
"751 406 OFFCURVE",
"751 613 CURVE SMOOTH",
"751 747 OFFCURVE",
"670 857 OFFCURVE",
"515 857 CURVE SMOOTH"
);
}
);
};
layerId = "FF8CB9F1-2B98-444C-A502-96421F2531A8";
leftMetricsKey = gjGA;
rightMetricsKey = gjmAA;
name = "Bold Italic";
paths = (
{
closed = 1;
nodes = (
"431 316 OFFCURVE",
"399 295 OFFCURVE",
"319 309 CURVE",
"258 274 LINE",
"310 220 OFFCURVE",
"369 192 OFFCURVE",
"445 192 CURVE",
"456 391 LINE"
);
},
{
closed = 1;
nodes = (
"137 633 OFFCURVE",
"73 572 OFFCURVE",
"73 511 CURVE SMOOTH",
"73 499 OFFCURVE",
"77 485 OFFCURVE",
"85 485 CURVE SMOOTH",
"97 485 OFFCURVE",
"105 509 OFFCURVE",
"123 509 CURVE SMOOTH",
"134 509 OFFCURVE",
"141 497 OFFCURVE",
"141 474 CURVE SMOOTH",
"141 409 OFFCURVE",
"107 339 OFFCURVE",
"68 339 CURVE SMOOTH",
"43 339 OFFCURVE",
"41 363 OFFCURVE",
"28 363 CURVE SMOOTH",
"24 363 OFFCURVE",
"17 352 OFFCURVE",
"17 330 CURVE SMOOTH",
"17 253 OFFCURVE",
"83 198 OFFCURVE",
"185 198 CURVE SMOOTH",
"310 198 OFFCURVE",
"401 300 OFFCURVE",
"401 454 CURVE SMOOTH",
"401 553 OFFCURVE",
"340 633 OFFCURVE",
"225 633 CURVE SMOOTH"
);
},
{
closed = 1;
nodes = (
"630 624 OFFCURVE",
"520 599 OFFCURVE",
"505 542 CURVE SMOOTH",
"420 279 LINE SMOOTH",
"400 213 OFFCURVE",
"390 172 OFFCURVE",
"390 137 CURVE SMOOTH",
"390 63 OFFCURVE",
"432 -3 OFFCURVE",
"552 -3 CURVE SMOOTH",
"655 -3 OFFCURVE",
"724 73 OFFCURVE",
"724 136 CURVE SMOOTH",
"724 149 OFFCURVE",
"719 163 OFFCURVE",
"711 163 CURVE SMOOTH",
"701 163 OFFCURVE",
"697 138 OFFCURVE",
"674 138 CURVE SMOOTH",
"661 138 OFFCURVE",
"655 150 OFFCURVE",
"661 169 CURVE SMOOTH",
"774 542 LINE SMOOTH",
"777 555 OFFCURVE",
"780 566 OFFCURVE",
"780 575 CURVE SMOOTH",
"780 599 OFFCURVE",
"770 624 OFFCURVE",
"706 624 CURVE SMOOTH"
);
}
);
width = 746;
}
);
leftMetricsKey = gjGA;
rightMetricsKey = gjmAA;
unicode = 0A9E;
},
{
glyphname = gjTTA;
lastChange = "2015-08-11 11:44:37 +0000";
layers = (
{
background = {
paths = (
{
closed = 1;
nodes = (
"836 398 OFFCURVE",
"749 280 OFFCURVE",
"633 280 CURVE SMOOTH",
"563 280 OFFCURVE",
"526 302 OFFCURVE",
"526 348 CURVE SMOOTH",
"526 452 OFFCURVE",
"893 432 OFFCURVE",
"893 667 CURVE SMOOTH",
"893 765 OFFCURVE",
"805 839 OFFCURVE",
"668 839 CURVE SMOOTH",
"503 839 OFFCURVE",
"400 728 OFFCURVE",
"400 585 CURVE SMOOTH",
"400 561 OFFCURVE",
"409 550 OFFCURVE",
"418 550 CURVE SMOOTH",
"445 550 OFFCURVE",
"481 598 OFFCURVE",
"529 598 CURVE SMOOTH",
"561 598 OFFCURVE",
"579 580 OFFCURVE",
"579 555 CURVE SMOOTH",
"579 452 OFFCURVE",
"200 464 OFFCURVE",
"200 213 CURVE SMOOTH",
"200 78 OFFCURVE",
"329 -9 OFFCURVE",
"520 -9 CURVE SMOOTH",
"760 -9 OFFCURVE",
"892 134 OFFCURVE",
"892 311 CURVE SMOOTH",
"892 364 OFFCURVE",
"881 398 OFFCURVE",
"866 398 CURVE SMOOTH"
);
}
);
};
guideLines = (
{
position = "{418, 280}";
},
{
position = "{418, 398}";
},
{
position = "{418, 550}";
}
);
layerId = "FF8CB9F1-2B98-444C-A502-96421F2531A8";
name = "Bold Italic";
paths = (
{
closed = 1;
nodes = (
"489 295 OFFCURVE",
"424 208 OFFCURVE",
"339 208 CURVE",
"287 208 OFFCURVE",
"261 222 OFFCURVE",
"261 258 CURVE",
"261 344 OFFCURVE",
"555 333 OFFCURVE",
"555 506 CURVE",
"555 578 OFFCURVE",
"489 633 OFFCURVE",
"389 633 CURVE",
"266 633 OFFCURVE",
"190 552 OFFCURVE",
"190 446 CURVE",
"190 427 OFFCURVE",
"197 420 OFFCURVE",
"204 420 CURVE",
"222 420 OFFCURVE",
"251 456 OFFCURVE",
"285 456 CURVE",
"310 456 OFFCURVE",
"322 443 OFFCURVE",
"322 423 CURVE",
"322 348 OFFCURVE",
"20 356 OFFCURVE",
"20 158 CURVE",
"20 59 OFFCURVE",
"115 -7 OFFCURVE",
"255 -7 CURVE",
"432 -7 OFFCURVE",
"529 99 OFFCURVE",
"529 230 CURVE",
"529 270 OFFCURVE",
"521 295 OFFCURVE",
"511 295 CURVE"
);
}
);
width = 547;
}
);
unicode = 0A9F;
},
{
glyphname = gjTTHA;
lastChange = "2015-08-11 11:44:37 +0000";
layers = (
{
background = {
paths = (
{
closed = 1;
nodes = (
"751 604 OFFCURVE",
"765 620 OFFCURVE",
"789 620 CURVE SMOOTH",
"837 620 OFFCURVE",
"892 574 OFFCURVE",
"933 574 CURVE SMOOTH",
"945 574 OFFCURVE",
"955 589 OFFCURVE",
"955 615 CURVE SMOOTH",
"955 735 OFFCURVE",
"843 839 OFFCURVE",
"680 839 CURVE SMOOTH",
"545 839 OFFCURVE",
"490 771 OFFCURVE",
"490 698 CURVE SMOOTH",
"490 661 OFFCURVE",
"507 632 OFFCURVE",
"538 605 CURVE",
"387 605 OFFCURVE",
"256 554 OFFCURVE",
"219 406 CURVE SMOOTH",
"158 161 OFFCURVE",
"374 -9 OFFCURVE",
"635 -9 CURVE SMOOTH",
"860 -9 OFFCURVE",
"985 126 OFFCURVE",
"985 274 CURVE SMOOTH",
"985 376 OFFCURVE",
"934 430 OFFCURVE",
"832 499 CURVE SMOOTH",
"762 546 OFFCURVE",
"751 564 OFFCURVE",
"751 584 CURVE SMOOTH"
);
},
{
closed = 1;
nodes = (
"673 465 OFFCURVE",
"677 433 OFFCURVE",
"643 301 CURVE SMOOTH",
"609 170 OFFCURVE",
"587 138 OFFCURVE",
"552 138 CURVE SMOOTH",
"517 138 OFFCURVE",
"513 170 OFFCURVE",
"547 301 CURVE SMOOTH",
"581 433 OFFCURVE",
"603 465 OFFCURVE",
"638 465 CURVE SMOOTH"
);
}
);
};
layerId = "FF8CB9F1-2B98-444C-A502-96421F2531A8";
name = "Bold Italic";
paths = (
{
closed = 1;
nodes = (
"424 460 OFFCURVE",
"435 472 OFFCURVE",
"453 472 CURVE SMOOTH",
"488 472 OFFCURVE",
"527 437 OFFCURVE",
"559 437 CURVE SMOOTH",
"568 437 OFFCURVE",
"575 450 OFFCURVE",
"575 467 CURVE SMOOTH",
"575 557 OFFCURVE",
"493 633 OFFCURVE",
"371 633 CURVE SMOOTH",
"274 633 OFFCURVE",
"231 577 OFFCURVE",
"231 534 CURVE SMOOTH",
"231 507 OFFCURVE",
"244 486 OFFCURVE",
"267 461 CURVE",
"156 461 OFFCURVE",
"59 410 OFFCURVE",
"30 300 CURVE SMOOTH",
"-14 120 OFFCURVE",
"146 -7 OFFCURVE",
"339 -7 CURVE SMOOTH",
"505 -7 OFFCURVE",
"599 101 OFFCURVE",
"599 211 CURVE SMOOTH",
"599 289 OFFCURVE",
"560 330 OFFCURVE",
"483 381 CURVE SMOOTH",
"432 417 OFFCURVE",
"424 429 OFFCURVE",
"424 445 CURVE SMOOTH"
);
},
{
closed = 1;
nodes = (
"367 358 OFFCURVE",
"369 328 OFFCURVE",
"345 222 CURVE SMOOTH",
"322 125 OFFCURVE",
"306 103 OFFCURVE",
"279 103 CURVE SMOOTH",
"254 103 OFFCURVE",
"251 125 OFFCURVE",
"273 222 CURVE SMOOTH",
"299 328 OFFCURVE",
"315 358 OFFCURVE",
"341 358 CURVE SMOOTH"
);
}
);
width = 623;
},
{
associatedMasterId = "FF8CB9F1-2B98-444C-A502-96421F2531A8";
background = {
paths = (
{
closed = 1;
nodes = (
"450 201 OFFCURVE",
"410 204 OFFCURVE",
"389 154 CURVE SMOOTH",
"377 127 OFFCURVE",
"390 103 OFFCURVE",
"435 103 CURVE SMOOTH",
"483 103 OFFCURVE",
"528 132 OFFCURVE",
"548 178 CURVE SMOOTH",
"623 357 OFFCURVE",
"117 430 OFFCURVE",
"210 652 CURVE SMOOTH",
"258 766 OFFCURVE",
"422 839 OFFCURVE",
"601 839 CURVE SMOOTH",
"713 839 OFFCURVE",
"774 813 OFFCURVE",
"763 786 CURVE SMOOTH",
"751 758 OFFCURVE",
"708 770 OFFCURVE",
"691 729 CURVE SMOOTH",
"653 638 OFFCURVE",
"966 493 OFFCURVE",
"867 258 CURVE SMOOTH",
"799 95 OFFCURVE",
"608 -9 OFFCURVE",
"349 -9 CURVE SMOOTH",
"80 -9 OFFCURVE",
"1 84 OFFCURVE",
"40 177 CURVE SMOOTH",
"71 251 OFFCURVE",
"173 313 OFFCURVE",
"293 313 CURVE SMOOTH",
"398 313 OFFCURVE",
"475 260 OFFCURVE",
"460 225 CURVE SMOOTH"
);
}
);
};
layerId = "1DD25A00-8E62-4642-87BB-589BF9B25CF9";
name = "Bold Italic Jul 13 15, 12:20";
paths = (
{
closed = 1;
nodes = (
"291 839 OFFCURVE",
"68 748 OFFCURVE",
"68 604 CURVE SMOOTH",
"68 422 OFFCURVE",
"555 362 OFFCURVE",
"555 208 CURVE SMOOTH",
"555 142 OFFCURVE",
"494 103 OFFCURVE",
"446 103 CURVE SMOOTH",
"401 103 OFFCURVE",
"389 126 OFFCURVE",
"389 154 CURVE SMOOTH",
"389 209 OFFCURVE",
"572 216 OFFCURVE",
"572 240 CURVE SMOOTH",
"572 271 OFFCURVE",
"543 304 OFFCURVE",
"428 304 CURVE SMOOTH",
"264 304 OFFCURVE",
"136 239 OFFCURVE",
"136 150 CURVE SMOOTH",
"136 74 OFFCURVE",
"232 -9 OFFCURVE",
"496 -9 CURVE SMOOTH",
"740 -9 OFFCURVE",
"920 199 OFFCURVE",
"800 368 CURVE SMOOTH",
"669 552 OFFCURVE",
"557 625 OFFCURVE",
"557 718 CURVE SMOOTH",
"557 760 OFFCURVE",
"633 766 OFFCURVE",
"633 791 CURVE SMOOTH",
"633 816 OFFCURVE",
"582 839 OFFCURVE",
"470 839 CURVE SMOOTH"
);
}
);
width = 910;
},
{
associatedMasterId = "FF8CB9F1-2B98-444C-A502-96421F2531A8";
background = {
paths = (
{
closed = 1;
nodes = (
"450 201 OFFCURVE",
"410 204 OFFCURVE",
"389 154 CURVE SMOOTH",
"377 127 OFFCURVE",
"390 103 OFFCURVE",
"435 103 CURVE SMOOTH",
"483 103 OFFCURVE",
"528 132 OFFCURVE",
"548 178 CURVE SMOOTH",
"623 357 OFFCURVE",
"117 430 OFFCURVE",
"210 652 CURVE SMOOTH",
"258 766 OFFCURVE",
"422 839 OFFCURVE",
"601 839 CURVE SMOOTH",
"713 839 OFFCURVE",
"774 813 OFFCURVE",
"763 786 CURVE SMOOTH",
"751 758 OFFCURVE",
"708 770 OFFCURVE",
"691 729 CURVE SMOOTH",
"653 638 OFFCURVE",
"966 493 OFFCURVE",
"867 258 CURVE SMOOTH",
"799 95 OFFCURVE",
"608 -9 OFFCURVE",
"349 -9 CURVE SMOOTH",
"80 -9 OFFCURVE",
"1 84 OFFCURVE",
"40 177 CURVE SMOOTH",
"71 251 OFFCURVE",
"173 313 OFFCURVE",
"293 313 CURVE SMOOTH",
"398 313 OFFCURVE",
"475 260 OFFCURVE",
"460 225 CURVE SMOOTH"
);
}
);
};
layerId = "47847579-FDBC-4A8C-96A5-7CB3D3617460";
name = "Bold Italic Jul 13 15, 12:26";
paths = (
{
closed = 1;
nodes = (
"275 839 OFFCURVE",
"195 755 OFFCURVE",
"195 671 CURVE SMOOTH",
"195 544 OFFCURVE",
"471 461 OFFCURVE",
"471 364 CURVE SMOOTH",
"471 298 OFFCURVE",
"330 234 OFFCURVE",
"282 234 CURVE SMOOTH",
"237 234 OFFCURVE",
"225 257 OFFCURVE",
"225 285 CURVE SMOOTH",
"225 402 OFFCURVE",
"457 371 OFFCURVE",
"457 426 CURVE SMOOTH",
"457 457 OFFCURVE",
"358 576 OFFCURVE",
"243 576 CURVE SMOOTH",
"79 576 OFFCURVE",
"-49 488 OFFCURVE",
"-49 329 CURVE SMOOTH",
"-49 110 OFFCURVE",
"150 -9 OFFCURVE",
"411 -9 CURVE SMOOTH",
"610 -9 OFFCURVE",
"735 114 OFFCURVE",
"735 234 CURVE SMOOTH",
"735 444 OFFCURVE",
"456 469 OFFCURVE",
"456 536 CURVE SMOOTH",
"456 635 OFFCURVE",
"713 634 OFFCURVE",
"713 659 CURVE SMOOTH",
"713 684 OFFCURVE",
"633 839 OFFCURVE",
"390 839 CURVE SMOOTH"
);
}
);
width = 780;
}
);
unicode = 0AA0;
},
{
glyphname = gjDDA;
lastChange = "2015-08-11 11:44:37 +0000";
layers = (
{
background = {
paths = (
{
closed = 1;
nodes = (
"454 844 OFFCURVE",
"393 783 OFFCURVE",
"393 705 CURVE SMOOTH",
"393 559 OFFCURVE",
"643 493 OFFCURVE",
"643 384 CURVE SMOOTH",
"643 322 OFFCURVE",
"593 285 OFFCURVE",
"519 285 CURVE SMOOTH",
"393 285 OFFCURVE",
"288 403 OFFCURVE",
"258 403 CURVE SMOOTH",
"237 403 OFFCURVE",
"219 359 OFFCURVE",
"219 293 CURVE SMOOTH",
"219 128 OFFCURVE",
"345 -4 OFFCURVE",
"561 -4 CURVE SMOOTH",
"763 -4 OFFCURVE",
"886 102 OFFCURVE",
"886 255 CURVE SMOOTH",
"886 434 OFFCURVE",
"682 491 OFFCURVE",
"682 568 CURVE SMOOTH",
"682 594 OFFCURVE",
"697 610 OFFCURVE",
"723 610 CURVE SMOOTH",
"772 610 OFFCURVE",
"802 555 OFFCURVE",
"831 555 CURVE SMOOTH",
"846 555 OFFCURVE",
"860 578 OFFCURVE",
"859 618 CURVE SMOOTH",
"856 726 OFFCURVE",
"749 844 OFFCURVE",
"573 844 CURVE SMOOTH"
);
}
);
};
layerId = "FF8CB9F1-2B98-444C-A502-96421F2531A8";
leftMetricsKey = gjNGA;
name = "Bold Italic";
paths = (
{
closed = 1;
nodes = (
"171 633 OFFCURVE",
"125 589 OFFCURVE",
"125 530 CURVE SMOOTH",
"125 422 OFFCURVE",
"319 365 OFFCURVE",
"319 284 CURVE SMOOTH",
"319 238 OFFCURVE",
"283 212 OFFCURVE",
"227 212 CURVE SMOOTH",
"135 212 OFFCURVE",
"59 298 OFFCURVE",
"35 298 CURVE SMOOTH",
"21 298 OFFCURVE",
"7 265 OFFCURVE",
"7 217 CURVE SMOOTH",
"7 95 OFFCURVE",
"101 -3 OFFCURVE",
"272 -3 CURVE SMOOTH",
"409 -3 OFFCURVE",
"500 85 OFFCURVE",
"500 189 CURVE SMOOTH",
"500 320 OFFCURVE",
"340 372 OFFCURVE",
"340 429 CURVE SMOOTH",
"340 450 OFFCURVE",
"352 461 OFFCURVE",
"370 461 CURVE SMOOTH",
"408 461 OFFCURVE",
"428 420 OFFCURVE",
"451 420 CURVE SMOOTH",
"462 420 OFFCURVE",
"472 437 OFFCURVE",
"471 466 CURVE SMOOTH",
"468 547 OFFCURVE",
"390 633 OFFCURVE",
"261 633 CURVE SMOOTH"
);
}
);
width = 509;
},
{
associatedMasterId = "FF8CB9F1-2B98-444C-A502-96421F2531A8";
background = {
paths = (
{
closed = 1;
nodes = (
"432 415 OFFCURVE",
"432 338 CURVE SMOOTH",
"432 304 OFFCURVE",
"381 279 OFFCURVE",
"291 279 CURVE SMOOTH",
"138 279 OFFCURVE",
"81 334 OFFCURVE",
"73 401 CURVE SMOOTH",
"70 422 OFFCURVE",
"64 428 OFFCURVE",
"53 428 CURVE SMOOTH",
"25 428 OFFCURVE",
"-30 340 OFFCURVE",
"-30 246 CURVE SMOOTH",
"-30 102 OFFCURVE",
"87 -9 OFFCURVE",
"307 -9 CURVE SMOOTH",
"514 -9 OFFCURVE",
"637 102 OFFCURVE",
"637 223 CURVE SMOOTH",
"637 364 OFFCURVE",
"391 455 OFFCURVE",
"391 540 CURVE SMOOTH",
"391 563 OFFCURVE",
"407 576 OFFCURVE",
"427 576 CURVE SMOOTH",
"450 576 OFFCURVE",
"466 555 OFFCURVE",
"483 555 CURVE SMOOTH",
"500 555 OFFCURVE",
"518 584 OFFCURVE",
"518 652 CURVE SMOOTH",
"518 766 OFFCURVE",
"429 839 OFFCURVE",
"332 839 CURVE SMOOTH",
"235 839 OFFCURVE",
"162 772 OFFCURVE",
"162 672 CURVE SMOOTH",
"162 530 OFFCURVE"
);
}
);
};
layerId = "CD862AED-4655-4114-B754-7BD3FAF7E9F5";
name = "Bold Jun 5 15, 10:20";
paths = (
{
closed = 1;
nodes = (
"402 486 OFFCURVE",
"402 368 CURVE SMOOTH",
"402 310 OFFCURVE",
"361 279 OFFCURVE",
"261 279 CURVE SMOOTH",
"136 279 OFFCURVE",
"81 334 OFFCURVE",
"73 401 CURVE SMOOTH",
"70 422 OFFCURVE",
"64 428 OFFCURVE",
"53 428 CURVE SMOOTH",
"25 428 OFFCURVE",
"-30 340 OFFCURVE",
"-30 246 CURVE SMOOTH",
"-30 102 OFFCURVE",
"73 -9 OFFCURVE",
"293 -9 CURVE SMOOTH",
"510 -9 OFFCURVE",
"637 102 OFFCURVE",
"637 248 CURVE SMOOTH",
"637 389 OFFCURVE",
"416 509 OFFCURVE",
"416 568 CURVE SMOOTH",
"416 587 OFFCURVE",
"427 598 OFFCURVE",
"477 625 CURVE SMOOTH",
"522 649 OFFCURVE",
"538 667 OFFCURVE",
"538 701 CURVE SMOOTH",
"538 775 OFFCURVE",
"432 869 OFFCURVE",
"326 869 CURVE SMOOTH",
"251 869 OFFCURVE",
"202 817 OFFCURVE",
"202 746 CURVE SMOOTH",
"202 612 OFFCURVE"
);
}
);
width = 671;
},
{
associatedMasterId = "FF8CB9F1-2B98-444C-A502-96421F2531A8";
background = {
paths = (
{
closed = 1;
nodes = (
"18 84 OFFCURVE",
"161 -9 OFFCURVE",
"362 -9 CURVE SMOOTH",
"563 -9 OFFCURVE",
"706 84 OFFCURVE",
"706 215 CURVE SMOOTH",
"706 344 OFFCURVE",
"586 411 OFFCURVE",
"498 449 CURVE SMOOTH",
"410 487 OFFCURVE",
"387 493 OFFCURVE",
"387 513 CURVE SMOOTH",
"387 553 OFFCURVE",
"474 576 OFFCURVE",
"549 576 CURVE SMOOTH",
"604 576 OFFCURVE",
"624 552 OFFCURVE",
"647 533 CURVE SMOOTH",
"672 513 OFFCURVE",
"706 586 OFFCURVE",
"706 664 CURVE SMOOTH",
"706 766 OFFCURVE",
"626 839 OFFCURVE",
"518 839 CURVE SMOOTH",
"335 839 OFFCURVE",
"159 751 OFFCURVE",
"166 595 CURVE SMOOTH",
"170 500 OFFCURVE",
"216 480 OFFCURVE",
"345 413 CURVE SMOOTH",
"427 371 OFFCURVE",
"435 355 OFFCURVE",
"436 333 CURVE SMOOTH",
"437 301 OFFCURVE",
"400 279 OFFCURVE",
"320 279 CURVE SMOOTH",
"235 279 OFFCURVE",
"190 336 OFFCURVE",
"189 356 CURVE SMOOTH",
"188 376 OFFCURVE",
"188 388 OFFCURVE",
"160 388 CURVE SMOOTH",
"132 388 OFFCURVE",
"18 346 OFFCURVE",
"18 215 CURVE SMOOTH"
);
}
);
};
guideLines = (
{
angle = 90;
position = "{303.500, 221.500}";
}
);
layerId = "6896836C-2EA4-4124-BB42-C241BC72AFDE";
name = "Bold Jun 5 15, 14:09";
paths = (
{
closed = 1;
nodes = (
"415 423 OFFCURVE",
"415 346 CURVE SMOOTH",
"415 308 OFFCURVE",
"383 279 OFFCURVE",
"298 279 CURVE SMOOTH",
"152 279 OFFCURVE",
"130 330 OFFCURVE",
"130 372 CURVE SMOOTH",
"130 390 OFFCURVE",
"134 409 OFFCURVE",
"134 422 CURVE SMOOTH",
"134 435 OFFCURVE",
"129 442 OFFCURVE",
"120 442 CURVE SMOOTH",
"84 442 OFFCURVE",
"-9 352 OFFCURVE",
"-9 220 CURVE SMOOTH",
"-9 78 OFFCURVE",
"94 -9 OFFCURVE",
"304 -9 CURVE SMOOTH",
"514 -9 OFFCURVE",
"637 82 OFFCURVE",
"637 223 CURVE SMOOTH",
"637 364 OFFCURVE",
"411 493 OFFCURVE",
"411 577 CURVE SMOOTH",
"411 596 OFFCURVE",
"419 606 OFFCURVE",
"439 606 CURVE SMOOTH",
"463 606 OFFCURVE",
"481 585 OFFCURVE",
"503 585 CURVE SMOOTH",
"526 585 OFFCURVE",
"538 614 OFFCURVE",
"538 669 CURVE SMOOTH",
"538 796 OFFCURVE",
"435 869 OFFCURVE",
"338 869 CURVE SMOOTH",
"241 869 OFFCURVE",
"182 808 OFFCURVE",
"182 727 CURVE SMOOTH",
"182 588 OFFCURVE"
);
}
);
width = 671;
},
{
associatedMasterId = "FF8CB9F1-2B98-444C-A502-96421F2531A8";
background = {
paths = (
{
closed = 0;
nodes = (
"643 213 LINE SMOOTH",
"753 464 OFFCURVE",
"368 452 OFFCURVE",
"414 555 CURVE SMOOTH",
"424 580 OFFCURVE",
"450 598 OFFCURVE",
"488 598 CURVE SMOOTH",
"543 598 OFFCURVE",
"546 550 OFFCURVE",
"573 550 CURVE SMOOTH",
"582 550 OFFCURVE",
"595 561 OFFCURVE",
"606 585 CURVE SMOOTH"
);
}
);
};
layerId = "3F642850-72DB-4F4A-A333-B16CEEFC3400";
name = "Bold Italic Jul 13 15, 12:47";
paths = (
{
closed = 1;
nodes = (
"269 839 OFFCURVE",
"189 755 OFFCURVE",
"189 648 CURVE SMOOTH",
"189 523 OFFCURVE",
"353 481 OFFCURVE",
"355 391 CURVE SMOOTH",
"356 342 OFFCURVE",
"299 280 OFFCURVE",
"239 280 CURVE SMOOTH",
"85 280 OFFCURVE",
"65 398 OFFCURVE",
"35 398 CURVE SMOOTH",
"14 398 OFFCURVE",
"-40 344 OFFCURVE",
"-40 246 CURVE SMOOTH",
"-40 103 OFFCURVE",
"89 -9 OFFCURVE",
"315 -9 CURVE SMOOTH",
"537 -9 OFFCURVE",
"650 117 OFFCURVE",
"650 250 CURVE SMOOTH",
"650 429 OFFCURVE",
"426 481 OFFCURVE",
"426 563 CURVE SMOOTH",
"426 596 OFFCURVE",
"459 605 OFFCURVE",
"487 605 CURVE SMOOTH",
"556 605 OFFCURVE",
"546 550 OFFCURVE",
"575 550 CURVE SMOOTH",
"593 550 OFFCURVE",
"608 570 OFFCURVE",
"607 613 CURVE SMOOTH",
"604 721 OFFCURVE",
"563 839 OFFCURVE",
"401 839 CURVE SMOOTH"
);
}
);
width = 688;
}
);
leftMetricsKey = gjNGA;
unicode = 0AA1;
},
{
glyphname = gjDDHA;
lastChange = "2015-08-11 11:44:37 +0000";
layers = (
{
background = {
paths = (
{
closed = 1;
nodes = (
"660 839 OFFCURVE",
"602 814 OFFCURVE",
"602 798 CURVE SMOOTH",
"602 777 OFFCURVE",
"636 763 OFFCURVE",
"636 732 CURVE SMOOTH",
"636 700 OFFCURVE",
"619 680 OFFCURVE",
"456 605 CURVE SMOOTH",
"291 529 OFFCURVE",
"225 462 OFFCURVE",
"203 365 CURVE SMOOTH",
"154 151 OFFCURVE",
"374 -7 OFFCURVE",
"680 -7 CURVE SMOOTH",
"896 -7 OFFCURVE",
"1001 79 OFFCURVE",
"1001 188 CURVE SMOOTH",
"1001 279 OFFCURVE",
"924 360 OFFCURVE",
"782 360 CURVE SMOOTH",
"622 360 OFFCURVE",
"536 274 OFFCURVE",
"505 162 CURVE",
"480 183 OFFCURVE",
"469 202 OFFCURVE",
"469 230 CURVE SMOOTH",
"469 305 OFFCURVE",
"536 372 OFFCURVE",
"743 418 CURVE SMOOTH",
"1016 479 OFFCURVE",
"1084 528 OFFCURVE",
"1084 626 CURVE SMOOTH",
"1084 738 OFFCURVE",
"959 839 OFFCURVE",
"754 839 CURVE SMOOTH"
);
},
{
closed = 1;
nodes = (
"698 189 OFFCURVE",
"713 175 OFFCURVE",
"713 151 CURVE SMOOTH",
"713 124 OFFCURVE",
"690 108 OFFCURVE",
"645 108 CURVE SMOOTH",
"631 108 OFFCURVE",
"608 111 OFFCURVE",
"585 121 CURVE",
"595 165 OFFCURVE",
"629 189 OFFCURVE",
"659 189 CURVE SMOOTH"
);
}
);
};
layerId = "FF8CB9F1-2B98-444C-A502-96421F2531A8";
name = "Bold Italic";
paths = (
{
closed = 1;
nodes = (
"337 633 OFFCURVE",
"319 614 OFFCURVE",
"319 603 CURVE SMOOTH",
"319 589 OFFCURVE",
"345 577 OFFCURVE",
"345 555 CURVE SMOOTH",
"345 530 OFFCURVE",
"329 516 OFFCURVE",
"212 461 CURVE SMOOTH",
"97 408 OFFCURVE",
"46 356 OFFCURVE",
"26 276 CURVE SMOOTH",
"-14 120 OFFCURVE",
"165 -6 OFFCURVE",
"391 -6 CURVE SMOOTH",
"537 -6 OFFCURVE",
"614 59 OFFCURVE",
"614 139 CURVE SMOOTH",
"614 207 OFFCURVE",
"558 266 OFFCURVE",
"453 266 CURVE SMOOTH",
"334 266 OFFCURVE",
"270 203 OFFCURVE",
"247 120 CURVE",
"228 134 OFFCURVE",
"221 149 OFFCURVE",
"221 170 CURVE SMOOTH",
"221 225 OFFCURVE",
"262 267 OFFCURVE",
"423 310 CURVE SMOOTH",
"640 363 OFFCURVE",
"675 411 OFFCURVE",
"675 475 CURVE SMOOTH",
"675 559 OFFCURVE",
"568 633 OFFCURVE",
"406 633 CURVE SMOOTH"
);
},
{
closed = 1;
nodes = (
"391 139 OFFCURVE",
"402 128 OFFCURVE",
"402 113 CURVE SMOOTH",
"402 92 OFFCURVE",
"384 80 OFFCURVE",
"352 80 CURVE SMOOTH",
"341 80 OFFCURVE",
"324 82 OFFCURVE",
"308 90 CURVE",
"315 122 OFFCURVE",
"339 139 OFFCURVE",
"361 139 CURVE SMOOTH"
);
}
);
width = 662;
},
{
associatedMasterId = "FF8CB9F1-2B98-444C-A502-96421F2531A8";
background = {
paths = (
{
closed = 1;
nodes = (
"-35 495 OFFCURVE",
"339 638 OFFCURVE",
"339 709 CURVE SMOOTH",
"339 758 OFFCURVE",
"291 733 OFFCURVE",
"291 775 CURVE SMOOTH",
"291 817 OFFCURVE",
"363 839 OFFCURVE",
"449 839 CURVE SMOOTH",
"625 839 OFFCURVE",
"787 766 OFFCURVE",
"787 666 CURVE SMOOTH",
"787 442 OFFCURVE",
"299 376 OFFCURVE",
"235 186 CURVE SMOOTH",
"224 154 OFFCURVE",
"239 136 OFFCURVE",
"281 136 CURVE SMOOTH",
"437 136 OFFCURVE",
"509 195 OFFCURVE",
"509 233 CURVE SMOOTH",
"509 271 OFFCURVE",
"487 265 OFFCURVE",
"471 265 CURVE SMOOTH",
"455 265 OFFCURVE",
"441 171 OFFCURVE",
"441 145 CURVE SMOOTH",
"441 119 OFFCURVE",
"399 111 OFFCURVE",
"391 131 CURVE SMOOTH",
"383 151 OFFCURVE",
"363 187 OFFCURVE",
"363 225 CURVE SMOOTH",
"363 263 OFFCURVE",
"393 376 OFFCURVE",
"537 376 CURVE SMOOTH",
"627 376 OFFCURVE",
"731 313 OFFCURVE",
"731 202 CURVE SMOOTH",
"731 64 OFFCURVE",
"611 -7 OFFCURVE",
"395 -7 CURVE SMOOTH",
"137 -7 OFFCURVE",
"-35 112 OFFCURVE",
"-35 260 CURVE SMOOTH"
);
}
);
};
backgroundImage = {
crop = "{{0, 0}, {295, 360}}";
imagePath = /Users/jonathanpinhorn/Dropbox/JP_FREELANCE/2015/Projects/GoogleWebFonts/Shrikhand/Gujarati/Reference/Shrikhand_DDHA.png;
locked = 1;
transform = "{3, 0, 0, 3, -78, -100}";
};
layerId = "DB39CD9D-0264-42F4-BCED-61EF8AAA067F";
name = "Bold Jun 5 15, 13:22";
paths = (
{
closed = 1;
nodes = (
"-35 495 OFFCURVE",
"339 638 OFFCURVE",
"339 729 CURVE SMOOTH",
"339 770 OFFCURVE",
"291 758 OFFCURVE",
"291 786 CURVE SMOOTH",
"291 813 OFFCURVE",
"363 839 OFFCURVE",
"475 839 CURVE SMOOTH",
"654 839 OFFCURVE",
"787 766 OFFCURVE",
"787 636 CURVE SMOOTH",
"787 432 OFFCURVE",
"251 359 OFFCURVE",
"251 180 CURVE SMOOTH",
"251 134 OFFCURVE",
"296 105 OFFCURVE",
"379 105 CURVE SMOOTH",
"472 105 OFFCURVE",
"509 135 OFFCURVE",
"509 167 CURVE SMOOTH",
"509 185 OFFCURVE",
"499 197 OFFCURVE",
"476 197 CURVE SMOOTH",
"433 197 OFFCURVE",
"411 141 OFFCURVE",
"433 84 CURVE",
"383 70 LINE",
"353 104 OFFCURVE",
"333 136 OFFCURVE",
"333 177 CURVE SMOOTH",
"333 256 OFFCURVE",
"400 324 OFFCURVE",
"515 324 CURVE SMOOTH",
"633 324 OFFCURVE",
"701 270 OFFCURVE",
"701 186 CURVE SMOOTH",
"701 72 OFFCURVE",
"559 -7 OFFCURVE",
"395 -7 CURVE SMOOTH",
"160 -7 OFFCURVE",
"-35 97 OFFCURVE",
"-35 260 CURVE SMOOTH"
);
}
);
width = 787;
}
);
unicode = 0AA2;
},
{
color = 6;
glyphname = gjNNA;
lastChange = "2015-08-11 11:44:37 +0000";
layers = (
{
background = {
paths = (
{
closed = 1;
nodes = (
"552 844 OFFCURVE",
"404 809 OFFCURVE",
"380 733 CURVE SMOOTH",
"286 435 LINE SMOOTH",
"252 325 OFFCURVE",
"283 264 OFFCURVE",
"401 223 CURVE SMOOTH",
"837 73 LINE SMOOTH",
"893 54 OFFCURVE",
"909 41 OFFCURVE",
"909 15 CURVE SMOOTH",
"909 -17 OFFCURVE",
"883 -35 OFFCURVE",
"843 -35 CURVE SMOOTH",
"803 -35 OFFCURVE",
"788 -18 OFFCURVE",
"768 -18 CURVE SMOOTH",
"755 -18 OFFCURVE",
"746 -34 OFFCURVE",
"746 -64 CURVE SMOOTH",
"746 -177 OFFCURVE",
"833 -272 OFFCURVE",
"976 -272 CURVE SMOOTH",
"1106 -272 OFFCURVE",
"1197 -183 OFFCURVE",
"1197 -70 CURVE SMOOTH",
"1197 45 OFFCURVE",
"1116 110 OFFCURVE",
"977 158 CURVE SMOOTH",
"701 254 LINE SMOOTH",
"622 281 OFFCURVE",
"606 298 OFFCURVE",
"624 353 CURVE SMOOTH",
"746 733 LINE SMOOTH",
"752 750 OFFCURVE",
"754 766 OFFCURVE",
"754 779 CURVE SMOOTH",
"754 809 OFFCURVE",
"741 844 OFFCURVE",
"653 844 CURVE SMOOTH"
);
},
{
closed = 1;
nodes = (
"883 853 OFFCURVE",
"816 780 OFFCURVE",
"816 687 CURVE SMOOTH",
"816 670 OFFCURVE",
"822 652 OFFCURVE",
"833 652 CURVE SMOOTH",
"846 652 OFFCURVE",
"858 684 OFFCURVE",
"883 684 CURVE SMOOTH",
"899 684 OFFCURVE",
"908 668 OFFCURVE",
"908 634 CURVE SMOOTH",
"908 551 OFFCURVE",
"842 445 OFFCURVE",
"800 445 CURVE SMOOTH",
"770 445 OFFCURVE",
"764 478 OFFCURVE",
"748 478 CURVE SMOOTH",
"740 478 OFFCURVE",
"726 468 OFFCURVE",
"726 442 CURVE SMOOTH",
"726 326 OFFCURVE",
"816 254 OFFCURVE",
"949 254 CURVE SMOOTH",
"1108 254 OFFCURVE",
"1259 374 OFFCURVE",
"1259 596 CURVE SMOOTH",
"1259 734 OFFCURVE",
"1179 853 OFFCURVE",
"1016 853 CURVE SMOOTH"
);
},
{
closed = 1;
nodes = (
"1569 844 OFFCURVE",
"1421 809 OFFCURVE",
"1397 733 CURVE SMOOTH",
"1285 379 LINE SMOOTH",
"1256 287 OFFCURVE",
"1243 234 OFFCURVE",
"1243 186 CURVE SMOOTH",
"1243 85 OFFCURVE",
"1302 -4 OFFCURVE",
"1462 -4 CURVE SMOOTH",
"1602 -4 OFFCURVE",
"1695 98 OFFCURVE",
"1695 184 CURVE SMOOTH",
"1695 202 OFFCURVE",
"1689 220 OFFCURVE",
"1678 220 CURVE SMOOTH",
"1665 220 OFFCURVE",
"1657 187 OFFCURVE",
"1627 187 CURVE SMOOTH",
"1609 187 OFFCURVE",
"1601 203 OFFCURVE",
"1609 229 CURVE SMOOTH",
"1763 733 LINE SMOOTH",
"1768 750 OFFCURVE",
"1771 766 OFFCURVE",
"1771 779 CURVE SMOOTH",
"1771 809 OFFCURVE",
"1758 844 OFFCURVE",
"1670 844 CURVE SMOOTH"
);
}
);
};
guideLines = (
{
angle = -19.0842;
position = "{312, 254}";
}
);
layerId = "FF8CB9F1-2B98-444C-A502-96421F2531A8";
rightMetricsKey = gjmAA;
name = "Bold Italic";
paths = (
{
closed = 1;
nodes = (
"506 633 OFFCURVE",
"443 572 OFFCURVE",
"443 511 CURVE SMOOTH",
"443 499 OFFCURVE",
"447 485 OFFCURVE",
"456 485 CURVE SMOOTH",
"466 485 OFFCURVE",
"473 509 OFFCURVE",
"492 509 CURVE SMOOTH",
"505 509 OFFCURVE",
"510 497 OFFCURVE",
"510 474 CURVE SMOOTH",
"510 409 OFFCURVE",
"475 339 OFFCURVE",
"436 339 CURVE SMOOTH",
"412 339 OFFCURVE",
"410 363 OFFCURVE",
"399 363 CURVE SMOOTH",
"392 363 OFFCURVE",
"386 352 OFFCURVE",
"386 330 CURVE SMOOTH",
"386 253 OFFCURVE",
"453 198 OFFCURVE",
"553 198 CURVE SMOOTH",
"678 198 OFFCURVE",
"769 300 OFFCURVE",
"769 454 CURVE SMOOTH",
"769 553 OFFCURVE",
"709 633 OFFCURVE",
"595 633 CURVE SMOOTH"
);
},
{
closed = 1;
nodes = (
"253 624 OFFCURVE",
"144 599 OFFCURVE",
"125 542 CURVE SMOOTH",
"56 322 LINE SMOOTH",
"30 240 OFFCURVE",
"54 196 OFFCURVE",
"141 166 CURVE SMOOTH",
"464 54 LINE SMOOTH",
"505 40 OFFCURVE",
"516 30 OFFCURVE",
"516 12 CURVE SMOOTH",
"516 -13 OFFCURVE",
"498 -26 OFFCURVE",
"467 -26 CURVE SMOOTH",
"439 -26 OFFCURVE",
"427 -14 OFFCURVE",
"413 -14 CURVE SMOOTH",
"404 -14 OFFCURVE",
"397 -26 OFFCURVE",
"397 -48 CURVE SMOOTH",
"397 -130 OFFCURVE",
"461 -201 OFFCURVE",
"566 -201 CURVE SMOOTH",
"662 -201 OFFCURVE",
"729 -135 OFFCURVE",
"729 -52 CURVE SMOOTH",
"729 32 OFFCURVE",
"669 81 OFFCURVE",
"567 118 CURVE SMOOTH",
"363 188 LINE SMOOTH",
"305 209 OFFCURVE",
"293 221 OFFCURVE",
"307 262 CURVE SMOOTH",
"397 542 LINE SMOOTH",
"401 555 OFFCURVE",
"403 566 OFFCURVE",
"403 575 CURVE SMOOTH",
"403 599 OFFCURVE",
"393 624 OFFCURVE",
"326 624 CURVE SMOOTH"
);
},
{
closed = 1;
nodes = (
"997 624 OFFCURVE",
"888 599 OFFCURVE",
"870 542 CURVE SMOOTH",
"788 279 LINE SMOOTH",
"766 213 OFFCURVE",
"757 172 OFFCURVE",
"757 137 CURVE SMOOTH",
"757 63 OFFCURVE",
"800 -3 OFFCURVE",
"918 -3 CURVE SMOOTH",
"1022 -3 OFFCURVE",
"1090 73 OFFCURVE",
"1090 136 CURVE SMOOTH",
"1090 149 OFFCURVE",
"1085 163 OFFCURVE",
"1078 163 CURVE SMOOTH",
"1068 163 OFFCURVE",
"1063 138 OFFCURVE",
"1040 138 CURVE SMOOTH",
"1026 138 OFFCURVE",
"1022 150 OFFCURVE",
"1026 169 CURVE SMOOTH",
"1140 542 LINE SMOOTH",
"1144 555 OFFCURVE",
"1148 566 OFFCURVE",
"1148 575 CURVE SMOOTH",
"1148 599 OFFCURVE",
"1137 624 OFFCURVE",
"1073 624 CURVE SMOOTH"
);
}
);
width = 1113;
}
);
rightMetricsKey = gjmAA;
unicode = 0AA3;
},
{
color = 6;
glyphname = gjTA;
lastChange = "2015-08-11 11:44:37 +0000";
layers = (
{
background = {
paths = (
{
closed = 1;
nodes = (
"1042 844 OFFCURVE",
"894 809 OFFCURVE",
"870 733 CURVE SMOOTH",
"758 379 LINE SMOOTH",
"729 287 OFFCURVE",
"716 234 OFFCURVE",
"716 186 CURVE SMOOTH",
"716 85 OFFCURVE",
"775 -4 OFFCURVE",
"935 -4 CURVE SMOOTH",
"1075 -4 OFFCURVE",
"1168 98 OFFCURVE",
"1168 184 CURVE SMOOTH",
"1168 202 OFFCURVE",
"1162 220 OFFCURVE",
"1151 220 CURVE SMOOTH",
"1138 220 OFFCURVE",
"1130 187 OFFCURVE",
"1100 187 CURVE SMOOTH",
"1082 187 OFFCURVE",
"1074 203 OFFCURVE",
"1082 229 CURVE SMOOTH",
"1236 733 LINE SMOOTH",
"1241 750 OFFCURVE",
"1244 766 OFFCURVE",
"1244 779 CURVE SMOOTH",
"1244 809 OFFCURVE",
"1231 844 OFFCURVE",
"1143 844 CURVE SMOOTH"
);
},
{
closed = 1;
nodes = (
"368 605 OFFCURVE",
"205 450 OFFCURVE",
"205 245 CURVE SMOOTH",
"205 95 OFFCURVE",
"313 -4 OFFCURVE",
"440 -4 CURVE SMOOTH",
"570 -4 OFFCURVE",
"665 85 OFFCURVE",
"665 184 CURVE SMOOTH",
"665 212 OFFCURVE",
"659 220 OFFCURVE",
"648 220 CURVE SMOOTH",
"636 220 OFFCURVE",
"615 187 OFFCURVE",
"597 187 CURVE SMOOTH",
"570 187 OFFCURVE",
"546 219 OFFCURVE",
"546 266 CURVE SMOOTH",
"546 389 OFFCURVE",
"635 478 OFFCURVE",
"749 478 CURVE SMOOTH",
"811 478 OFFCURVE",
"886 461 OFFCURVE",
"933 442 CURVE",
"896 554 LINE",
"797 587 OFFCURVE",
"707 605 OFFCURVE",
"610 605 CURVE SMOOTH"
);
}
);
};
layerId = "FF8CB9F1-2B98-444C-A502-96421F2531A8";
rightMetricsKey = gjmAA;
name = "Bold Italic";
paths = (
{
closed = 1;
nodes = (
"147 448 OFFCURVE",
"26 333 OFFCURVE",
"26 181 CURVE SMOOTH",
"26 72 OFFCURVE",
"106 -3 OFFCURVE",
"200 -3 CURVE SMOOTH",
"296 -3 OFFCURVE",
"367 63 OFFCURVE",
"367 136 CURVE SMOOTH",
"367 157 OFFCURVE",
"361 163 OFFCURVE",
"355 163 CURVE SMOOTH",
"345 163 OFFCURVE",
"328 138 OFFCURVE",
"316 138 CURVE SMOOTH",
"296 138 OFFCURVE",
"276 162 OFFCURVE",
"276 197 CURVE SMOOTH",
"276 287 OFFCURVE",
"345 355 OFFCURVE",
"427 355 CURVE SMOOTH",
"474 355 OFFCURVE",
"528 341 OFFCURVE",
"564 325 CURVE",
"537 410 LINE",
"464 434 OFFCURVE",
"398 448 OFFCURVE",
"325 448 CURVE SMOOTH"
);
},
{
closed = 1;
nodes = (
"645 624 OFFCURVE",
"536 599 OFFCURVE",
"517 542 CURVE SMOOTH",
"435 279 LINE SMOOTH",
"413 213 OFFCURVE",
"404 172 OFFCURVE",
"404 137 CURVE SMOOTH",
"404 63 OFFCURVE",
"448 -3 OFFCURVE",
"566 -3 CURVE SMOOTH",
"669 -3 OFFCURVE",
"738 73 OFFCURVE",
"738 136 CURVE SMOOTH",
"738 149 OFFCURVE",
"732 163 OFFCURVE",
"725 163 CURVE SMOOTH",
"716 163 OFFCURVE",
"710 138 OFFCURVE",
"687 138 CURVE SMOOTH",
"674 138 OFFCURVE",
"668 150 OFFCURVE",
"674 169 CURVE SMOOTH",
"788 542 LINE SMOOTH",
"793 555 OFFCURVE",
"794 566 OFFCURVE",
"794 575 CURVE SMOOTH",
"794 599 OFFCURVE",
"784 624 OFFCURVE",
"719 624 CURVE SMOOTH"
);
}
);
width = 760;
}
);
rightMetricsKey = "pa-gujarati";
unicode = 0AA4;
},
{
color = 6;
glyphname = gjTHA;
lastChange = "2015-08-11 11:44:37 +0000";
layers = (
{
background = {
paths = (
{
closed = 1;
nodes = (
"405 836 OFFCURVE",
"303 754 OFFCURVE",
"303 656 CURVE SMOOTH",
"303 566 OFFCURVE",
"419 512 OFFCURVE",
"532 512 CURVE",
"599 559 LINE",
"541 559 OFFCURVE",
"502 590 OFFCURVE",
"502 623 CURVE SMOOTH",
"502 653 OFFCURVE",
"522 671 OFFCURVE",
"549 671 CURVE SMOOTH",
"577 671 OFFCURVE",
"597 653 OFFCURVE",
"597 623 CURVE SMOOTH",
"597 581 OFFCURVE",
"565 551 OFFCURVE",
"423 506 CURVE SMOOTH",
"273 460 OFFCURVE",
"247 440 OFFCURVE",
"247 397 CURVE SMOOTH",
"247 280 OFFCURVE",
"411 170 OFFCURVE",
"650 170 CURVE SMOOTH",
"805 170 OFFCURVE",
"931 242 OFFCURVE",
"996 335 CURVE",
"974 472 LINE",
"938 373 OFFCURVE",
"864 328 OFFCURVE",
"754 328 CURVE SMOOTH",
"692 328 OFFCURVE",
"682 349 OFFCURVE",
"719 367 CURVE SMOOTH",
"770 392 LINE SMOOTH",
"879 445 OFFCURVE",
"935 512 OFFCURVE",
"935 609 CURVE SMOOTH",
"935 735 OFFCURVE",
"806 836 OFFCURVE",
"596 836 CURVE SMOOTH"
);
}
);
};
guideLines = (
{
angle = 90;
position = "{549, 623}";
}
);
layerId = "FF8CB9F1-2B98-444C-A502-96421F2531A8";
rightMetricsKey = gjmAA;
name = "Bold Italic";
paths = (
{
closed = 1;
nodes = (
"162 633 OFFCURVE",
"93 567 OFFCURVE",
"93 499 CURVE SMOOTH",
"93 430 OFFCURVE",
"165 386 OFFCURVE",
"263 386 CURVE",
"289 430 LINE",
"247 430 OFFCURVE",
"225 451 OFFCURVE",
"225 474 CURVE SMOOTH",
"225 495 OFFCURVE",
"242 508 OFFCURVE",
"257 508 CURVE SMOOTH",
"271 508 OFFCURVE",
"288 499 OFFCURVE",
"288 475 CURVE SMOOTH",
"288 444 OFFCURVE",
"265 416 OFFCURVE",
"160 381 CURVE SMOOTH",
"49 347 OFFCURVE",
"29 330 OFFCURVE",
"29 299 CURVE SMOOTH",
"29 210 OFFCURVE",
"168 125 OFFCURVE",
"313 125 CURVE SMOOTH",
"443 125 OFFCURVE",
"520 180 OFFCURVE",
"568 252 CURVE",
"566 357 LINE",
"540 281 OFFCURVE",
"474 246 OFFCURVE",
"390 246 CURVE SMOOTH",
"345 246 OFFCURVE",
"320 255 OFFCURVE",
"348 267 CURVE SMOOTH",
"402 295 LINE SMOOTH",
"481 335 OFFCURVE",
"524 386 OFFCURVE",
"524 461 CURVE SMOOTH",
"524 550 OFFCURVE",
"437 633 OFFCURVE",
"285 633 CURVE SMOOTH"
);
},
{
closed = 1;
nodes = (
"752 624 OFFCURVE",
"643 599 OFFCURVE",
"625 542 CURVE SMOOTH",
"542 279 LINE SMOOTH",
"520 213 OFFCURVE",
"511 172 OFFCURVE",
"511 137 CURVE SMOOTH",
"511 63 OFFCURVE",
"555 -3 OFFCURVE",
"673 -3 CURVE SMOOTH",
"776 -3 OFFCURVE",
"845 73 OFFCURVE",
"845 136 CURVE SMOOTH",
"845 149 OFFCURVE",
"840 163 OFFCURVE",
"832 163 CURVE SMOOTH",
"823 163 OFFCURVE",
"817 138 OFFCURVE",
"795 138 CURVE SMOOTH",
"781 138 OFFCURVE",
"775 150 OFFCURVE",
"781 169 CURVE SMOOTH",
"896 542 LINE SMOOTH",
"899 555 OFFCURVE",
"901 566 OFFCURVE",
"901 575 CURVE SMOOTH",
"901 599 OFFCURVE",
"890 624 OFFCURVE",
"826 624 CURVE SMOOTH"
);
}
);
width = 867;
}
);
rightMetricsKey = "pa-gujarati";
unicode = 0AA5;
},
{
glyphname = gjDA;
lastChange = "2015-08-11 11:44:37 +0000";
layers = (
{
background = {
paths = (
{
closed = 1;
nodes = (
"468 846 OFFCURVE",
"348 749 OFFCURVE",
"348 604 CURVE SMOOTH",
"348 524 OFFCURVE",
"403 462 OFFCURVE",
"506 443 CURVE",
"466 516 LINE",
"317 490 OFFCURVE",
"223 402 OFFCURVE",
"223 273 CURVE SMOOTH",
"223 126 OFFCURVE",
"340 0 OFFCURVE",
"544 0 CURVE SMOOTH",
"709 0 OFFCURVE",
"850 128 OFFCURVE",
"850 251 CURVE SMOOTH",
"850 286 OFFCURVE",
"843 301 OFFCURVE",
"830 301 CURVE SMOOTH",
"808 301 OFFCURVE",
"772 270 OFFCURVE",
"671 270 CURVE SMOOTH",
"605 270 OFFCURVE",
"563 298 OFFCURVE",
"563 350 CURVE SMOOTH",
"563 403 OFFCURVE",
"614 430 OFFCURVE",
"685 447 CURVE SMOOTH",
"753 464 OFFCURVE",
"800 475 OFFCURVE",
"800 495 CURVE SMOOTH",
"800 528 OFFCURVE",
"674 530 OFFCURVE",
"674 620 CURVE SMOOTH",
"674 661 OFFCURVE",
"690 686 OFFCURVE",
"720 686 CURVE SMOOTH",
"739 686 OFFCURVE",
"751 673 OFFCURVE",
"753 648 CURVE SMOOTH",
"755 628 OFFCURVE",
"757 624 OFFCURVE",
"767 624 CURVE SMOOTH",
"809 624 OFFCURVE",
"838 656 OFFCURVE",
"833 710 CURVE SMOOTH",
"827 782 OFFCURVE",
"762 846 OFFCURVE",
"632 846 CURVE SMOOTH"
);
}
);
};
layerId = "FF8CB9F1-2B98-444C-A502-96421F2531A8";
name = "Bold Italic";
paths = (
{
closed = 1;
nodes = (
"200 632 OFFCURVE",
"112 561 OFFCURVE",
"112 453 CURVE SMOOTH",
"112 392 OFFCURVE",
"152 346 OFFCURVE",
"227 330 CURVE",
"199 386 LINE",
"87 367 OFFCURVE",
"20 302 OFFCURVE",
"20 204 CURVE SMOOTH",
"20 94 OFFCURVE",
"105 0 OFFCURVE",
"256 0 CURVE SMOOTH",
"386 0 OFFCURVE",
"481 96 OFFCURVE",
"481 188 CURVE SMOOTH",
"481 214 OFFCURVE",
"475 225 OFFCURVE",
"466 225 CURVE SMOOTH",
"452 225 OFFCURVE",
"424 202 OFFCURVE",
"350 202 CURVE SMOOTH",
"302 202 OFFCURVE",
"270 222 OFFCURVE",
"270 263 CURVE SMOOTH",
"270 303 OFFCURVE",
"308 322 OFFCURVE",
"361 334 CURVE SMOOTH",
"411 347 OFFCURVE",
"445 357 OFFCURVE",
"445 370 CURVE SMOOTH",
"445 395 OFFCURVE",
"352 397 OFFCURVE",
"352 464 CURVE SMOOTH",
"352 495 OFFCURVE",
"363 514 OFFCURVE",
"386 514 CURVE SMOOTH",
"401 514 OFFCURVE",
"409 505 OFFCURVE",
"411 485 CURVE SMOOTH",
"412 470 OFFCURVE",
"413 466 OFFCURVE",
"420 466 CURVE SMOOTH",
"453 466 OFFCURVE",
"473 492 OFFCURVE",
"470 530 CURVE SMOOTH",
"465 584 OFFCURVE",
"417 632 OFFCURVE",
"320 632 CURVE SMOOTH"
);
}
);
width = 476;
}
);
unicode = 0AA6;
},
{
color = 6;
glyphname = gjDHA;
lastChange = "2015-08-11 11:44:37 +0000";
layers = (
{
background = {
paths = (
{
closed = 1;
nodes = (
"444 857 OFFCURVE",
"337 772 OFFCURVE",
"337 649 CURVE SMOOTH",
"337 560 OFFCURVE",
"402 500 OFFCURVE",
"495 468 CURVE",
"486 557 LINE",
"345 533 OFFCURVE",
"252 472 OFFCURVE",
"252 357 CURVE SMOOTH",
"252 250 OFFCURVE",
"348 170 OFFCURVE",
"506 170 CURVE SMOOTH",
"699 170 OFFCURVE",
"847 294 OFFCURVE",
"919 464 CURVE",
"872 535 LINE",
"838 434 OFFCURVE",
"779 354 OFFCURVE",
"679 354 CURVE SMOOTH",
"617 354 OFFCURVE",
"592 366 OFFCURVE",
"592 398 CURVE SMOOTH",
"592 502 OFFCURVE",
"789 479 OFFCURVE",
"789 530 CURVE SMOOTH",
"789 561 OFFCURVE",
"663 568 OFFCURVE",
"663 657 CURVE SMOOTH",
"663 689 OFFCURVE",
"684 708 OFFCURVE",
"705 708 CURVE SMOOTH",
"743 708 OFFCURVE",
"761 658 OFFCURVE",
"793 658 CURVE SMOOTH",
"805 658 OFFCURVE",
"812 669 OFFCURVE",
"812 687 CURVE SMOOTH",
"812 787 OFFCURVE",
"723 857 OFFCURVE",
"596 857 CURVE SMOOTH"
);
},
{
closed = 1;
nodes = (
"1109 844 OFFCURVE",
"961 809 OFFCURVE",
"937 733 CURVE SMOOTH",
"825 379 LINE SMOOTH",
"796 287 OFFCURVE",
"783 234 OFFCURVE",
"783 186 CURVE SMOOTH",
"783 85 OFFCURVE",
"842 -4 OFFCURVE",
"1002 -4 CURVE SMOOTH",
"1142 -4 OFFCURVE",
"1235 98 OFFCURVE",
"1235 184 CURVE SMOOTH",
"1235 202 OFFCURVE",
"1229 220 OFFCURVE",
"1218 220 CURVE SMOOTH",
"1205 220 OFFCURVE",
"1197 187 OFFCURVE",
"1167 187 CURVE SMOOTH",
"1149 187 OFFCURVE",
"1141 203 OFFCURVE",
"1149 229 CURVE SMOOTH",
"1303 733 LINE SMOOTH",
"1308 750 OFFCURVE",
"1311 766 OFFCURVE",
"1311 779 CURVE SMOOTH",
"1311 809 OFFCURVE",
"1298 844 OFFCURVE",
"1210 844 CURVE SMOOTH"
);
}
);
};
layerId = "FF8CB9F1-2B98-444C-A502-96421F2531A8";
rightMetricsKey = gjmAA;
name = "Bold Italic";
paths = (
{
closed = 1;
nodes = (
"94 414 OFFCURVE",
"141 369 OFFCURVE",
"212 347 CURVE",
"204 412 LINE",
"101 394 OFFCURVE",
"30 349 OFFCURVE",
"30 265 CURVE SMOOTH",
"30 185 OFFCURVE",
"103 125 OFFCURVE",
"219 125 CURVE SMOOTH",
"361 125 OFFCURVE",
"471 218 OFFCURVE",
"524 344 CURVE",
"489 397 LINE",
"465 320 OFFCURVE",
"420 263 OFFCURVE",
"347 263 CURVE SMOOTH",
"302 263 OFFCURVE",
"282 270 OFFCURVE",
"282 295 CURVE SMOOTH",
"282 370 OFFCURVE",
"427 355 OFFCURVE",
"427 392 CURVE SMOOTH",
"427 415 OFFCURVE",
"335 420 OFFCURVE",
"336 467 CURVE SMOOTH",
"336 495 OFFCURVE",
"368 500 OFFCURVE",
"402 510 CURVE SMOOTH",
"463 528 OFFCURVE",
"487 561 OFFCURVE",
"487 608 CURVE SMOOTH",
"487 699 OFFCURVE",
"390 738 OFFCURVE",
"342 738 CURVE SMOOTH",
"324 738 OFFCURVE",
"319 732 OFFCURVE",
"319 725 CURVE SMOOTH",
"319 714 OFFCURVE",
"330 704 OFFCURVE",
"330 684 CURVE SMOOTH",
"330 615 OFFCURVE",
"94 649 OFFCURVE",
"94 483 CURVE SMOOTH"
);
},
{
closed = 1;
nodes = (
"662 624 OFFCURVE",
"553 599 OFFCURVE",
"536 542 CURVE SMOOTH",
"453 279 LINE SMOOTH",
"430 213 OFFCURVE",
"421 172 OFFCURVE",
"421 137 CURVE SMOOTH",
"421 63 OFFCURVE",
"465 -3 OFFCURVE",
"582 -3 CURVE SMOOTH",
"686 -3 OFFCURVE",
"756 73 OFFCURVE",
"756 136 CURVE SMOOTH",
"756 149 OFFCURVE",
"751 163 OFFCURVE",
"744 163 CURVE SMOOTH",
"732 163 OFFCURVE",
"727 138 OFFCURVE",
"706 138 CURVE SMOOTH",
"693 138 OFFCURVE",
"686 150 OFFCURVE",
"693 169 CURVE SMOOTH",
"806 542 LINE SMOOTH",
"810 555 OFFCURVE",
"812 566 OFFCURVE",
"812 575 CURVE SMOOTH",
"812 599 OFFCURVE",
"803 624 OFFCURVE",
"737 624 CURVE SMOOTH"
);
}
);
width = 784;
}
);
rightMetricsKey = gjmAA;
unicode = 0AA7;
},
{
glyphname = gjNA;
lastChange = "2015-08-11 11:44:37 +0000";
layers = (
{
background = {
paths = (
{
closed = 1;
nodes = (
"570 1047 OFFCURVE",
"422 1012 OFFCURVE",
"398 936 CURVE SMOOTH",
"286 582 LINE SMOOTH",
"257 490 OFFCURVE",
"244 437 OFFCURVE",
"244 389 CURVE SMOOTH",
"244 288 OFFCURVE",
"303 199 OFFCURVE",
"463 199 CURVE SMOOTH",
"603 199 OFFCURVE",
"696 301 OFFCURVE",
"696 387 CURVE SMOOTH",
"696 405 OFFCURVE",
"690 423 OFFCURVE",
"679 423 CURVE SMOOTH",
"666 423 OFFCURVE",
"658 390 OFFCURVE",
"628 390 CURVE SMOOTH",
"610 390 OFFCURVE",
"602 406 OFFCURVE",
"610 432 CURVE SMOOTH",
"764 936 LINE SMOOTH",
"769 953 OFFCURVE",
"772 969 OFFCURVE",
"772 982 CURVE SMOOTH",
"772 1012 OFFCURVE",
"759 1047 OFFCURVE",
"671 1047 CURVE SMOOTH"
);
}
);
};
layerId = "FF8CB9F1-2B98-444C-A502-96421F2531A8";
rightMetricsKey = gjmAA;
name = "Bold Italic";
paths = (
{
closed = 1;
nodes = (
"623 624 OFFCURVE",
"514 599 OFFCURVE",
"497 542 CURVE SMOOTH",
"413 279 LINE SMOOTH",
"392 213 OFFCURVE",
"381 172 OFFCURVE",
"381 137 CURVE SMOOTH",
"381 63 OFFCURVE",
"425 -3 OFFCURVE",
"545 -3 CURVE SMOOTH",
"648 -3 OFFCURVE",
"716 73 OFFCURVE",
"716 136 CURVE SMOOTH",
"716 149 OFFCURVE",
"711 163 OFFCURVE",
"704 163 CURVE SMOOTH",
"695 163 OFFCURVE",
"689 138 OFFCURVE",
"666 138 CURVE SMOOTH",
"653 138 OFFCURVE",
"648 150 OFFCURVE",
"653 169 CURVE SMOOTH",
"767 542 LINE SMOOTH",
"770 555 OFFCURVE",
"773 566 OFFCURVE",
"773 575 CURVE SMOOTH",
"773 599 OFFCURVE",
"762 624 OFFCURVE",
"698 624 CURVE SMOOTH"
);
},
{
closed = 1;
nodes = (
"130 492 OFFCURVE",
"26 410 OFFCURVE",
"28 287 CURVE SMOOTH",
"29 186 OFFCURVE",
"105 125 OFFCURVE",
"202 125 CURVE SMOOTH",
"287 125 OFFCURVE",
"360 185 OFFCURVE",
"360 261 CURVE SMOOTH",
"360 276 OFFCURVE",
"355 293 OFFCURVE",
"348 293 CURVE SMOOTH",
"336 293 OFFCURVE",
"330 268 OFFCURVE",
"310 268 CURVE SMOOTH",
"296 268 OFFCURVE",
"279 277 OFFCURVE",
"279 307 CURVE SMOOTH",
"279 351 OFFCURVE",
"313 376 OFFCURVE",
"357 376 CURVE SMOOTH",
"406 376 OFFCURVE",
"457 353 OFFCURVE",
"508 316 CURVE",
"539 366 LINE",
"466 445 OFFCURVE",
"370 492 OFFCURVE",
"267 492 CURVE SMOOTH"
);
}
);
width = 738;
}
);
rightMetricsKey = "pa-gujarati";
unicode = 0AA8;
},
{
color = 6;
glyphname = gjPA;
lastChange = "2015-08-11 11:44:37 +0000";
layers = (
{
background = {
paths = (
{
closed = 1;
nodes = (
"762 814 OFFCURVE",
"691 894 OFFCURVE",
"539 894 CURVE SMOOTH",
"398 894 OFFCURVE",
"306 792 OFFCURVE",
"306 707 CURVE SMOOTH",
"306 689 OFFCURVE",
"312 671 OFFCURVE",
"323 671 CURVE SMOOTH",
"336 671 OFFCURVE",
"343 703 OFFCURVE",
"373 703 CURVE SMOOTH",
"386 703 OFFCURVE",
"395 695 OFFCURVE",
"395 679 CURVE SMOOTH",
"395 674 OFFCURVE",
"394 668 OFFCURVE",
"391 661 CURVE",
"340 506 LINE SMOOTH",
"324 458 OFFCURVE",
"314 413 OFFCURVE",
"314 372 CURVE SMOOTH",
"314 252 OFFCURVE",
"386 170 OFFCURVE",
"541 170 CURVE SMOOTH",
"679 170 OFFCURVE",
"773 240 OFFCURVE",
"839 329 CURVE",
"839 472 LINE",
"816 403 OFFCURVE",
"772 361 OFFCURVE",
"731 361 CURVE SMOOTH",
"691 361 OFFCURVE",
"676 382 OFFCURVE",
"676 408 CURVE SMOOTH",
"676 422 OFFCURVE",
"680 438 OFFCURVE",
"686 454 CURVE SMOOTH",
"736 580 LINE",
"752 624 OFFCURVE",
"762 661 OFFCURVE",
"762 709 CURVE SMOOTH"
);
}
);
};
layerId = "FF8CB9F1-2B98-444C-A502-96421F2531A8";
rightMetricsKey = gjmAA;
name = "Bold Italic";
paths = (
{
closed = 1;
nodes = (
"123 633 OFFCURVE",
"63 559 OFFCURVE",
"63 496 CURVE SMOOTH",
"63 481 OFFCURVE",
"67 468 OFFCURVE",
"74 468 CURVE SMOOTH",
"84 468 OFFCURVE",
"90 493 OFFCURVE",
"113 493 CURVE SMOOTH",
"122 493 OFFCURVE",
"126 487 OFFCURVE",
"126 474 CURVE SMOOTH",
"126 471 OFFCURVE",
"125 466 OFFCURVE",
"124 462 CURVE SMOOTH",
"96 373 LINE SMOOTH",
"85 340 OFFCURVE",
"75 306 OFFCURVE",
"75 274 CURVE SMOOTH",
"75 186 OFFCURVE",
"129 125 OFFCURVE",
"245 125 CURVE SMOOTH",
"347 125 OFFCURVE",
"416 176 OFFCURVE",
"465 243 CURVE",
"465 349 LINE",
"448 298 OFFCURVE",
"415 267 OFFCURVE",
"386 267 CURVE SMOOTH",
"357 267 OFFCURVE",
"345 282 OFFCURVE",
"345 303 CURVE SMOOTH",
"345 313 OFFCURVE",
"348 324 OFFCURVE",
"352 336 CURVE SMOOTH",
"377 402 LINE SMOOTH",
"391 434 OFFCURVE",
"398 462 OFFCURVE",
"398 497 CURVE SMOOTH",
"398 574 OFFCURVE",
"347 633 OFFCURVE",
"242 633 CURVE SMOOTH"
);
},
{
closed = 1;
nodes = (
"653 624 OFFCURVE",
"545 599 OFFCURVE",
"525 542 CURVE SMOOTH",
"443 279 LINE SMOOTH",
"421 213 OFFCURVE",
"412 172 OFFCURVE",
"412 137 CURVE SMOOTH",
"412 63 OFFCURVE",
"456 -3 OFFCURVE",
"573 -3 CURVE SMOOTH",
"676 -3 OFFCURVE",
"746 73 OFFCURVE",
"746 136 CURVE SMOOTH",
"746 149 OFFCURVE",
"742 163 OFFCURVE",
"732 163 CURVE SMOOTH",
"724 163 OFFCURVE",
"718 138 OFFCURVE",
"697 138 CURVE SMOOTH",
"682 138 OFFCURVE",
"676 150 OFFCURVE",
"682 169 CURVE SMOOTH",
"796 542 LINE SMOOTH",
"800 555 OFFCURVE",
"803 566 OFFCURVE",
"803 575 CURVE SMOOTH",
"803 599 OFFCURVE",
"793 624 OFFCURVE",
"727 624 CURVE SMOOTH"
);
}
);
width = 768;
}
);
rightMetricsKey = gjmAA;
unicode = 0AAA;
},
{
glyphname = gjPHA;
lastChange = "2015-08-11 11:44:37 +0000";
layers = (
{
background = {
components = (
{
name = gjKA;
transform = "{1, 0, 0, 1, 0, 0}";
}
);
};
layerId = "FF8CB9F1-2B98-444C-A502-96421F2531A8";
leftMetricsKey = gjKA;
name = "Bold Italic";
paths = (
{
closed = 1;
nodes = (
"409 405 OFFCURVE",
"393 402 OFFCURVE",
"363 388 CURVE SMOOTH",
"288 350 LINE",
"137 350 LINE SMOOTH",
"102 350 OFFCURVE",
"93 330 OFFCURVE",
"92 318 CURVE SMOOTH",
"90 286 OFFCURVE",
"154 250 OFFCURVE",
"198 250 CURVE SMOOTH",
"218 250 OFFCURVE",
"243 261 OFFCURVE",
"334 308 CURVE",
"447 308 LINE SMOOTH",
"489 308 OFFCURVE",
"497 323 OFFCURVE",
"497 337 CURVE SMOOTH",
"499 363 OFFCURVE",
"454 405 OFFCURVE",
"422 405 CURVE SMOOTH"
);
},
{
closed = 1;
nodes = (
"212 633 OFFCURVE",
"150 556 OFFCURVE",
"150 476 CURVE SMOOTH",
"150 417 OFFCURVE",
"196 363 OFFCURVE",
"252 337 CURVE",
"329 356 LINE",
"320 363 OFFCURVE",
"309 376 OFFCURVE",
"310 397 CURVE SMOOTH",
"313 432 OFFCURVE",
"341 456 OFFCURVE",
"391 456 CURVE SMOOTH",
"460 456 OFFCURVE",
"492 420 OFFCURVE",
"520 420 CURVE SMOOTH",
"530 420 OFFCURVE",
"548 432 OFFCURVE",
"548 465 CURVE SMOOTH",
"548 545 OFFCURVE",
"474 633 OFFCURVE",
"328 633 CURVE SMOOTH"
);
},
{
closed = 1;
nodes = (
"262 303 LINE",
"294 283 OFFCURVE",
"310 265 OFFCURVE",
"310 238 CURVE SMOOTH",
"310 180 OFFCURVE",
"230 166 OFFCURVE",
"169 177 CURVE",
"149 226 OFFCURVE",
"124 251 OFFCURVE",
"86 251 CURVE SMOOTH",
"56 251 OFFCURVE",
"32 233 OFFCURVE",
"23 197 CURVE SMOOTH",
"-4 105 OFFCURVE",
"87 -4 OFFCURVE",
"292 -4 CURVE SMOOTH",
"427 -4 OFFCURVE",
"515 59 OFFCURVE",
"515 150 CURVE SMOOTH",
"515 227 OFFCURVE",
"445 285 OFFCURVE",
"342 320 CURVE"
);
},
{
closed = 1;
nodes = (
"128 -116 OFFCURVE",
"216 -240 OFFCURVE",
"380 -240 CURVE SMOOTH",
"470 -240 OFFCURVE",
"537 -188 OFFCURVE",
"537 -97 CURVE SMOOTH",
"537 -52 OFFCURVE",
"504 -12 OFFCURVE",
"487 -12 CURVE SMOOTH",
"474 -12 OFFCURVE",
"441 -56 OFFCURVE",
"355 -56 CURVE SMOOTH",
"286 -56 OFFCURVE",
"209 -26 OFFCURVE",
"209 51 CURVE",
"154 63 LINE"
);
}
);
width = 520;
},
{
associatedMasterId = "FF8CB9F1-2B98-444C-A502-96421F2531A8";
background = {
paths = (
{
closed = 1;
nodes = (
"336 -176 OFFCURVE",
"456 -298 OFFCURVE",
"644 -298 CURVE SMOOTH",
"752 -298 OFFCURVE",
"830 -243 OFFCURVE",
"830 -149 CURVE SMOOTH",
"830 -61 OFFCURVE",
"707 56 OFFCURVE",
"689 20 CURVE SMOOTH",
"678 -4 OFFCURVE",
"637 -69 OFFCURVE",
"597 -69 CURVE SMOOTH",
"554 -69 OFFCURVE",
"456 -50 OFFCURVE",
"384 34 CURVE",
"336 22 LINE"
);
}
);
};
layerId = "206EC46F-8F01-494A-BF32-B001FCDE83A6";
name = "Bold Italic Jul 9 15, 12:38";
paths = (
{
closed = 1;
nodes = (
"273 30 LINE",
"359 -199 OFFCURVE",
"480 -297 OFFCURVE",
"604 -297 CURVE SMOOTH",
"718 -297 OFFCURVE",
"789 -230 OFFCURVE",
"789 -121 CURVE SMOOTH",
"789 -37 OFFCURVE",
"742 15 OFFCURVE",
"722 15 CURVE SMOOTH",
"702 15 OFFCURVE",
"646 -52 OFFCURVE",
"556 -52 CURVE SMOOTH",
"466 -52 OFFCURVE",
"387 -15 OFFCURVE",
"326 44 CURVE"
);
},
{
closed = 1;
nodes = (
"304 839 OFFCURVE",
"178 746 OFFCURVE",
"178 612 CURVE SMOOTH",
"178 533 OFFCURVE",
"228 480 OFFCURVE",
"357 413 CURVE SMOOTH",
"439 371 OFFCURVE",
"447 355 OFFCURVE",
"448 333 CURVE SMOOTH",
"449 301 OFFCURVE",
"412 279 OFFCURVE",
"332 279 CURVE SMOOTH",
"247 279 OFFCURVE",
"202 336 OFFCURVE",
"201 356 CURVE SMOOTH",
"200 376 OFFCURVE",
"200 388 OFFCURVE",
"172 388 CURVE SMOOTH",
"144 388 OFFCURVE",
"30 346 OFFCURVE",
"30 215 CURVE SMOOTH",
"30 84 OFFCURVE",
"173 -9 OFFCURVE",
"374 -9 CURVE SMOOTH",
"575 -9 OFFCURVE",
"718 84 OFFCURVE",
"718 215 CURVE SMOOTH",
"718 344 OFFCURVE",
"598 411 OFFCURVE",
"510 449 CURVE SMOOTH",
"422 487 OFFCURVE",
"399 493 OFFCURVE",
"399 513 CURVE SMOOTH",
"399 553 OFFCURVE",
"486 576 OFFCURVE",
"561 576 CURVE SMOOTH",
"616 576 OFFCURVE",
"636 552 OFFCURVE",
"659 533 CURVE SMOOTH",
"684 513 OFFCURVE",
"718 586 OFFCURVE",
"718 664 CURVE SMOOTH",
"718 766 OFFCURVE",
"621 839 OFFCURVE",
"487 839 CURVE SMOOTH"
);
},
{
closed = 1;
nodes = (
"267 387 LINE SMOOTH",
"255 381 OFFCURVE",
"251 365 OFFCURVE",
"258 354 CURVE SMOOTH",
"271 332 LINE SMOOTH",
"279 318 OFFCURVE",
"295 314 OFFCURVE",
"307 321 CURVE SMOOTH",
"587 470 LINE SMOOTH",
"598 477 OFFCURVE",
"603 491 OFFCURVE",
"595 504 CURVE SMOOTH",
"583 526 LINE SMOOTH",
"574 538 OFFCURVE",
"560 543 OFFCURVE",
"546 535 CURVE SMOOTH"
);
}
);
width = 748;
},
{
associatedMasterId = "FF8CB9F1-2B98-444C-A502-96421F2531A8";
background = {
paths = (
{
closed = 1;
nodes = (
"273 30 LINE",
"359 -199 OFFCURVE",
"480 -297 OFFCURVE",
"604 -297 CURVE SMOOTH",
"718 -297 OFFCURVE",
"789 -230 OFFCURVE",
"789 -121 CURVE SMOOTH",
"789 -37 OFFCURVE",
"742 15 OFFCURVE",
"722 15 CURVE SMOOTH",
"702 15 OFFCURVE",
"646 -52 OFFCURVE",
"556 -52 CURVE SMOOTH",
"466 -52 OFFCURVE",
"387 -15 OFFCURVE",
"326 44 CURVE"
);
},
{
closed = 0;
nodes = (
"374 -9 LINE",
"575 -9 OFFCURVE",
"718 84 OFFCURVE",
"718 215 CURVE SMOOTH",
"718 344 OFFCURVE",
"598 411 OFFCURVE",
"510 449 CURVE SMOOTH",
"422 487 OFFCURVE",
"399 493 OFFCURVE",
"399 513 CURVE SMOOTH",
"399 553 OFFCURVE",
"486 576 OFFCURVE",
"561 576 CURVE SMOOTH",
"616 576 OFFCURVE",
"636 552 OFFCURVE",
"659 533 CURVE SMOOTH",
"684 513 OFFCURVE",
"718 586 OFFCURVE",
"718 664 CURVE SMOOTH",
"718 766 OFFCURVE",
"621 839 OFFCURVE",
"487 839 CURVE SMOOTH",
"304 839 OFFCURVE",
"178 746 OFFCURVE",
"178 612 CURVE SMOOTH",
"178 533 OFFCURVE",
"228 480 OFFCURVE",
"357 413 CURVE SMOOTH",
"439 371 OFFCURVE",
"447 355 OFFCURVE",
"448 333 CURVE SMOOTH",
"449 301 OFFCURVE",
"412 279 OFFCURVE",
"332 279 CURVE"
);
},
{
closed = 1;
nodes = (
"267 387 LINE SMOOTH",
"255 381 OFFCURVE",
"251 365 OFFCURVE",
"258 354 CURVE SMOOTH",
"271 332 LINE SMOOTH",
"279 318 OFFCURVE",
"295 314 OFFCURVE",
"307 321 CURVE SMOOTH",
"587 470 LINE SMOOTH",
"598 477 OFFCURVE",
"603 491 OFFCURVE",
"595 504 CURVE SMOOTH",
"583 526 LINE SMOOTH",
"574 538 OFFCURVE",
"560 543 OFFCURVE",
"546 535 CURVE SMOOTH"
);
},
{
closed = 0;
nodes = (
"332 279 LINE",
"247 279 OFFCURVE",
"202 336 OFFCURVE",
"201 356 CURVE SMOOTH",
"200 376 OFFCURVE",
"200 388 OFFCURVE",
"172 388 CURVE SMOOTH",
"144 388 OFFCURVE",
"30 346 OFFCURVE",
"30 215 CURVE SMOOTH",
"30 84 OFFCURVE",
"173 -9 OFFCURVE",
"374 -9 CURVE"
);
}
);
};
layerId = "9B586693-4A33-4B72-BAD8-643728E00151";
name = "Bold Italic Jul 9 15, 12:40";
paths = (
{
closed = 1;
nodes = (
"304 839 OFFCURVE",
"178 746 OFFCURVE",
"178 612 CURVE SMOOTH",
"178 533 OFFCURVE",
"228 480 OFFCURVE",
"357 413 CURVE SMOOTH",
"439 371 OFFCURVE",
"447 355 OFFCURVE",
"448 333 CURVE SMOOTH",
"449 301 OFFCURVE",
"412 279 OFFCURVE",
"282 248 CURVE",
"374 61 LINE",
"575 94 OFFCURVE",
"718 153 OFFCURVE",
"718 277 CURVE SMOOTH",
"718 376 OFFCURVE",
"598 411 OFFCURVE",
"510 449 CURVE SMOOTH",
"422 487 OFFCURVE",
"399 493 OFFCURVE",
"399 513 CURVE SMOOTH",
"399 553 OFFCURVE",
"486 576 OFFCURVE",
"561 576 CURVE SMOOTH",
"616 576 OFFCURVE",
"636 552 OFFCURVE",
"659 533 CURVE SMOOTH",
"684 513 OFFCURVE",
"718 586 OFFCURVE",
"718 664 CURVE SMOOTH",
"718 766 OFFCURVE",
"621 839 OFFCURVE",
"487 839 CURVE SMOOTH"
);
},
{
closed = 1;
nodes = (
"195 115 LINE",
"144 -79 OFFCURVE",
"221 -271 OFFCURVE",
"443 -271 CURVE SMOOTH",
"592 -271 OFFCURVE",
"673 -163 OFFCURVE",
"673 -57 CURVE SMOOTH",
"673 30 OFFCURVE",
"622 80 OFFCURVE",
"597 80 CURVE SMOOTH",
"566 80 OFFCURVE",
"559 -18 OFFCURVE",
"453 -18 CURVE SMOOTH",
"360 -18 OFFCURVE",
"295 26 OFFCURVE",
"262 115 CURVE"
);
},
{
closed = 1;
nodes = (
"58 259 OFFCURVE",
"19 212 OFFCURVE",
"23 156 CURVE SMOOTH",
"28 81 OFFCURVE",
"101 34 OFFCURVE",
"216 34 CURVE SMOOTH",
"290 34 OFFCURVE",
"386 54 OFFCURVE",
"471 98 CURVE",
"282 248 LINE",
"270 233 OFFCURVE",
"252 219 OFFCURVE",
"229 205 CURVE",
"198 241 OFFCURVE",
"159 266 OFFCURVE",
"110 262 CURVE SMOOTH"
);
},
{
closed = 1;
nodes = (
"267 387 LINE SMOOTH",
"255 381 OFFCURVE",
"251 365 OFFCURVE",
"258 354 CURVE SMOOTH",
"271 332 LINE SMOOTH",
"279 318 OFFCURVE",
"295 314 OFFCURVE",
"307 321 CURVE SMOOTH",
"587 470 LINE SMOOTH",
"598 477 OFFCURVE",
"603 491 OFFCURVE",
"595 504 CURVE SMOOTH",
"583 526 LINE SMOOTH",
"574 538 OFFCURVE",
"560 543 OFFCURVE",
"546 535 CURVE SMOOTH"
);
}
);
width = 748;
},
{
associatedMasterId = "FF8CB9F1-2B98-444C-A502-96421F2531A8";
background = {
paths = (
{
closed = 1;
nodes = (
"241 114 LINE",
"274 25 OFFCURVE",
"339 -19 OFFCURVE",
"432 -19 CURVE SMOOTH",
"538 -19 OFFCURVE",
"545 79 OFFCURVE",
"576 79 CURVE SMOOTH",
"601 79 OFFCURVE",
"652 29 OFFCURVE",
"652 -58 CURVE SMOOTH",
"652 -164 OFFCURVE",
"571 -272 OFFCURVE",
"422 -272 CURVE SMOOTH",
"200 -272 OFFCURVE",
"123 -80 OFFCURVE",
"174 114 CURVE"
);
},
{
closed = 1;
nodes = (
"-2 211 OFFCURVE",
"37 258 OFFCURVE",
"89 261 CURVE SMOOTH",
"138 265 OFFCURVE",
"177 240 OFFCURVE",
"208 204 CURVE",
"264 237 OFFCURVE",
"287 271 OFFCURVE",
"284 316 CURVE SMOOTH",
"283 339 OFFCURVE",
"271 353 OFFCURVE",
"250 352 CURVE SMOOTH",
"226 350 OFFCURVE",
"214 328 OFFCURVE",
"201 327 CURVE SMOOTH",
"190 327 OFFCURVE",
"183 340 OFFCURVE",
"182 360 CURVE SMOOTH",
"175 470 OFFCURVE",
"272 584 OFFCURVE",
"420 594 CURVE SMOOTH",
"553 603 OFFCURVE",
"651 528 OFFCURVE",
"651 399 CURVE SMOOTH",
"651 137 OFFCURVE",
"366 33 OFFCURVE",
"195 33 CURVE SMOOTH",
"80 33 OFFCURVE",
"7 80 OFFCURVE",
"2 155 CURVE SMOOTH"
);
}
);
};
layerId = "6EEA1E99-975E-4A51-9C20-45D04802F1C2";
name = "Bold Italic Jul 9 15, 12:59";
paths = (
{
closed = 1;
nodes = (
"215 403 LINE SMOOTH",
"203 398 OFFCURVE",
"197 383 OFFCURVE",
"203 371 CURVE SMOOTH",
"214 348 LINE SMOOTH",
"221 333 OFFCURVE",
"236 328 OFFCURVE",
"249 334 CURVE SMOOTH",
"541 457 LINE SMOOTH",
"553 462 OFFCURVE",
"559 476 OFFCURVE",
"553 490 CURVE SMOOTH",
"543 513 LINE SMOOTH",
"535 525 OFFCURVE",
"521 532 OFFCURVE",
"507 525 CURVE SMOOTH"
);
},
{
closed = 1;
nodes = (
"144 205 LINE",
"103 -118 OFFCURVE",
"234 -274 OFFCURVE",
"400 -274 CURVE SMOOTH",
"527 -274 OFFCURVE",
"617 -180 OFFCURVE",
"617 -21 CURVE SMOOTH",
"617 40 OFFCURVE",
"594 79 OFFCURVE",
"576 79 CURVE SMOOTH",
"562 79 OFFCURVE",
"523 19 OFFCURVE",
"445 19 CURVE SMOOTH",
"320 19 OFFCURVE",
"254 60 OFFCURVE",
"188 205 CURVE"
);
},
{
closed = 1;
nodes = (
"376 478 OFFCURVE",
"354 493 OFFCURVE",
"356 513 CURVE SMOOTH",
"361 553 OFFCURVE",
"451 576 OFFCURVE",
"526 576 CURVE SMOOTH",
"581 576 OFFCURVE",
"598 552 OFFCURVE",
"619 533 CURVE SMOOTH",
"641 513 OFFCURVE",
"684 586 OFFCURVE",
"694 664 CURVE SMOOTH",
"706 766 OFFCURVE",
"618 839 OFFCURVE",
"484 839 CURVE SMOOTH",
"301 839 OFFCURVE",
"164 746 OFFCURVE",
"147 612 CURVE SMOOTH",
"138 533 OFFCURVE",
"180 478 OFFCURVE",
"302 413 CURVE SMOOTH",
"347 389 OFFCURVE",
"366 355 OFFCURVE",
"363 333 CURVE SMOOTH",
"356 276 OFFCURVE",
"292 268 OFFCURVE",
"200 268 CURVE",
"190 332 OFFCURVE",
"147 394 OFFCURVE",
"78 394 CURVE SMOOTH",
"41 394 OFFCURVE",
"-10 361 OFFCURVE",
"9 270 CURVE SMOOTH",
"32 159 OFFCURVE",
"119 88 OFFCURVE",
"293 88 CURVE SMOOTH",
"475 88 OFFCURVE",
"578 151 OFFCURVE",
"598 248 CURVE SMOOTH",
"618 346 OFFCURVE",
"565 391 OFFCURVE",
"460 439 CURVE SMOOTH"
);
}
);
width = 748;
},
{
associatedMasterId = "FF8CB9F1-2B98-444C-A502-96421F2531A8";
background = {
paths = (
{
closed = 1;
nodes = (
"189 403 LINE SMOOTH",
"175 397 OFFCURVE",
"167 383 OFFCURVE",
"175 371 CURVE SMOOTH",
"188 348 LINE SMOOTH",
"196 333 OFFCURVE",
"214 327 OFFCURVE",
"230 334 CURVE SMOOTH",
"527 457 LINE SMOOTH",
"541 463 OFFCURVE",
"548 476 OFFCURVE",
"541 490 CURVE SMOOTH",
"529 513 LINE SMOOTH",
"520 525 OFFCURVE",
"503 532 OFFCURVE",
"486 525 CURVE SMOOTH"
);
},
{
closed = 1;
nodes = (
"104 205 LINE",
"55 -118 OFFCURVE",
"212 -274 OFFCURVE",
"410 -274 CURVE SMOOTH",
"562 -274 OFFCURVE",
"670 -180 OFFCURVE",
"670 -21 CURVE SMOOTH",
"670 40 OFFCURVE",
"642 79 OFFCURVE",
"621 79 CURVE SMOOTH",
"604 79 OFFCURVE",
"557 19 OFFCURVE",
"441 19 CURVE SMOOTH",
"315 19 OFFCURVE",
"236 60 OFFCURVE",
"157 205 CURVE"
);
},
{
closed = 1;
nodes = (
"381 478 OFFCURVE",
"355 493 OFFCURVE",
"358 513 CURVE SMOOTH",
"364 553 OFFCURVE",
"419 576 OFFCURVE",
"509 576 CURVE SMOOTH",
"575 576 OFFCURVE",
"595 552 OFFCURVE",
"620 533 CURVE SMOOTH",
"647 513 OFFCURVE",
"698 586 OFFCURVE",
"709 664 CURVE SMOOTH",
"724 766 OFFCURVE",
"619 839 OFFCURVE",
"459 839 CURVE SMOOTH",
"240 839 OFFCURVE",
"128 746 OFFCURVE",
"108 612 CURVE SMOOTH",
"97 533 OFFCURVE",
"147 478 OFFCURVE",
"293 413 CURVE SMOOTH",
"346 389 OFFCURVE",
"370 355 OFFCURVE",
"366 333 CURVE SMOOTH",
"358 276 OFFCURVE",
"281 268 OFFCURVE",
"171 268 CURVE",
"159 332 OFFCURVE",
"108 394 OFFCURVE",
"25 394 CURVE SMOOTH",
"-19 394 OFFCURVE",
"-80 361 OFFCURVE",
"-57 270 CURVE SMOOTH",
"-30 159 OFFCURVE",
"74 88 OFFCURVE",
"283 88 CURVE SMOOTH",
"500 88 OFFCURVE",
"623 151 OFFCURVE",
"647 248 CURVE SMOOTH",
"671 346 OFFCURVE",
"607 391 OFFCURVE",
"482 439 CURVE SMOOTH"
);
}
);
};
layerId = "BF5B68A1-A93C-43B0-9A6C-B133D9384F5C";
name = "Bold Italic Jul 9 15, 13:45";
paths = (
{
closed = 1;
nodes = (
"360 452 LINE",
"181 452 LINE SMOOTH",
"140 452 OFFCURVE",
"122 421 OFFCURVE",
"145 398 CURVE SMOOTH",
"194 349 LINE SMOOTH",
"213 330 OFFCURVE",
"238 313 OFFCURVE",
"281 338 CURVE SMOOTH",
"410 410 LINE",
"562 437 LINE SMOOTH",
"584 441 OFFCURVE",
"594 466 OFFCURVE",
"583 488 CURVE SMOOTH",
"565 523 LINE SMOOTH",
"555 543 OFFCURVE",
"522 556 OFFCURVE",
"499 541 CURVE SMOOTH"
);
},
{
closed = 1;
nodes = (
"104 205 LINE",
"55 -118 OFFCURVE",
"212 -274 OFFCURVE",
"410 -274 CURVE SMOOTH",
"562 -274 OFFCURVE",
"670 -180 OFFCURVE",
"670 -21 CURVE SMOOTH",
"670 40 OFFCURVE",
"642 79 OFFCURVE",
"621 79 CURVE SMOOTH",
"604 79 OFFCURVE",
"557 19 OFFCURVE",
"441 19 CURVE SMOOTH",
"315 19 OFFCURVE",
"236 60 OFFCURVE",
"157 205 CURVE"
);
},
{
closed = 1;
nodes = (
"335 467 OFFCURVE",
"355 493 OFFCURVE",
"358 513 CURVE SMOOTH",
"364 553 OFFCURVE",
"419 576 OFFCURVE",
"509 576 CURVE SMOOTH",
"575 576 OFFCURVE",
"595 552 OFFCURVE",
"620 533 CURVE SMOOTH",
"647 513 OFFCURVE",
"698 586 OFFCURVE",
"709 664 CURVE SMOOTH",
"724 766 OFFCURVE",
"619 839 OFFCURVE",
"459 839 CURVE SMOOTH",
"240 839 OFFCURVE",
"144 756 OFFCURVE",
"120 659 CURVE SMOOTH",
"89 535 OFFCURVE",
"233 465 OFFCURVE",
"332 433 CURVE SMOOTH",
"373 420 OFFCURVE",
"393 391 OFFCURVE",
"393 363 CURVE SMOOTH",
"393 317 OFFCURVE",
"350 268 OFFCURVE",
"171 268 CURVE",
"159 332 OFFCURVE",
"108 394 OFFCURVE",
"25 394 CURVE SMOOTH",
"-7 394 OFFCURVE",
"-48 377 OFFCURVE",
"-59 332 CURVE SMOOTH",
"-85 223 OFFCURVE",
"15 88 OFFCURVE",
"320 88 CURVE SMOOTH",
"522 88 OFFCURVE",
"643 160 OFFCURVE",
"643 240 CURVE SMOOTH",
"643 317 OFFCURVE",
"656 382 OFFCURVE",
"440 439 CURVE SMOOTH"
);
}
);
width = 748;
},
{
associatedMasterId = "FF8CB9F1-2B98-444C-A502-96421F2531A8";
background = {
paths = (
{
closed = 1;
nodes = (
"391 462 LINE",
"378 473 OFFCURVE",
"361 492 OFFCURVE",
"362 517 CURVE SMOOTH",
"365 567 OFFCURVE",
"405 598 OFFCURVE",
"472 598 CURVE SMOOTH",
"566 598 OFFCURVE",
"609 550 OFFCURVE",
"648 550 CURVE SMOOTH",
"663 550 OFFCURVE",
"684 568 OFFCURVE",
"684 610 CURVE SMOOTH",
"684 718 OFFCURVE",
"586 839 OFFCURVE",
"410 839 CURVE SMOOTH",
"218 839 OFFCURVE",
"147 720 OFFCURVE",
"147 618 CURVE SMOOTH",
"147 546 OFFCURVE",
"208 474 OFFCURVE",
"284 437 CURVE"
);
},
{
closed = 1;
nodes = (
"336 270 LINE",
"318 258 OFFCURVE",
"293 250 OFFCURVE",
"258 250 CURVE SMOOTH",
"94 250 OFFCURVE",
"66 338 OFFCURVE",
"36 338 CURVE SMOOTH",
"11 338 OFFCURVE",
"-45 285 OFFCURVE",
"-50 208 CURVE SMOOTH",
"-56 83 OFFCURVE",
"84 -9 OFFCURVE",
"282 -9 CURVE SMOOTH",
"424 -9 OFFCURVE",
"533 34 OFFCURVE",
"592 101 CURVE"
);
},
{
closed = 1;
nodes = (
"497 543 OFFCURVE",
"475 539 OFFCURVE",
"436 520 CURVE SMOOTH",
"334 469 LINE",
"129 469 LINE SMOOTH",
"81 469 OFFCURVE",
"69 445 OFFCURVE",
"68 426 CURVE SMOOTH",
"65 383 OFFCURVE",
"151 333 OFFCURVE",
"211 333 CURVE SMOOTH",
"238 333 OFFCURVE",
"273 348 OFFCURVE",
"396 411 CURVE",
"548 411 LINE SMOOTH",
"605 411 OFFCURVE",
"615 433 OFFCURVE",
"616 452 CURVE SMOOTH",
"618 488 OFFCURVE",
"557 543 OFFCURVE",
"515 543 CURVE SMOOTH"
);
},
{
closed = 1;
nodes = (
"592 101 LINE",
"621 134 OFFCURVE",
"638 174 OFFCURVE",
"640 217 CURVE SMOOTH",
"645 317 OFFCURVE",
"535 391 OFFCURVE",
"407 434 CURVE",
"297 409 LINE",
"341 383 OFFCURVE",
"365 359 OFFCURVE",
"363 321 CURVE SMOOTH",
"362 301 OFFCURVE",
"353 283 OFFCURVE",
"336 270 CURVE"
);
}
);
};
layerId = "A68FCECA-D044-4748-B121-47B458F60821";
name = "Bold Italic Jul 9 15, 16:21";
paths = (
{
closed = 1;
nodes = (
"104 111 LINE",
"104 -191 OFFCURVE",
"268 -368 OFFCURVE",
"465 -368 CURVE SMOOTH",
"580 -368 OFFCURVE",
"670 -274 OFFCURVE",
"670 -115 CURVE SMOOTH",
"670 -54 OFFCURVE",
"642 -15 OFFCURVE",
"621 -15 CURVE SMOOTH",
"604 -15 OFFCURVE",
"557 -75 OFFCURVE",
"441 -75 CURVE SMOOTH",
"315 -75 OFFCURVE",
"236 -34 OFFCURVE",
"157 111 CURVE"
);
},
{
closed = 1;
nodes = (
"336 270 LINE",
"303 265 OFFCURVE",
"202 213 OFFCURVE",
"131 252 CURVE",
"113 307 OFFCURVE",
"96 339 OFFCURVE",
"35 339 CURVE SMOOTH",
"3 339 OFFCURVE",
"-18 322 OFFCURVE",
"-29 277 CURVE SMOOTH",
"-55 168 OFFCURVE",
"15 -6 OFFCURVE",
"258 -6 CURVE SMOOTH",
"348 -6 OFFCURVE",
"468 0 OFFCURVE",
"580 97 CURVE"
);
},
{
closed = 1;
nodes = (
"391 462 LINE",
"378 473 OFFCURVE",
"361 492 OFFCURVE",
"362 517 CURVE SMOOTH",
"365 567 OFFCURVE",
"405 598 OFFCURVE",
"472 598 CURVE SMOOTH",
"566 598 OFFCURVE",
"609 550 OFFCURVE",
"648 550 CURVE SMOOTH",
"663 550 OFFCURVE",
"684 568 OFFCURVE",
"684 610 CURVE SMOOTH",
"684 718 OFFCURVE",
"586 839 OFFCURVE",
"410 839 CURVE SMOOTH",
"218 839 OFFCURVE",
"147 720 OFFCURVE",
"147 618 CURVE SMOOTH",
"147 546 OFFCURVE",
"208 474 OFFCURVE",
"284 437 CURVE"
);
},
{
closed = 1;
nodes = (
"497 543 OFFCURVE",
"475 539 OFFCURVE",
"436 520 CURVE SMOOTH",
"334 469 LINE",
"129 469 LINE SMOOTH",
"81 469 OFFCURVE",
"69 445 OFFCURVE",
"68 426 CURVE SMOOTH",
"65 383 OFFCURVE",
"151 333 OFFCURVE",
"211 333 CURVE SMOOTH",
"238 333 OFFCURVE",
"273 348 OFFCURVE",
"396 411 CURVE",
"548 411 LINE SMOOTH",
"605 411 OFFCURVE",
"615 433 OFFCURVE",
"616 452 CURVE SMOOTH",
"618 488 OFFCURVE",
"557 543 OFFCURVE",
"515 543 CURVE SMOOTH"
);
},
{
closed = 1;
nodes = (
"592 101 LINE",
"621 134 OFFCURVE",
"638 174 OFFCURVE",
"640 217 CURVE SMOOTH",
"645 317 OFFCURVE",
"535 391 OFFCURVE",
"407 434 CURVE",
"297 409 LINE",
"341 383 OFFCURVE",
"365 359 OFFCURVE",
"363 321 CURVE SMOOTH",
"362 301 OFFCURVE",
"353 283 OFFCURVE",
"336 270 CURVE"
);
}
);
width = 748;
}
);
leftMetricsKey = gjKA;
unicode = 0AAB;
},
{
color = 6;
glyphname = gjBA;
lastChange = "2015-08-11 11:44:37 +0000";
layers = (
{
background = {
paths = (
{
closed = 1;
nodes = (
"1040 499 OFFCURVE",
"1008 479 OFFCURVE",
"964 479 CURVE",
"810 419 LINE",
"883 360 OFFCURVE",
"967 327 OFFCURVE",
"1058 327 CURVE",
"1058 557 LINE"
);
},
{
closed = 1;
nodes = (
"674 372 OFFCURVE",
"632 412 OFFCURVE",
"632 493 CURVE SMOOTH",
"632 647 OFFCURVE",
"739 709 OFFCURVE",
"855 709 CURVE SMOOTH",
"870 709 OFFCURVE",
"876 716 OFFCURVE",
"876 729 CURVE SMOOTH",
"876 770 OFFCURVE",
"811 837 OFFCURVE",
"667 837 CURVE SMOOTH",
"441 837 OFFCURVE",
"281 679 OFFCURVE",
"281 459 CURVE SMOOTH",
"281 261 OFFCURVE",
"442 170 OFFCURVE",
"611 170 CURVE SMOOTH",
"817 170 OFFCURVE",
"967 315 OFFCURVE",
"967 481 CURVE SMOOTH",
"967 583 OFFCURVE",
"914 636 OFFCURVE",
"844 636 CURVE SMOOTH",
"784 636 OFFCURVE",
"744 594 OFFCURVE",
"744 527 CURVE SMOOTH",
"744 474 OFFCURVE",
"763 444 OFFCURVE",
"799 405 CURVE",
"779 385 OFFCURVE",
"751 372 OFFCURVE",
"721 372 CURVE SMOOTH"
);
}
);
};
layerId = "FF8CB9F1-2B98-444C-A502-96421F2531A8";
rightMetricsKey = gjmAA;
name = "Bold Italic";
paths = (
{
closed = 1;
nodes = (
"613 368 OFFCURVE",
"591 355 OFFCURVE",
"558 355 CURVE",
"444 310 LINE",
"498 266 OFFCURVE",
"560 242 OFFCURVE",
"626 242 CURVE",
"626 412 LINE"
);
},
{
closed = 1;
nodes = (
"344 274 OFFCURVE",
"313 305 OFFCURVE",
"313 365 CURVE SMOOTH",
"313 477 OFFCURVE",
"391 539 OFFCURVE",
"475 539 CURVE SMOOTH",
"488 539 OFFCURVE",
"493 545 OFFCURVE",
"493 553 CURVE SMOOTH",
"493 583 OFFCURVE",
"435 633 OFFCURVE",
"326 633 CURVE SMOOTH",
"169 633 OFFCURVE",
"53 516 OFFCURVE",
"53 339 CURVE SMOOTH",
"53 201 OFFCURVE",
"157 125 OFFCURVE",
"289 125 CURVE SMOOTH",
"442 125 OFFCURVE",
"560 226 OFFCURVE",
"560 357 CURVE SMOOTH",
"560 430 OFFCURVE",
"520 470 OFFCURVE",
"468 470 CURVE SMOOTH",
"424 470 OFFCURVE",
"395 440 OFFCURVE",
"395 390 CURVE SMOOTH",
"395 351 OFFCURVE",
"409 327 OFFCURVE",
"435 300 CURVE",
"422 285 OFFCURVE",
"404 274 OFFCURVE",
"380 274 CURVE SMOOTH"
);
},
{
closed = 1;
nodes = (
"795 624 OFFCURVE",
"685 599 OFFCURVE",
"667 542 CURVE SMOOTH",
"584 279 LINE SMOOTH",
"563 213 OFFCURVE",
"553 172 OFFCURVE",
"553 137 CURVE SMOOTH",
"553 63 OFFCURVE",
"599 -3 OFFCURVE",
"716 -3 CURVE SMOOTH",
"820 -3 OFFCURVE",
"888 73 OFFCURVE",
"888 136 CURVE SMOOTH",
"888 149 OFFCURVE",
"884 163 OFFCURVE",
"875 163 CURVE SMOOTH",
"866 163 OFFCURVE",
"859 138 OFFCURVE",
"837 138 CURVE SMOOTH",
"825 138 OFFCURVE",
"819 150 OFFCURVE",
"825 169 CURVE SMOOTH",
"937 542 LINE SMOOTH",
"941 555 OFFCURVE",
"944 566 OFFCURVE",
"944 575 CURVE SMOOTH",
"944 599 OFFCURVE",
"935 624 OFFCURVE",
"869 624 CURVE SMOOTH"
);
}
);
width = 910;
}
);
rightMetricsKey = gjmAA;
unicode = 0AAC;
},
{
color = 6;
glyphname = gjBHA;
lastChange = "2015-08-11 11:44:37 +0000";
layers = (
{
background = {
paths = (
{
closed = 1;
nodes = (
"-12 381 LINE",
"122 63 OFFCURVE",
"358 -84 OFFCURVE",
"658 -84 CURVE SMOOTH",
"898 -84 OFFCURVE",
"1021 50 OFFCURVE",
"1021 204 CURVE SMOOTH",
"1021 258 OFFCURVE",
"1002 298 OFFCURVE",
"988 298 CURVE SMOOTH",
"962 298 OFFCURVE",
"935 209 OFFCURVE",
"685 209 CURVE SMOOTH",
"445 209 OFFCURVE",
"236 296 OFFCURVE",
"79 452 CURVE"
);
}
);
};
guideLines = (
{
angle = 72.4397;
position = "{1704, 774}";
}
);
layerId = "FF8CB9F1-2B98-444C-A502-96421F2531A8";
rightMetricsKey = gjmAA;
name = "Bold Italic";
paths = (
{
closed = 1;
nodes = (
"176 633 OFFCURVE",
"26 415 OFFCURVE",
"26 233 CURVE SMOOTH",
"26 81 OFFCURVE",
"141 -3 OFFCURVE",
"320 -3 CURVE SMOOTH",
"494 -3 OFFCURVE",
"584 103 OFFCURVE",
"584 185 CURVE SMOOTH",
"584 199 OFFCURVE",
"580 207 OFFCURVE",
"575 207 CURVE SMOOTH",
"559 207 OFFCURVE",
"536 174 OFFCURVE",
"450 174 CURVE SMOOTH",
"327 174 OFFCURVE",
"245 227 OFFCURVE",
"245 333 CURVE SMOOTH",
"245 453 OFFCURVE",
"334 550 OFFCURVE",
"393 550 CURVE SMOOTH",
"428 550 OFFCURVE",
"420 524 OFFCURVE",
"410 492 CURVE SMOOTH",
"394 442 LINE",
"375 442 LINE SMOOTH",
"345 442 OFFCURVE",
"325 425 OFFCURVE",
"320 404 CURVE SMOOTH",
"305 334 OFFCURVE",
"412 250 OFFCURVE",
"506 250 CURVE SMOOTH",
"577 250 OFFCURVE",
"620 287 OFFCURVE",
"650 394 CURVE SMOOTH",
"693 541 OFFCURVE",
"603 633 OFFCURVE",
"453 633 CURVE SMOOTH"
);
},
{
closed = 1;
nodes = (
"553 442 LINE",
"553 352 LINE",
"806 352 LINE",
"806 442 LINE"
);
},
{
closed = 1;
nodes = (
"897 624 OFFCURVE",
"788 599 OFFCURVE",
"770 542 CURVE SMOOTH",
"686 279 LINE SMOOTH",
"665 213 OFFCURVE",
"656 172 OFFCURVE",
"656 137 CURVE SMOOTH",
"656 63 OFFCURVE",
"699 -3 OFFCURVE",
"817 -3 CURVE SMOOTH",
"921 -3 OFFCURVE",
"989 73 OFFCURVE",
"989 136 CURVE SMOOTH",
"989 149 OFFCURVE",
"984 163 OFFCURVE",
"977 163 CURVE SMOOTH",
"968 163 OFFCURVE",
"962 138 OFFCURVE",
"939 138 CURVE SMOOTH",
"926 138 OFFCURVE",
"921 150 OFFCURVE",
"926 169 CURVE SMOOTH",
"1040 542 LINE SMOOTH",
"1043 555 OFFCURVE",
"1046 566 OFFCURVE",
"1046 575 CURVE SMOOTH",
"1046 599 OFFCURVE",
"1035 624 OFFCURVE",
"972 624 CURVE SMOOTH"
);
}
);
width = 1012;
},
{
associatedMasterId = "FF8CB9F1-2B98-444C-A502-96421F2531A8";
background = {
paths = (
{
closed = 1;
nodes = (
"792 379 LINE",
"762 287 OFFCURVE",
"750 234 OFFCURVE",
"750 186 CURVE SMOOTH",
"750 85 OFFCURVE",
"809 -4 OFFCURVE",
"969 -4 CURVE SMOOTH",
"1109 -4 OFFCURVE",
"1202 98 OFFCURVE",
"1202 184 CURVE SMOOTH",
"1202 202 OFFCURVE",
"1196 220 OFFCURVE",
"1185 220 CURVE SMOOTH",
"1172 220 OFFCURVE",
"1164 187 OFFCURVE",
"1134 187 CURVE SMOOTH",
"1116 187 OFFCURVE",
"1108 203 OFFCURVE",
"1116 229 CURVE SMOOTH",
"1270 733 LINE SMOOTH",
"1275 750 OFFCURVE",
"1278 766 OFFCURVE",
"1278 779 CURVE SMOOTH",
"1278 809 OFFCURVE",
"1265 844 OFFCURVE",
"1182 844 CURVE SMOOTH",
"1109 844 OFFCURVE",
"1028 821 OFFCURVE",
"917 774 CURVE"
);
},
{
closed = 1;
nodes = (
"579 322 LINE",
"921 322 LINE",
"921 444 LINE",
"579 444 LINE"
);
},
{
closed = 1;
nodes = (
"227 853 OFFCURVE",
"-11 630 OFFCURVE",
"-11 349 CURVE SMOOTH",
"-11 89 OFFCURVE",
"328 -58 OFFCURVE",
"328 30 CURVE SMOOTH",
"328 88 OFFCURVE",
"147 131 OFFCURVE",
"147 320 CURVE SMOOTH",
"147 500 OFFCURVE",
"287 632 OFFCURVE",
"378 632 CURVE SMOOTH",
"391 632 OFFCURVE",
"405 623 OFFCURVE",
"400 608 CURVE SMOOTH",
"347 444 LINE",
"328 444 LINE SMOOTH",
"278 444 OFFCURVE",
"247 426 OFFCURVE",
"247 355 CURVE SMOOTH",
"247 236 OFFCURVE",
"383 133 OFFCURVE",
"495 133 CURVE SMOOTH",
"584 133 OFFCURVE",
"631 176 OFFCURVE",
"661 275 CURVE SMOOTH",
"751 569 LINE SMOOTH",
"796 716 OFFCURVE",
"747 853 OFFCURVE",
"523 853 CURVE SMOOTH"
);
}
);
};
backgroundImage = {
crop = "{{0, 0}, {720, 636}}";
imagePath = /Users/jonathanpinhorn/Dropbox/JP_FREELANCE/2015/Projects/GoogleWebFonts/TypeConcepts/Shrikhand/Pashu/Gujarati/Reference/Pashu_BHA.png;
locked = 1;
transform = "{1.900, 0, 0, 1.900, -100, -154}";
};
layerId = "2223BC3A-F2DD-41D4-8DA3-4DB00D5535B6";
rightMetricsKey = "=pa-gujarati";
name = "Regular May 28 15, 16:49";
paths = (
{
closed = 1;
nodes = (
"792 379 LINE",
"762 287 OFFCURVE",
"750 234 OFFCURVE",
"750 186 CURVE SMOOTH",
"750 85 OFFCURVE",
"809 -4 OFFCURVE",
"969 -4 CURVE SMOOTH",
"1109 -4 OFFCURVE",
"1202 98 OFFCURVE",
"1202 184 CURVE SMOOTH",
"1202 202 OFFCURVE",
"1196 220 OFFCURVE",
"1185 220 CURVE SMOOTH",
"1172 220 OFFCURVE",
"1164 187 OFFCURVE",
"1134 187 CURVE SMOOTH",
"1116 187 OFFCURVE",
"1108 203 OFFCURVE",
"1116 229 CURVE SMOOTH",
"1270 733 LINE SMOOTH",
"1275 750 OFFCURVE",
"1278 766 OFFCURVE",
"1278 779 CURVE SMOOTH",
"1278 809 OFFCURVE",
"1265 844 OFFCURVE",
"1182 844 CURVE SMOOTH",
"1109 844 OFFCURVE",
"1028 821 OFFCURVE",
"917 774 CURVE"
);
},
{
closed = 1;
nodes = (
"579 322 LINE",
"921 322 LINE",
"921 444 LINE",
"579 444 LINE"
);
},
{
closed = 1;
nodes = (
"214 853 OFFCURVE",
"-11 658 OFFCURVE",
"-11 366 CURVE SMOOTH",
"-11 112 OFFCURVE",
"150 8 OFFCURVE",
"289 8 CURVE SMOOTH",
"341 8 OFFCURVE",
"378 18 OFFCURVE",
"378 42 CURVE SMOOTH",
"378 84 OFFCURVE",
"177 89 OFFCURVE",
"177 340 CURVE SMOOTH",
"177 520 OFFCURVE",
"282 615 OFFCURVE",
"373 615 CURVE SMOOTH",
"386 615 OFFCURVE",
"400 606 OFFCURVE",
"395 591 CURVE SMOOTH",
"347 444 LINE",
"328 444 LINE SMOOTH",
"278 444 OFFCURVE",
"247 426 OFFCURVE",
"247 355 CURVE SMOOTH",
"247 236 OFFCURVE",
"383 133 OFFCURVE",
"495 133 CURVE SMOOTH",
"584 133 OFFCURVE",
"630 175 OFFCURVE",
"661 275 CURVE SMOOTH",
"751 569 LINE SMOOTH",
"796 715 OFFCURVE",
"747 853 OFFCURVE",
"523 853 CURVE SMOOTH"
);
}
);
width = 1298;
}
);
rightMetricsKey = "pa-gujarati";
unicode = 0AAD;
},
{
color = 6;
glyphname = gjMA;
lastChange = "2015-08-11 11:44:37 +0000";
layers = (
{
background = {
paths = (
{
closed = 1;
nodes = (
"382 853 OFFCURVE",
"323 773 OFFCURVE",
"323 688 CURVE SMOOTH",
"323 670 OFFCURVE",
"329 652 OFFCURVE",
"340 652 CURVE SMOOTH",
"353 652 OFFCURVE",
"360 684 OFFCURVE",
"390 684 CURVE SMOOTH",
"403 684 OFFCURVE",
"417 675 OFFCURVE",
"412 660 CURVE SMOOTH",
"358 481 LINE",
"339 481 LINE SMOOTH",
"289 481 OFFCURVE",
"258 463 OFFCURVE",
"258 392 CURVE SMOOTH",
"258 273 OFFCURVE",
"394 170 OFFCURVE",
"506 170 CURVE SMOOTH",
"595 170 OFFCURVE",
"642 213 OFFCURVE",
"672 312 CURVE SMOOTH",
"751 569 LINE SMOOTH",
"812 767 OFFCURVE",
"659 853 OFFCURVE",
"523 853 CURVE SMOOTH"
);
},
{
closed = 1;
nodes = (
"565 481 LINE",
"565 359 LINE",
"907 359 LINE",
"907 481 LINE"
);
}
);
};
guideLines = (
{
position = "{460, 481}";
}
);
layerId = "FF8CB9F1-2B98-444C-A502-96421F2531A8";
rightMetricsKey = gjmAA;
name = "Bold Italic";
paths = (
{
closed = 1;
nodes = (
"263 357 LINE",
"263 265 LINE",
"515 265 LINE",
"515 357 LINE"
);
},
{
closed = 1;
nodes = (
"91 357 LINE SMOOTH",
"61 357 OFFCURVE",
"42 339 OFFCURVE",
"35 318 CURVE SMOOTH",
"11 221 OFFCURVE",
"117 125 OFFCURVE",
"212 125 CURVE SMOOTH",
"282 125 OFFCURVE",
"322 165 OFFCURVE",
"355 270 CURVE SMOOTH",
"401 423 LINE SMOOTH",
"409 447 OFFCURVE",
"411 466 OFFCURVE",
"411 487 CURVE SMOOTH",
"411 580 OFFCURVE",
"324 633 OFFCURVE",
"240 633 CURVE SMOOTH",
"135 633 OFFCURVE",
"84 574 OFFCURVE",
"84 511 CURVE SMOOTH",
"84 499 OFFCURVE",
"88 485 OFFCURVE",
"97 485 CURVE SMOOTH",
"107 485 OFFCURVE",
"113 509 OFFCURVE",
"134 509 CURVE SMOOTH",
"141 509 OFFCURVE",
"150 505 OFFCURVE",
"150 494 CURVE SMOOTH",
"150 492 OFFCURVE",
"149 488 OFFCURVE",
"149 485 CURVE SMOOTH",
"110 357 LINE"
);
},
{
closed = 1;
nodes = (
"263 357 LINE",
"263 265 LINE",
"515 265 LINE",
"515 357 LINE"
);
},
{
closed = 1;
nodes = (
"641 624 OFFCURVE",
"530 599 OFFCURVE",
"514 542 CURVE SMOOTH",
"429 279 LINE SMOOTH",
"409 213 OFFCURVE",
"400 172 OFFCURVE",
"400 137 CURVE SMOOTH",
"400 63 OFFCURVE",
"443 -3 OFFCURVE",
"561 -3 CURVE SMOOTH",
"664 -3 OFFCURVE",
"732 73 OFFCURVE",
"732 136 CURVE SMOOTH",
"732 149 OFFCURVE",
"728 163 OFFCURVE",
"721 163 CURVE SMOOTH",
"711 163 OFFCURVE",
"706 138 OFFCURVE",
"683 138 CURVE SMOOTH",
"669 138 OFFCURVE",
"664 150 OFFCURVE",
"669 169 CURVE SMOOTH",
"783 542 LINE SMOOTH",
"788 555 OFFCURVE",
"791 566 OFFCURVE",
"791 575 CURVE SMOOTH",
"791 599 OFFCURVE",
"780 624 OFFCURVE",
"715 624 CURVE SMOOTH"
);
}
);
width = 756;
}
);
rightMetricsKey = "pa-gujarati";
unicode = 0AAE;
},
